<?xml version="1.0" encoding="iso-8859-1"?>
<!-- Generator: Adobe Illustrator 16.0.4, SVG Export Plug-In . SVG Version: 6.00 Build 0)  -->
<!DOCTYPE svg PUBLIC "-//W3C//DTD SVG 1.1//EN" "http://www.w3.org/Graphics/SVG/1.1/DTD/svg11.dtd">
<svg version="1.1" id="Layer_1" xmlns="http://www.w3.org/2000/svg" xmlns:xlink="http://www.w3.org/1999/xlink" x="0px" y="0px"
	 width="32px" height="32px" viewBox="0 0 32 32" style="enable-background:new 0 0 32 32;" xml:space="preserve">
<path d="M32,4.438l-0.377-1.326l-0.404-1.555C28.535-1.021,21.52,0.119,16.736,1.3c-0.288-0.629-0.977-0.981-1.645-0.776
	c-0.638,0.195-1,0.82-0.938,1.47c-0.578,0.168-1.063,0.317-1.43,0.434c-0.601-0.36-1.313-0.487-1.98-0.284
	C9.392,2.558,8.663,4.107,9.118,5.596c0.098,0.32,0.247,0.611,0.431,0.872C8.987,6.716,8.483,7.131,8.706,7.956
	C8.773,8.207,8.824,8.415,8.87,8.607c-3.561,1.341-5.835,8.505-6.049,12.667C2.733,22.72,2.001,22.806,0,25.365
	c0.48,0,22.77,0.036,23.648,0.125c-0.185-0.901-1.684-1.171-3.146-1.212c-0.195-0.006-0.994-0.584-0.479-1.201
	c-1.168,0.104-0.5,1.203-0.688,1.209c-0.384,0.015-1.097-0.832-0.515-1.861c-1.424,0.094-1.271,2.004-1.27,2.006
	c0,0-0.775-0.755,0.035-2.246c-1.753-0.615-2.721,1.352-2.721,1.352s-2.158-1.891-3.539-2.043c-1.383-0.153-1.17,0.803-2.5,1.229
	c-2.805,0.527-2.939-1.382-2.874-1.601c0.298,0.362,3.672,0.823,4.083-1.476c-2.196,1.578-3.809-0.207-3.809-0.207
	s2.951,1.063,3.363-1.373c-1.541,1.57-3.02-0.617-3.02-0.617s2.882,0.96,2.677-0.618c-0.687,0.618-2.35-0.731-2.35-0.731
	s1.055-4.225,2.467-5.686c0.016,0.039,0.028,0.074,0.046,0.116c0.201,0.483,0.708,0.515,1.216,0.417
	c-0.001,0.266,0.025,0.533,0.105,0.793c0.333,1.087,1.349,1.847,2.471,1.847c0.251,0,0.501-0.038,0.743-0.112
	c0.658-0.201,1.196-0.649,1.515-1.263c0.018-0.035,0.026-0.071,0.043-0.106c0.329-0.052,0.783-0.127,1.346-0.23
	c0.307,0.586,0.965,0.911,1.61,0.712c0.563-0.172,0.925-0.679,0.961-1.243C24.123,10.272,30.979,8.104,32,4.438z M11.066,3.194
	c0.12-0.037,0.244-0.055,0.37-0.055c0.159,0,0.315,0.034,0.464,0.088c-0.103,0.844-0.406,2.408-1.25,2.844
	c-0.213-0.212-0.386-0.481-0.482-0.795C9.89,4.364,10.292,3.431,11.066,3.194z M13.624,12.426c-0.765,0.231-1.607-0.238-1.842-1.006
	c-0.083-0.273-0.063-0.551,0.007-0.819c1.018-0.289,2.099,0.542,2.693,1.11C14.299,12.058,13.995,12.313,13.624,12.426z"/>
</svg>
