<?xml version="1.0" encoding="iso-8859-1"?>
<!-- Generator: Adobe Illustrator 16.0.4, SVG Export Plug-In . SVG Version: 6.00 Build 0)  -->
<!DOCTYPE svg PUBLIC "-//W3C//DTD SVG 1.1//EN" "http://www.w3.org/Graphics/SVG/1.1/DTD/svg11.dtd">
<svg version="1.1" id="Layer_1" xmlns="http://www.w3.org/2000/svg" xmlns:xlink="http://www.w3.org/1999/xlink" x="0px" y="0px"
	 width="33.684px" height="33.685px" viewBox="-1.704 -1.704 33.684 33.685"
	 style="enable-background:new -1.704 -1.704 33.684 33.685;" xml:space="preserve">
<g>
	<path d="M21.947,29.639c-0.671-0.383-0.359-1.321-0.524-1.93c-3.87,2.551-6.498-1.798-6.688-2.801
		c-0.907-0.431-7.215-10.56-7.215-10.56l-3.728,2.914l1.099-6.977L3.218,7.326c0,0,2.867-3.68,1.959-3.918
		C4.27,3.17,2.31,4.555,1.977,5.559c-0.334,1.003,0.477,5.11,0.477,5.11s-1.959,2.963-2.103,4.11
		c-0.144,1.146-0.812,8.17,0.191,8.887c1.003,0.717,8.074-4.491,8.743-4.014c0.67,0.479,1.479,9.243,1.576,9.843
		c0.098,0.6-0.62,2.484-0.62,2.484s11.609,0,12.757,0c1.146,0,0.479-2.342,0.479-2.342S22.617,30.021,21.947,29.639z"/>
	<path d="M20.61,0.541c-4.491-2.389-6.126,3.902-6.126,3.902s6.63,4.604,6.642,4.46C21.136,8.759,25.102,2.93,20.61,0.541z"/>
	<path d="M26.135,19.797c-0.813,0.191-5.012,2.132-5.357,2.657c0.322,0.734,1.048,3.396,1.326,4.229s7.154-5.787,7.154-5.787
		S26.946,19.605,26.135,19.797z"/>
	<path d="M23.787,26.504c-0.392,0.069-0.823,0.469-0.823,0.469s-1.058,0.93-0.825,1.734c0.233,0.808,1.272,0.306,1.532,0
		C23.931,28.402,24.178,26.435,23.787,26.504z"/>
	<path d="M24.604,25.924c0,0-0.107,4.932-0.564,5.865c0.623,0,1.365,0,2.078,0c0.712,0-0.523-6.303-0.686-6.428
		S24.604,25.924,24.604,25.924z"/>
	<path d="M26.906,23.959c-0.233-0.089-1.076,0.854-1.076,0.854s1.114,3.095,1.103,6.854c3.341-0.042,0,0,3.341-0.042
		C30.381,29.798,27.139,24.049,26.906,23.959z"/>
	<path d="M28.521,22.634c-0.305-0.019-1.086,1.013-1.086,1.013s0.939,0.852,1.823,2.518c0.155-0.112,0.422-0.468,0.496-0.878
		S28.825,22.651,28.521,22.634z"/>
	<path d="M29.628,23.267c0.126-0.229,0.416-1.539,0.146-1.72c-0.27-0.179-0.821,0.762-0.821,0.762S29.503,23.493,29.628,23.267z"/>
	<path d="M17.267,15.318c-0.015-0.037-0.023-0.062-0.023-0.062s0.809-2.894,0.452-3.344c-0.446-0.565-2.149-2.724-2.149-2.724
		s-2.198,0.085-2.149,0.859c0.048,0.775,0.286,4.635,0.286,4.635l1.004,0.622c0,0,0,8.791,0.859,9.508
		c2.246,4.204,5.064,2.866,5.542,1.911c0.188-0.376-0.369-2.233-1.11-4.346l0,0c-0.033-0.094-0.066-0.188-0.101-0.284
		c-0.104-0.287-0.206-0.573-0.313-0.865c-0.021-0.061-0.043-0.118-0.064-0.179c-0.876-2.382-1.827-4.743-2.142-5.514
		c-0.021-0.052-0.04-0.099-0.056-0.136C17.282,15.356,17.276,15.342,17.267,15.318z"/>
	<path d="M14.156,22.798c-0.181-1.414-0.318-3.596-0.33-7.014l-0.599-0.369l-0.378-0.233l-0.026-0.444l-0.287-4.633
		c-0.021-0.341,0.099-0.672,0.336-0.936c0.623-0.688,2.054-0.814,2.641-0.838l0.438-0.019l0.271,0.344l2.15,2.724
		c0.195,0.25,0.601,0.764-0.224,3.822c1.154,2.812,1.961,4.93,2.533,6.554c1.451-1.07,4.034-2.099,5.246-2.552
		c1.228-0.459,3.023-4.3-0.827-6.957C21.136,10.24,11.246,2.548,9.717,2.404C8.187,2.262,4.126,6.563,4.27,7.47
		C4.396,8.271,10.358,17.249,14.156,22.798z"/>
</g>
</svg>
