<?xml version="1.0" encoding="iso-8859-1"?>
<!-- Generator: Adobe Illustrator 16.0.4, SVG Export Plug-In . SVG Version: 6.00 Build 0)  -->
<!DOCTYPE svg PUBLIC "-//W3C//DTD SVG 1.1//EN" "http://www.w3.org/Graphics/SVG/1.1/DTD/svg11.dtd">
<svg version="1.1" id="Layer_1" xmlns="http://www.w3.org/2000/svg" xmlns:xlink="http://www.w3.org/1999/xlink" x="0px" y="0px"
	 width="30.396px" height="30.396px" viewBox="0 0 30.396 30.396" style="enable-background:new 0 0 30.396 30.396;"
	 xml:space="preserve">
<path d="M30.396,15.785c0,0-2.174-4.979-3.93-7.899c0.137-1.546,0.234-4.76-1.107-6.108c-0.49-0.494-1.136-0.702-1.877-0.602
	c-1.234,0.167-2.144,0.647-2.701,1.429c-0.359,0.5-0.501,1.033-0.555,1.478c-1.541-0.344-2.761-0.446-2.761-0.446
	s-0.084-3.423-0.542-3.631c-0.242-0.11-2.006,1.559-3.545,3.249l0.003-0.007c0,0-0.004,0.007-0.004,0.008
	c-0.43,0.473-0.843,0.945-1.198,1.383c-0.435,0.391-0.994,0.836-1.756,1.318C5.466,10.838,4.64,17.262,4.049,18.921
	C3.458,20.58,0,22.647,0,22.647l3.501,0.028c0,0,3.125-6.344,3.833-9.365c0.542,1.479-3.202,9.337-3.202,9.337s2.035,0.063,2.243,0
	s2.688-8.649,2.632-11.195c0.702,2.338-1.443,11.223-1.443,11.223s3.167,0,3.729,0c-1.917-1.5-1.035-4.129-1.243-8.504
	c-0.138-2.89,0.869-5.736,1.569-7.34c1.127,0.162,3.389-0.284,3.389-0.284S14.868,7.73,15.06,9.26
	c-0.457-0.028-1.343,0.007-2.142,0.577c-0.779,0.56-1.262,1.469-1.429,2.702c-0.1,0.737,0.108,1.387,0.603,1.877
	c0.964,0.959,2.882,1.184,4.463,1.184c1.062,0,1.972-0.102,2.337-0.146c3.332,1.982,8.601,3.623,8.601,3.623L30.396,15.785z
	 M12.798,13.708c-0.274-0.273-0.375-0.603-0.315-1.035c0.128-0.944,0.469-1.624,1.012-2.017c0.754-0.545,1.683-0.382,1.691-0.38
	l0.021-0.114c0.304,1.478,0.952,3.114,2.301,4.302c0.039,0.033,0.084,0.063,0.123,0.098C16.001,14.656,13.676,14.582,12.798,13.708z
	 M24.882,5.957c-1.021-0.758-2.393-1.276-3.68-1.63c0.024-0.328,0.115-0.756,0.391-1.14c0.394-0.548,1.073-0.892,2.023-1.021
	c0.433-0.059,0.762,0.042,1.033,0.316c0.748,0.751,0.91,2.566,0.882,4.096C25.319,6.34,25.104,6.122,24.882,5.957z"/>
</svg>
