<?xml version="1.0" encoding="iso-8859-1"?>
<!-- Generator: Adobe Illustrator 16.0.4, SVG Export Plug-In . SVG Version: 6.00 Build 0)  -->
<!DOCTYPE svg PUBLIC "-//W3C//DTD SVG 1.1//EN" "http://www.w3.org/Graphics/SVG/1.1/DTD/svg11.dtd">
<svg version="1.1" id="Layer_1" xmlns="http://www.w3.org/2000/svg" xmlns:xlink="http://www.w3.org/1999/xlink" x="0px" y="0px"
	 width="33.267px" height="33.267px" viewBox="-1.353 -1.354 33.267 33.267"
	 style="enable-background:new -1.353 -1.354 33.267 33.267;" xml:space="preserve">
<path d="M27.755,21.138c-0.022-2.338,0.186-7.563,0.253-9.374c0.066-1.811-2.567-4.011-2.567-4.011s0.199-0.794,0.711-0.733
	s0.62,0.157,0.956-0.042c0.168-0.1,0.267-0.547,0.438-0.656c0.172-0.109-0.096-0.454-0.096-0.454s0.263,0.044,0.282-0.062
	c0.03-0.158-0.172-0.297-0.108-0.547c0.062-0.25,0.5-0.125,0.578-0.422c-0.125-0.548-0.662-1.599-0.354-1.713
	c0.309-0.114,0.762,0.038,1.167-0.115c0.404-0.153,0.469-0.672,0.125-1.375c-0.344-0.703-1.812-1.625-3.141-1.625
	c-3.241-0.187-5.392,2.563-3.857,5.177c0.724,1.438,0.17,2.588-1.33,2.401s-7.471,4.081-9.263,3.863
	c-0.889-0.107-1.38-0.107-1.645,0.003c-0.03,0.003-0.062,0.006-0.093,0.011L8.793,8.853c0.495,0.01,1.455-0.064,2.083-0.717
	c0.875-0.908,1.35-2.328-1.526-3.537C8.975,4.46,8.938,3.375,9.425,2.571C8.251,2.27,7.957,3.799,8.394,4.601
	C8.83,5.403,9.357,5.879,9.58,6.475c0.223,0.596-1.119,0.8-1.119,0.8L7.617,6.036l1.12-0.372L6.053,3.112L6.051,3.108V3.11
	L6.047,3.106l0.004,0.01L6.028,6.821l1.047-0.55L7.38,7.737c0,0-1.077,0.825-1.353,0.252C5.753,7.417,5.776,6.706,5.501,5.835
	C5.226,4.964,3.92,4.116,3.323,5.17C4.24,5.377,4.997,6.156,4.836,6.523c-1.123,2.911,0.229,3.552,1.49,3.552
	c0.896,0,1.612-0.631,1.952-0.996l1.004,2.571c-0.184,0.122-0.301,0.281-0.301,0.459c0,0.293,0.305,0.537,0.727,0.633l1.963,5.035
	c-1.978-0.242-4.336,0.885-4.336,0.885S2.384,14.812,0,17.882c4.354,1.513,5.135,3.072,5.135,5.363c0,2.293,0.55,8.48,8.113,8.664
	c7.562,0.184,9.354-7.586,9.441-10.979s2.751-8.533,2.781-7.066c0.386,0.613-0.244,9.888,1.714,10.066
	c1.054,0.184,2.428,0.124,3.344,0.109C30.904,22.431,27.778,23.476,27.755,21.138z M11.185,24.759
	c-2.571-0.449-2.082-3.331,1.161-5.252l1.63,4.18C13.196,24.44,12.269,24.949,11.185,24.759z M17.846,18.191
	c-0.77,1.209-2.379,3.812-3.444,5.04l-1.562-4.002c0.26-0.134,0.531-0.263,0.82-0.383c-0.35-0.478-0.814-0.765-1.331-0.929
	l-2.013-5.157c0.062-0.008,0.127-0.008,0.185-0.021c1.994,0.7,6.614-0.888,8.492-2.296C20.644,10.351,18.615,16.982,17.846,18.191z"
	/>
</svg>
