<?xml version="1.0" encoding="iso-8859-1"?>
<!-- Generator: Adobe Illustrator 16.0.4, SVG Export Plug-In . SVG Version: 6.00 Build 0)  -->
<!DOCTYPE svg PUBLIC "-//W3C//DTD SVG 1.1//EN" "http://www.w3.org/Graphics/SVG/1.1/DTD/svg11.dtd">
<svg version="1.1" id="Layer_1" xmlns="http://www.w3.org/2000/svg" xmlns:xlink="http://www.w3.org/1999/xlink" x="0px" y="0px"
	 width="32.542px" height="32.542px" viewBox="-2.111 -2.111 32.542 32.542"
	 style="enable-background:new -2.111 -2.111 32.542 32.542;" xml:space="preserve">
<g>
	<path d="M12.287,5.466c1.023-0.184,1.839-0.968,2.353-1.61c-0.527-0.824-1.198-1.541-1.87-2.12
		c-0.191,0.827-0.611,1.985-1.519,2.728C11.656,4.75,12.026,5.086,12.287,5.466z"/>
	<path d="M12.549,5.953c0.088,0.23,0.133,0.474,0.114,0.729c0.045,0.286,0.054,0.529,0.035,0.744
		c1.013,0.414,2.207,0.221,2.919,0.032c0.023-0.208,0.033-0.398,0.03-0.556c-0.027-0.926-0.311-1.779-0.725-2.552
		C14.38,4.997,13.572,5.712,12.549,5.953z"/>
	<path d="M8.872,3.265c-0.043-0.019,0.934,0.299,1.905,0.884c0.977-0.705,1.374-2.009,1.527-2.792
		c-1.229-0.956-2.325-1.436-2.34-1.284C10.32,0.928,8.872,3.265,8.872,3.265z"/>
	<path d="M13.437,10.684c1.241-0.22,1.85-1.541,2.086-2.654c-0.407,0.096-0.911,0.179-1.453,0.179c-0.494,0-1.014-0.069-1.506-0.261
		c-0.146,0.303-0.395,0.497-0.738,0.607c0.177,0.896,0.782,1.666,1.304,2.183C13.232,10.719,13.333,10.706,13.437,10.684z"/>
	<path d="M9.72,10.063c0.525,0.646,1.572,0.857,2.752,0.76c-0.504-0.56-1.011-1.313-1.174-2.192
		c-0.667-0.067-0.745-1.034-0.228-1.971C10.682,6.665,8.55,8.34,9.72,10.063z"/>
	<path d="M27.981,14.088c-0.723,0.603-1.74,1.362-3.009,1.021c-0.317-0.25-0.711-0.45-1.202-0.582
		c-7.164-2.034-14.461-2.122-15.347-3.185c-0.885-1.062-1.039-2.364,0.067-2.74c2.255-0.93,1.319-4.776-0.243-5.439
		c0.354-0.177,1.99-3.228,0.619-3.14C4.4-0.332,3.405,3.693,3.516,4.445c0.109,0.751-2.39,2.653-3.097,3.36
		C-0.288,8.513-0.066,9.53,0.818,9.818c0.885,0.287,3.243-1.085,3.339-0.178c1.104,8.403,1.505,7.435,1.839,8.341
		s-1.553,7.02-1.692,7.487c-0.175,0.58,0.27,2.186,0.27,2.186s-0.261,0.333-0.426,0.851c-0.166,0.52-0.116,1.432,0.58,1.585
		C5.259,29.56,5.862,29.1,6.1,28.717c-0.097-0.251-0.425-0.638-0.425-0.638s-0.256-2.503,0.093-3.16
		c0.348-0.658,3.042-3.792,3.042-3.792l1.459,4.293c0,0-0.153,2.9-0.349,3.371c-1-0.002-1.405,1.396-0.978,1.396
		c0.429,0,1.971,0.004,2.221,0.004s0.099-0.522,0.171-1.004c0.028-0.226,0.704-3.414,0.621-3.789s0.167-3.417,0.167-3.417
		s1.033,0.476,4.688,0.5c3.655,0.022,4.511,0.021,4.534,0.798c0.022,0.777,0.117,1.933-0.063,2.453
		c-0.181,0.519-0.791,2.875-1.061,3.3c-0.717-0.077-1.28,1.251-0.816,1.251s1.74-0.019,1.972-0.019c0.232,0,0.156-0.986,0.156-0.986
		s1.23-2.353,1.585-2.871s0.609-3.132,0.609-3.132l2.215,2.666c0,0,0.173,2.854,0.173,3.145c-0.754,0.077-1.305,1.295-0.938,1.295
		c0.367,0,1.905,0.051,2.188,0.051c0.284,0,0.142-1.345,0.142-1.345s0.136-2.318,0.136-3.27s-1.864-2.775-2.101-3.537
		c-0.134-0.435,0.009-1.216,0.187-1.923h0.006c0.055-0.2,0.108-0.406,0.158-0.625c0.213-0.967,0.326-2.087,0.071-3.056
		C26.986,16.31,29.154,15.931,27.981,14.088z"/>
</g>
</svg>
