<?xml version="1.0" encoding="iso-8859-1"?>
<!-- Generator: Adobe Illustrator 16.0.4, SVG Export Plug-In . SVG Version: 6.00 Build 0)  -->
<!DOCTYPE svg PUBLIC "-//W3C//DTD SVG 1.1//EN" "http://www.w3.org/Graphics/SVG/1.1/DTD/svg11.dtd">
<svg version="1.1" id="Layer_1" xmlns="http://www.w3.org/2000/svg" xmlns:xlink="http://www.w3.org/1999/xlink" x="0px" y="0px"
	 width="32.257px" height="32.256px" viewBox="0 0 32.257 32.256" style="enable-background:new 0 0 32.257 32.256;"
	 xml:space="preserve">
<path d="M0.448,21.334h21.863c-0.02-3.396,0.83-4.468,1.275-5.629c0.447-1.161,1.831-2.231,1.831-2.231s0.894,2.389-1.026,3.685
	c2.946,0.065,2.887-3.538,2.887-3.538s4.979,1.689,4.979-0.344c0-1.727-2.104-1.459-2.105-4.001
	c-0.223-1.742-0.707-2.561-2.354-3.012C28.087,2.15,14.403-6.723,9.986,8.86c6.158-9.231,15.097-3.85,13.244-1.751
	c-3.662,2.881-2.59,7.347-6.162,7.302c-5.707-0.36-11.792-3.812-15.498-0.104C-1.104,16.979,0.448,21.334,0.448,21.334z
	 M27.022,9.056c0-0.396,0.408-0.715,0.912-0.715c0.5,0,0.908,0.319,0.908,0.715c0,0.395-0.408,0.714-0.908,0.714
	C27.433,9.77,27.022,9.45,27.022,9.056z"/>
</svg>
