<?xml version="1.0" encoding="iso-8859-1"?>
<!-- Generator: Adobe Illustrator 16.0.4, SVG Export Plug-In . SVG Version: 6.00 Build 0)  -->
<!DOCTYPE svg PUBLIC "-//W3C//DTD SVG 1.1//EN" "http://www.w3.org/Graphics/SVG/1.1/DTD/svg11.dtd">
<svg version="1.1" id="Layer_1" xmlns="http://www.w3.org/2000/svg" xmlns:xlink="http://www.w3.org/1999/xlink" x="0px" y="0px"
	 width="36.695px" height="36.695px" viewBox="-4.295 -4.295 36.695 36.695"
	 style="enable-background:new -4.295 -4.295 36.695 36.695;" xml:space="preserve">
<path d="M20.264,20.864c0,0-2.285-0.529-2.529-1.303c-0.243-0.774,0.427-1.772,0.966-1.502c0.538,0.27,0.727,1.385,1.729,1.771
	s3.346-2.866,3.59-3.699c0.246-0.833,0.386-1.312,0.386-1.312s8.327-5.437,0-13.609c-0.663-0.516-6.351-3.391-10.569,2.109
	c-0.468,0.771-4.656,8.644,1.703,10.459c7.422,2.119,8.329-8.115,4.016-6.803c1.25,1.655,1.009,4.291-1.969,3.188
	c-2.022-1.271,0.222-4.078,0.222-4.078s1.287-2.174,3.747-1.047c1.427,0.654,5.135,6.043-1.417,9.629
	c-10.754,3.227-9.982-6.825-9.982-6.825S8.791,5.875,7.557,6.8c1.041,0.926,2.006,2.198,0.578,2.159
	C6.169,8.188,0.977,10.563,0,11.503C3.398,12.288,10.888,25.83,11.566,32.4c0.656-0.039,1.144-7.523-0.418-10.8
	c-0.777-1.077-3.976-3.234-0.969-6.858c0.616,0.077-2.843,2.608,2.969,5.608c-0.578,1.117-1.312,5.071,0.616,6.189
	S17.373,21.442,20.264,20.864"/>
</svg>
