<?xml version="1.0" encoding="iso-8859-1"?>
<!-- Generator: Adobe Illustrator 16.0.4, SVG Export Plug-In . SVG Version: 6.00 Build 0)  -->
<!DOCTYPE svg PUBLIC "-//W3C//DTD SVG 1.1//EN" "http://www.w3.org/Graphics/SVG/1.1/DTD/svg11.dtd">
<svg version="1.1" id="Layer_1" xmlns="http://www.w3.org/2000/svg" xmlns:xlink="http://www.w3.org/1999/xlink" x="0px" y="0px"
	 width="40.738px" height="40.738px" viewBox="-8.74 -8.738 40.738 40.738"
	 style="enable-background:new -8.74 -8.738 40.738 40.738;" xml:space="preserve">
<path d="M18.23,9.165c0,0,1.348-7.066,3.921-9.068c-2.491-0.898-7.476,4.698-7.68,8.007c-0.129-0.255-5.557-0.255-5.684,0
	C8.584,4.795,3.6-0.801,1.108,0.097C3.683,2.099,5.03,9.165,5.03,9.165s-5.229-0.163-5.024,2.165c0.204,2.329,4.78,1.7,4.78,1.7
	s-1.716,3.283-1.349,5.285c0.368,2.002,3.555,3.474,3.555,3.474s0.139,5.483,0.139,6.808c0,1.321,1.803,3.404,4.5,3.404
	c2.683,0,4.489-2.402,4.489-3.366c0-0.963,0.148-6.846,0.148-6.846s3.187-1.472,3.555-3.474c0.368-2.001-1.349-5.285-1.349-5.285
	s4.575,0.629,4.779-1.7C23.459,9.002,18.23,9.165,18.23,9.165z"/>
</svg>
