<?xml version="1.0" encoding="iso-8859-1"?>
<!-- Generator: Adobe Illustrator 16.0.4, SVG Export Plug-In . SVG Version: 6.00 Build 0)  -->
<!DOCTYPE svg PUBLIC "-//W3C//DTD SVG 1.1//EN" "http://www.w3.org/Graphics/SVG/1.1/DTD/svg11.dtd">
<svg version="1.1" id="Layer_1" xmlns="http://www.w3.org/2000/svg" xmlns:xlink="http://www.w3.org/1999/xlink" x="0px" y="0px"
	 width="27.156px" height="27.156px" viewBox="0 0 27.156 27.156" style="enable-background:new 0 0 27.156 27.156;"
	 xml:space="preserve">
<path d="M24.186,1.164c-0.479,0.786-1.054,1.894-1.034,2.695c-0.836-0.498-0.104-2.043,0.479-3.026
	c-0.02-0.01-0.036-0.022-0.055-0.033c-0.58-0.295-1.123-0.5-1.643-0.634c-0.239,0.897-0.495,2.203-0.229,2.996
	c-0.971-0.238-0.686-2.013-0.404-3.121c-0.731-0.097-1.417-0.022-2.082,0.229c0.171,0.912,0.501,2.188,1.077,2.786
	c-0.939,0.193-1.441-1.39-1.677-2.508c-0.456,0.249-0.906,0.576-1.36,0.995c0.394,0.829,1.003,1.903,1.678,2.322
	c-0.814,0.396-1.645-0.842-2.159-1.845c-0.742,0.775-1.504,1.771-2.324,3c-0.236-0.036-0.601-0.036-0.866-0.029
	c-0.269-0.007-0.643-0.008-0.882,0.029c-0.821-1.229-1.583-2.225-2.325-3c-0.516,1.002-1.344,2.24-2.16,1.844
	c0.675-0.418,1.284-1.493,1.678-2.322C9.443,1.123,8.992,0.796,8.537,0.547c-0.236,1.12-0.738,2.702-1.679,2.509
	C7.435,2.457,7.765,1.18,7.936,0.269c-0.664-0.251-1.35-0.325-2.082-0.229c0.28,1.108,0.565,2.883-0.403,3.121
	c0.265-0.793,0.009-2.099-0.23-2.996C4.701,0.3,4.159,0.505,3.579,0.8C3.56,0.81,3.543,0.823,3.524,0.833
	C4.109,1.816,4.84,3.361,4.003,3.859C4.024,3.057,3.45,1.949,2.97,1.164c-3.155,2.138-3.726,7.121-2.047,9.402
	c0.531,0.694,2.531,2.922,4.531,1.233c2-1.688,0.141-3.905-0.72-4.094C4.377,8.699,5.391,9.675,4.422,9.582
	C2.047,9.238,2.016,6.863,4.735,4.863c2.438-1.688,4.406,1.875,4.406,1.875s-3-1.813-4.094-1.219
	c-1.094,0.594,0.062,0.875,0.5,1.655c0.437,0.781,2.562,1.72,2.344,2.407c-0.375,3.219,2.125,5.313,2.5,6.188
	s0.625,4.841,2.998,4.875l0,0h0.002c0.006,0,0.219,0,0.373,0h0.002l0,0c2.373-0.034,2.623-4,2.998-4.875s2.875-2.97,2.5-6.188
	c-0.219-0.688,1.906-1.625,2.344-2.406c0.438-0.78,1.595-1.062,0.5-1.655c-1.094-0.594-4.094,1.219-4.094,1.219
	s1.969-3.563,4.406-1.875c2.719,2,2.688,4.375,0.312,4.719C21.764,9.677,22.778,8.7,22.42,7.708
	c-0.859,0.188-2.719,2.406-0.719,4.094c2,1.688,4-0.538,4.53-1.233C27.911,8.285,27.34,3.301,24.186,1.164z M8.154,8.455
	c-0.345-0.073-1.997-1.24-2.221-1.612c-0.223-0.37-0.546-0.785-0.52-0.861c0.164-0.464,3.3,0.781,3.3,1.441
	C8.713,7.884,8.644,8.558,8.154,8.455z M10.016,14.394c-0.271,0.129-1.197-1.438-1.426-2.021c-0.229-0.583,0.214-1.205,0.638-1.217
	C9.492,11.359,10.61,14.113,10.016,14.394z M13.085,20.108c-0.365,0.077-1.048-0.423-1.036-0.733c0.012-0.31,0.541-0.236,0.67-0.169
	C12.848,19.274,13.45,20.031,13.085,20.108z M14.07,20.108c-0.364-0.077,0.237-0.834,0.366-0.902
	c0.129-0.067,0.658-0.142,0.67,0.169C15.118,19.686,14.435,20.185,14.07,20.108z M21.742,5.981c0.025,0.076-0.298,0.491-0.521,0.861
	c-0.223,0.372-1.876,1.539-2.221,1.611c-0.49,0.104-0.56-0.57-0.56-1.031C18.442,6.762,21.578,5.517,21.742,5.981z M18.565,12.373
	c-0.229,0.584-1.153,2.15-1.426,2.021c-0.594-0.281,0.524-3.035,0.788-3.238C18.351,11.167,18.794,11.789,18.565,12.373z"/>
</svg>
