<?xml version="1.0" encoding="iso-8859-1"?>
<!-- Generator: Adobe Illustrator 16.0.4, SVG Export Plug-In . SVG Version: 6.00 Build 0)  -->
<!DOCTYPE svg PUBLIC "-//W3C//DTD SVG 1.1//EN" "http://www.w3.org/Graphics/SVG/1.1/DTD/svg11.dtd">
<svg version="1.1" id="Layer_1" xmlns="http://www.w3.org/2000/svg" xmlns:xlink="http://www.w3.org/1999/xlink" x="0px" y="0px"
	 width="36.799px" height="36.799px" viewBox="-4.855 -4.858 36.799 36.799"
	 style="enable-background:new -4.855 -4.858 36.799 36.799;" xml:space="preserve">
<g>
	<path d="M26.392,28.786c0,0,0.504-1.823,0.307-2.48c-0.158-0.524-1.574-3.721-2.414-5.771c-0.254-0.704-0.445-1.321-0.451-1.643
		c-0.02-1.017,1.313-3.609,1.016-5.34c-0.299-1.729-3.4-3.997-2.982-4.354c0.418-0.358,4.318-0.183,4.623-0.597
		c0.307-0.414,0.836-0.896,0.479-1.521S23.15,4.811,22.97,4.633c-0.178-0.179-0.447-3.28-2.535-2.981
		c0.656,4.146-0.148,5.667-3.699,6.979c-0.507,0.509-0.363,2.429-0.135,3.287c0.835,4.598-5.76,2.563-7.844,2.594
		c-2.134-0.121-3.259-0.371-5.209,0.918c-1.437,0.948-2.51,0.302-3.26-0.323c-1.313,2.062,2.323,1.959,2.125,2.53
		c-0.585,1.138-0.24,3.363-0.063,3.72c0.219,0.438,0.297,1.107,0.229,1.328c-0.268,0.865-2.385,2.938-2.385,4.018
		c0,1.081,0.153,3.714,0.153,3.714s-0.161,1.526,0.161,1.526c0.321,0,2.068-0.059,2.485-0.059S2.784,30.5,1.928,30.412
		c0-0.329,0.196-3.572,0.196-3.572l2.517-3.026c0,0,0.29,2.968,0.691,3.558c0.402,0.589,1.801,3.261,1.801,3.261
		s-0.088,1.12,0.176,1.12s1.717-0.038,2.244-0.038c0.526,0-0.118-1.448-0.931-1.361c-0.308-0.483-1-3.158-1.205-3.748
		s-0.26-2.645-0.232-3.527c0.026-0.883,0.911,0.652,5.063,0.625c4.15-0.027,5.5-0.625,5.5-0.625s0.904,6.947,0.967,7.45
		c0.084,0.548-0.09,1.141,0.193,1.141c0.284,0,1.967,0.011,2.453,0.011c0.487,0,0.094-1.603-1.041-1.601
		c-0.221-0.534-0.395-3.828-0.395-3.828l1.812-3.327c0,0,2.8,2.845,3.195,3.592c0.396,0.746,0.209,2.756,0.209,2.756
		s-0.373,0.438-0.481,0.725c0.271,0.435,0.955,0.957,1.557,1.56c0.791-0.176,0.848-1.212,0.66-1.801
		C26.688,29.165,26.392,28.786,26.392,28.786z"/>
	<path d="M16.205,6.659c2.256-1.216,0.662-3.793,0.185-3.495c0.259,1.016,0.118,2.625-1.371,2.525
		c-1.492-0.101-1.542-3.072,0.944-3.729c2.484-0.655,4.543,4.127-0.408,5.737c3.242,0.239,4.933-1.253,4.595-5.171
		s-8.513-3.122-8.651,1.293C11.357,8.235,15.27,7.077,16.205,6.659z"/>
</g>
</svg>
