<?xml version="1.0" encoding="iso-8859-1"?>
<!-- Generator: Adobe Illustrator 16.0.4, SVG Export Plug-In . SVG Version: 6.00 Build 0)  -->
<!DOCTYPE svg PUBLIC "-//W3C//DTD SVG 1.1//EN" "http://www.w3.org/Graphics/SVG/1.1/DTD/svg11.dtd">
<svg version="1.1" id="Layer_1" xmlns="http://www.w3.org/2000/svg" xmlns:xlink="http://www.w3.org/1999/xlink" x="0px" y="0px"
	 width="32px" height="32px" viewBox="0 0 32 32" style="enable-background:new 0 0 32 32;" xml:space="preserve">
<g>
	<path d="M24.428,16.646c-0.093-1.295-5.011-3.957-8.123-4.147c-0.019-0.002-0.034-0.018-0.053-0.018
		c-3.042-0.139-8.581,2.78-8.68,4.154c-0.095,1.316,4.098,4.471,8.145,4.604c0.01,0.002,0.021,0.018,0.031,0.019
		C19.951,21.405,24.527,18.019,24.428,16.646z"/>
	<path d="M27.695,15.313c0.152-0.07,0.469-0.482,0.416-1.625c-0.051-1.143-0.698-1.776-1.133-1.737s-3.873,0.329-4.043,2.04
		C22.766,15.702,27.544,15.384,27.695,15.313z"/>
	<path d="M28.527,13.632c0,1.256,0.011,0.975,0,1.568c-0.01,0.593,2.314,0.637,3.137,2.908
		C32.868,15.894,28.527,12.376,28.527,13.632z"/>
	<path d="M25.223,15.851c-0.328,0.409,0.078,0.846-0.025,1.105c-0.104,0.261-0.895,1.212-1.038,1.602
		c-0.146,0.392,3.055,1.571,3.768,0.69c0.714-0.881,0.69-0.938,0.829-1.624C28.893,16.938,25.549,15.442,25.223,15.851z"/>
	<path d="M29.102,18.287c-0.322,0.435-1.209,1.39-0.851,1.538c1.364-0.051,3.019,1.624,3.627,3.136
		C32.43,22.356,31.046,17.104,29.102,18.287z"/>
	<path d="M25.534,20.532c-0.298-0.448-1.267-1.399-1.714-1.536c-0.449-0.136-3.797,1.842-2.707,2.669
		c0.906,0.533,2.465,0.266,3.25,0.42C24.896,21.638,25.646,20.966,25.534,20.532z"/>
	<path d="M25.874,21.259c-0.382,0.24-0.981,0.928-1.204,1.203c1.596,3.069,1.855,3.23,1.848,4.88
		C27.966,27.233,27.561,21.399,25.874,21.259z"/>
	<path d="M21.552,13.769c0.212,0.014,1.445-0.255,1.46-0.921c0.014-0.666-1.574-1.403-2.268-1.262
		c-0.694,0.141-2.145,0.628-1.629,0.899C19.629,12.756,21.34,13.754,21.552,13.769z"/>
	<path d="M23.818,8.88c-2.068-0.099-2.776,2.522-2.139,2.607c0.637,0.085,1.359,0.779,1.912,0.765S24.811,8.88,23.818,8.88z"/>
	<path d="M24.414,8.555c0.383,0.127,5.072-0.949,4.548-5.71c-1.035,1.332-3.627,2.635-4.548,1.969s-0.963-1.742-0.297-4.803
		c-6.518,2.14-1.516,7.807-1.29,8.189C23.055,8.583,24.032,8.427,24.414,8.555z"/>
	<path d="M3.888,13.678c-0.052,1.143,0.264,1.555,0.416,1.625c0.152,0.069,4.931,0.389,4.76-1.323
		c-0.17-1.71-3.608-2.001-4.042-2.04C4.587,11.901,3.939,12.536,3.888,13.678z"/>
	<path d="M3.472,15.188c-0.01-0.594,0-0.312,0-1.567s-4.34,2.262-3.136,4.478C1.158,15.826,3.482,15.784,3.472,15.188z"/>
	<path d="M7.841,18.547c-0.144-0.39-0.934-1.341-1.038-1.603c-0.104-0.26,0.302-0.695-0.025-1.104
		c-0.328-0.408-3.671,1.086-3.534,1.771c0.138,0.688,0.116,0.744,0.829,1.625C4.786,20.118,7.985,18.938,7.841,18.547z"/>
	<path d="M0.123,22.95c0.609-1.512,2.263-3.186,3.627-3.137c0.358-0.147-0.528-1.104-0.85-1.537
		C0.954,17.095-0.43,22.347,0.123,22.95z"/>
	<path d="M8.181,18.985c-0.448,0.137-1.417,1.088-1.714,1.535c-0.113,0.435,0.637,1.104,1.171,1.554
		c0.784-0.155,2.342,0.112,3.25-0.419C11.978,20.827,8.629,18.851,8.181,18.985z"/>
	<path d="M6.126,21.248c-1.686,0.142-2.092,5.976-0.643,6.083c-0.009-1.648,0.25-1.811,1.847-4.879
		C7.108,22.176,6.509,21.487,6.126,21.248z"/>
	<path d="M8.988,12.837c0.014,0.666,1.247,0.935,1.459,0.921c0.212-0.015,1.923-1.013,2.437-1.283
		c0.514-0.27-0.935-0.757-1.629-0.898C10.561,11.436,8.974,12.171,8.988,12.837z"/>
	<path d="M10.32,11.477c0.638-0.085-0.071-2.706-2.14-2.606c-0.992,0-0.326,3.357,0.227,3.371
		C8.96,12.256,9.683,11.562,10.32,11.477z"/>
	<path d="M7.586,8.544c0.382-0.128,1.36,0.028,1.587-0.354C9.399,7.807,14.401,2.14,7.883,0c0.666,3.061,0.624,4.138-0.297,4.804
		c-0.921,0.665-3.514-0.638-4.548-1.97C2.514,7.595,7.203,8.671,7.586,8.544z"/>
</g>
</svg>
