<?xml version="1.0" encoding="iso-8859-1"?>
<!-- Generator: Adobe Illustrator 16.0.4, SVG Export Plug-In . SVG Version: 6.00 Build 0)  -->
<!DOCTYPE svg PUBLIC "-//W3C//DTD SVG 1.1//EN" "http://www.w3.org/Graphics/SVG/1.1/DTD/svg11.dtd">
<svg version="1.1" id="Layer_1" xmlns="http://www.w3.org/2000/svg" xmlns:xlink="http://www.w3.org/1999/xlink" x="0px" y="0px"
	 width="32px" height="32px" viewBox="0 0 32 32" style="enable-background:new 0 0 32 32;" xml:space="preserve">
<path d="M32,13.749c-3.197,5.81-6.949,5.456-6.949,5.456s7.333-3.475,5.309-9.536c-0.77,4.613-4.938,7.245-4.938,7.245
	s0.014-0.508,0.076-0.914s2.406-4.344,2.719-5.156c0.312-0.812,1.566-4.368,0.146-4.679C29.027,1.553,26.189,0,26.189,0
	s1.242,3.771,0.178,3.946c-1.064,0.179-0.844-0.31-2.705-2.351c-0.889,0.312,1.375,3.814,1.375,3.814s-1.51,2.307,0.62,6.432
	c-0.755-0.621-1.134-0.178-1.604-0.026c-0.47,0.15-0.658,0.292-1.322,0.426c-0.666,0.134-3.549-1.642-3.549-1.642l0.898-1.212
	c0.049,0.013,0.096,0.03,0.148,0.03c0.324,0,0.588-0.265,0.588-0.588c0-0.325-0.264-0.588-0.588-0.588s-0.588,0.263-0.588,0.588
	c0,0.083,0.018,0.16,0.047,0.23l-1.57,1.493c0,0-1.09-0.337-2.152-0.337c-1.062,0-2.084,0.337-2.084,0.337L12.31,9.061
	c0.03-0.07,0.048-0.147,0.048-0.23c0-0.325-0.264-0.588-0.588-0.588c-0.325,0-0.588,0.263-0.588,0.588
	c0,0.323,0.263,0.588,0.588,0.588c0.053,0,0.1-0.019,0.148-0.03l0.898,1.212c0,0-2.883,1.774-3.548,1.642
	c-0.665-0.134-0.854-0.274-1.323-0.426c-0.471-0.15-0.85-0.595-1.604,0.026C8.47,7.717,6.961,5.41,6.961,5.41
	s2.263-3.504,1.375-3.814c-1.86,2.042-1.639,2.529-2.703,2.351C4.568,3.771,5.811,0,5.811,0S2.972,1.553,3.637,6.165
	c-1.419,0.311-0.608,3.146-0.171,4.304s3.031,5.719,3.031,5.719l0.082,0.728c0,0-4.169-2.632-4.938-7.245
	c-2.024,6.062,5.309,9.536,5.309,9.536S3.197,19.559,0,13.749c0.137,1.668,0.133,4.036,2.839,5.61
	c2.705,1.575,6.697,2.24,6.697,2.24s-3.416,0.133-5.278,1.464c-1.863,1.33-1.464,3.814-1.464,3.814s0.399-1.907,1.952-2.972
	c1.552-1.064,7.451-1.286,7.451-1.286s-2.085,1.641-2.795,2.927c-0.709,1.286,0.932,4.303,0.932,4.303s0-3.104,0.443-4.036
	c0.443-0.932,3.992-2.396,3.992-2.396s0.56,0.08,1.036,0.103c0.06,0.005,0.123,0.006,0.194,0.006s0.135-0.001,0.194-0.006
	c0.477-0.021,1.036-0.103,1.036-0.103s3.549,1.464,3.992,2.396c0.443,0.933,0.443,4.036,0.443,4.036s1.641-3.017,0.932-4.303
	s-2.795-2.927-2.795-2.927s5.899,0.222,7.451,1.286c1.553,1.063,1.952,2.972,1.952,2.972s0.399-2.484-1.464-3.814
	c-1.862-1.331-5.278-1.464-5.278-1.464s3.992-0.665,6.697-2.239C31.867,17.785,31.863,15.417,32,13.749z"/>
</svg>
