<?xml version="1.0" encoding="iso-8859-1"?>
<!-- Generator: Adobe Illustrator 16.0.4, SVG Export Plug-In . SVG Version: 6.00 Build 0)  -->
<!DOCTYPE svg PUBLIC "-//W3C//DTD SVG 1.1//EN" "http://www.w3.org/Graphics/SVG/1.1/DTD/svg11.dtd">
<svg version="1.1" id="Layer_1" xmlns="http://www.w3.org/2000/svg" xmlns:xlink="http://www.w3.org/1999/xlink" x="0px" y="0px"
	 width="33.789px" height="33.788px" viewBox="0 -0.001 33.789 33.788" style="enable-background:new 0 -0.001 33.789 33.788;"
	 xml:space="preserve">
<path d="M32.854,23.753c-1.399-0.146-3.166-2.414-4.842-3.9c0.307-0.548,0.536-1.124,0.69-1.723c1.195,1.207,2.68,2.195,4.342,2.195
	c0.41,0,0.744-0.334,0.744-0.744c0-0.412-0.441,0.129-0.853,0.129c-1.521,0-2.894-2.178-4.032-3.596
	c-0.002-0.047-0.006-0.095-0.009-0.143c1.745-1.172,3.39-2.999,4.166-3.094c0.409-0.051,0.771,0.396,0.722-0.012
	c-0.051-0.407-0.423-0.693-0.83-0.649c-0.998,0.123-2.719,1.098-4.356,2.165c-0.097-0.304-0.214-0.603-0.351-0.894
	c2.435-1.12,6.664-2.904,2.771-7.87c-0.802-2.102-5.556-7.842-12.647-4.696c0.418,1.393,5.366,2.932,5.366,2.932
	s-1.901,0.329-4.916-1.71c-0.022-0.024-0.041-0.052-0.063-0.076C18.753,2.08,18.751,2.09,18.75,2.103
	c-0.002-0.001-0.002-0.001-0.004-0.003c0,0.005,0.002,0.011,0.004,0.016c0,0.007-0.002,0.012-0.002,0.019l1.215,2.528
	c-0.006-0.033-0.002-0.064-0.008-0.098c1.619,1.725,4.211,2.093,4.211,2.093s5.076,0.836,5.92,1.062
	c2.166,2.016-1.066,3.584-3.162,3.772c-2.127-2.376-5.742-3.941-9.849-3.941c-0.061,0-0.12,0.003-0.18,0.007
	c-0.06-0.004-0.119-0.007-0.18-0.007c-4.105,0-7.723,1.565-9.85,3.941C4.77,11.303,1.537,9.734,3.702,7.719
	c0.845-0.226,5.923-1.062,5.923-1.062s2.591-0.368,4.209-2.093c-0.005,0.033-0.002,0.064-0.008,0.098l1.217-2.528
	c-0.002-0.007-0.003-0.012-0.003-0.019c0.002-0.005,0.003-0.011,0.005-0.016c-0.003,0.002-0.004,0.002-0.006,0.003
	c-0.001-0.013-0.003-0.022-0.004-0.035c-0.023,0.024-0.04,0.052-0.063,0.076c-3.015,2.039-4.917,1.71-4.917,1.71
	s4.949-1.539,5.367-2.932C8.328-2.224,3.574,3.517,2.773,5.618c-3.894,4.966,0.336,6.75,2.77,7.87
	c-0.137,0.291-0.254,0.59-0.351,0.894c-1.636-1.067-3.358-2.042-4.356-2.165c-0.407-0.044-0.729-0.165-0.779,0.242
	c-0.051,0.408,0.514,0.451,0.922,0.502c0.777,0.095,2.168,1.839,3.915,3.011c-0.003,0.048-0.007,0.096-0.009,0.143
	c-1.139,1.419-2.303,3.388-3.823,3.388C0.65,19.503,0,19.169,0,19.582c0,0.41,0.334,0.744,0.745,0.744
	c1.662,0,3.146-0.988,4.341-2.195c0.154,0.599,0.386,1.175,0.691,1.723c-1.676,1.486-3.273,3.629-4.674,3.775
	c-0.41,0.041-1.142-0.226-1.1,0.184c0.041,0.383,0.363,0.668,0.74,0.668c0.026,0,0.052-0.002,0.078-0.004
	c1.805-0.189,4.063-1.846,5.817-3.387c0.466,0.563,1.006,1.091,1.623,1.562L3.18,25.824c-0.305,0.189-0.431,0.57-0.299,0.904
	l1.887,4.799C4.883,31.82,5.164,32,5.461,32c0.09,0,0.183-0.018,0.271-0.053c0.383-0.15,0.142-0.588-0.171-1.027
	c-0.826-1.16-1.067-4.16-1.067-4.16l5.15-3.215c1.975,1.104,4.416,1.767,7.07,1.767c0.061,0,0.12-0.004,0.18-0.007
	c0.06,0.003,0.119,0.007,0.18,0.007c2.654,0,5.095-0.662,7.071-1.767l5.151,3.215l-0.818,4.201
	c-0.148,0.385-0.805,0.836-0.422,0.986C28.146,31.982,28.238,32,28.33,32c0.295,0,0.575-0.18,0.69-0.473l1.888-4.799
	c0.131-0.334,0.006-0.715-0.3-0.904l-5.082-3.174c0.617-0.471,1.157-0.997,1.623-1.562c1.752,1.543,4.013,3.197,5.815,3.388
	c0.027,0.002,0.052,0.004,0.078,0.004c0.377,0,0.701-0.285,0.742-0.668C33.828,23.403,33.263,23.794,32.854,23.753z"/>
</svg>
