<?xml version="1.0" encoding="iso-8859-1"?>
<!-- Generator: Adobe Illustrator 16.0.4, SVG Export Plug-In . SVG Version: 6.00 Build 0)  -->
<!DOCTYPE svg PUBLIC "-//W3C//DTD SVG 1.1//EN" "http://www.w3.org/Graphics/SVG/1.1/DTD/svg11.dtd">
<svg version="1.1" id="Layer_1" xmlns="http://www.w3.org/2000/svg" xmlns:xlink="http://www.w3.org/1999/xlink" x="0px" y="0px"
	 width="36.799px" height="36.799px" viewBox="-4.799 -4.799 36.799 36.799"
	 style="enable-background:new -4.799 -4.799 36.799 36.799;" xml:space="preserve">
<g>
	<path d="M26.011,8.186l-0.014,0.002c-1.229,0.085-2.45,0.226-3.67,0.404c-1.219,0.187-2.436,0.412-3.639,0.764
		c1.246,0.145,2.482,0.162,3.715,0.141c0.723-0.018,1.443-0.054,2.162-0.1c-0.373,0.356-0.76,0.699-1.117,1.074
		c-0.719,0.746-1.42,1.514-2.055,2.354c0.916-0.522,1.766-1.121,2.597-1.739c0.833-0.615,1.632-1.271,2.415-1.944
		c0.123-0.108,0.199-0.273,0.188-0.45C26.571,8.391,26.312,8.165,26.011,8.186z"/>
	<path d="M18.294,9.044c0,0,1.783-5.968,8.907-8.698c-2.705-0.919-5.205,0.111-7.25,1.708c0.385,0.312,0.862,0.774,0.644,1.014
		c-0.289-0.313-0.846-0.442-1.27-0.498c-0.264,0.23-0.516,0.467-0.76,0.708c0.394,0.301,1.021,0.848,0.775,1.116
		c-0.311-0.335-0.932-0.462-1.363-0.511c-0.205,0.22-0.399,0.441-0.588,0.661c0.334,0.24,1.221,0.923,0.938,1.235
		c-0.354-0.381-1.102-0.492-1.521-0.525c-0.207,0.263-0.397,0.518-0.578,0.765c0.233,0.162,1.328,0.951,1.018,1.293
		c-0.362-0.391-1.141-0.498-1.555-0.528c-0.658,0.976-1.024,1.658-1.024,1.658h-1.064h-1.064c0,0-0.382-0.711-1.065-1.717
		c-0.426,0.086-1.063,0.27-1.351,0.646C9.797,7.074,10.7,6.256,10.976,6.018c-0.176-0.24-0.363-0.49-0.564-0.746
		C10.006,5.34,9.225,5.52,8.897,5.948C8.534,5.618,9.695,4.64,9.812,4.544c-0.16-0.188-0.324-0.375-0.496-0.563
		C8.925,4.042,8.096,4.22,7.757,4.664c-0.339-0.308,0.657-1.186,0.886-1.38C8.463,3.106,8.279,2.931,8.089,2.76
		C7.824,2.791,6.775,2.949,6.382,3.463C6.036,3.147,7.08,2.241,7.277,2.075C5.227,0.467,2.718-0.578,0,0.346
		c7.124,2.73,8.907,8.698,8.907,8.698S8.76,9.193,8.553,9.448C7.366,9.104,6.168,8.88,4.967,8.696
		c-1.22-0.179-2.442-0.318-3.67-0.404L1.281,8.291C1.116,8.28,0.949,8.345,0.833,8.479C0.637,8.706,0.663,9.05,0.89,9.246
		c0.782,0.675,1.581,1.329,2.415,1.945c0.831,0.618,1.681,1.216,2.596,1.739c-0.635-0.842-1.335-1.608-2.054-2.355
		C3.489,10.2,3.103,9.857,2.729,9.501c0.719,0.047,1.439,0.083,2.161,0.1C6.1,9.623,7.314,9.604,8.538,9.466
		c-0.461,0.572-1.233,1.704-1.565,3.243c-1.11,4.129,2.603,5.645,3.296,7.715c0.694,2.069,0.969,6.102,1.572,6.43
		c0.603,0.33,0.926,3.256,0.77,4.437c0.503-0.417,0.312-4.615,0.503-4.372C13.305,27.161,13.583,32,13.583,32
		s0.007-0.131,0.018-0.337C13.611,31.869,13.618,32,13.618,32s0.277-4.84,0.468-5.083c0.19-0.243,0,3.955,0.503,4.372
		c-0.156-1.18,0.276-4.243,0.878-4.591c0.603-0.349,0.771-4.205,1.464-6.274c0.693-2.07,4.405-3.586,3.295-7.715
		C19.742,10.454,18.294,9.044,18.294,9.044z M9.608,18.753c0,0-2.04-2.108-2.047-2.545c-0.087-0.226,1.855-0.1,2.167,0.524
		C10.041,17.357,9.608,18.753,9.608,18.753z M17.593,18.753c0,0-0.523-1.341-0.212-1.965c0.312-0.625,2.347-0.806,2.259-0.58
		C19.632,16.645,17.593,18.753,17.593,18.753z"/>
</g>
</svg>
