<?xml version="1.0" encoding="iso-8859-1"?>
<!-- Generator: Adobe Illustrator 16.0.4, SVG Export Plug-In . SVG Version: 6.00 Build 0)  -->
<!DOCTYPE svg PUBLIC "-//W3C//DTD SVG 1.1//EN" "http://www.w3.org/Graphics/SVG/1.1/DTD/svg11.dtd">
<svg version="1.1" id="Layer_1" xmlns="http://www.w3.org/2000/svg" xmlns:xlink="http://www.w3.org/1999/xlink" x="0px" y="0px"
	 width="31.229px" height="31.229px" viewBox="-0.877 -0.877 31.229 31.229"
	 style="enable-background:new -0.877 -0.877 31.229 31.229;" xml:space="preserve">
<path d="M18.391,28.559c1.036-0.002,1.395,1.449,0.948,1.449s-1.979,0.004-2.239,0.004s-0.22-0.537-0.178-1.042
	s-0.736-5.444-0.896-5.932c-0.159-0.488-1.062,0.025-4.854,0.052c-3.794,0.024-4.612-1.057-4.636-0.249
	c-0.025,0.807-0.47,1.794-0.281,2.333c0.188,0.538,0.514,3.019,0.795,3.46c0.743-0.079,1.225,1.271,0.744,1.271
	c-0.482,0-1.674,0.021-1.914,0.021c-0.241,0-0.121-0.623-0.102-0.979c0.021-0.354-0.717-2.32-1.084-2.86
	c-0.365-0.539-0.481-3.328-0.481-3.328s-2.383,2.455-2.449,2.845c-0.065,0.391-0.009,3.249-0.009,3.551
	c0.782,0.08,1.131,1.167,0.75,1.167s-1.688,0.032-1.979,0.032c-0.294,0-0.188-1.095-0.108-1.312C0.496,28.822,0,26.46,0,25.474
	c0-0.987,1.838-3.748,1.838-4.529c0-0.78-0.626-2.368-0.531-4c0.144-2.442,1.648-3.681,4.039-3.701
	c4.488-0.04,4.326,1.723,8.696,1.042c5.21-0.812,8.815-1.724,7.963-4.135c0,0-0.462-0.955-0.354-1.456
	c0.108-0.5,0.354-0.759,0.354-0.759s-6.435-5.003-10.544-5.933c0.5-1.286,6.541,1.394,6.541,1.394s-1.358-1.966-5.611-3.217
	c4.539-1.537,10.687,7.292,10.687,7.292s3.698,1.362,6.381,6.438c0.143,1.395-0.587,1.697-1.312,1.508
	c-0.724-0.189-1.292-0.811-2.176-0.643c-0.786,0.147-3.991,4.343-3.942,5.1c0.05,0.757,0.951,4.111,1.097,4.588
	c0.182,0.602-0.289,1.958-0.279,2.268c0.01,0.311,0.269,0.345,0.441,0.884c0.17,0.538,0.118,1.484-0.604,1.646
	c-0.55-0.551-1.099-1.099-1.328-1.328c-0.229-0.229,0.316-0.611,0.347-0.759c0.029-0.148,0.17-1.836-0.19-2.519
	c-0.362-0.683-2.046-2.938-2.046-2.938s-1.5,2.136-1.438,3.292C18.119,25.789,18.293,28.323,18.391,28.559z"/>
</svg>
