<?xml version="1.0" encoding="iso-8859-1"?>
<!-- Generator: Adobe Illustrator 16.0.4, SVG Export Plug-In . SVG Version: 6.00 Build 0)  -->
<!DOCTYPE svg PUBLIC "-//W3C//DTD SVG 1.1//EN" "http://www.w3.org/Graphics/SVG/1.1/DTD/svg11.dtd">
<svg version="1.1" id="Layer_1" xmlns="http://www.w3.org/2000/svg" xmlns:xlink="http://www.w3.org/1999/xlink" x="0px" y="0px"
	 width="29.646px" height="29.646px" viewBox="0 0 29.646 29.646" style="enable-background:new 0 0 29.646 29.646;"
	 xml:space="preserve">
<g>
	<path d="M11.224,15.867c2.415,1.86,8.877,0.021,8.498-4.793c-0.304-2.807-4.352-2.006-4.453-0.792
		c1.238,0.833,1.486,2.513-0.144,2.552c-1.63,0.037-2.502-1.973-2.236-3.603c0.265-1.631,4.061-3.644,7.549-0.724
		c0.645-0.38,4.914-2.185,6.382-1.638C26.216,5.866,16.805-4.136,9.78,1.952C3.43,7.823,8.809,14.005,11.224,15.867z"/>
	<path d="M24.54,15.335c0.117-0.963,2.111,0,3.627,0c1.518,0,1.479-1.328,1.479-2.502c0-1.176-1.365-4.475-2.541-5.194
		c-1.175-0.72-5.486,0.876-6.331,1.593c1.197,5.467-3.484,8.893-8.228,8.492c-4.742-0.4-6.405-8.72-9.742-7.924
		c-3.066,0.731-2.834,9.112-2.776,10.464H0.025c-0.002,0.019-0.003,0.041-0.004,0.06h23.913
		C24.12,18.792,24.457,16.022,24.54,15.335z M26.133,9.559c0.476,0,0.859,0.283,0.859,0.633c0,0.349-0.384,0.632-0.859,0.632
		c-0.474,0-0.857-0.283-0.857-0.632C25.275,9.842,25.659,9.559,26.133,9.559z"/>
</g>
</svg>
