<?xml version="1.0" encoding="iso-8859-1"?>
<!-- Generator: Adobe Illustrator 16.0.4, SVG Export Plug-In . SVG Version: 6.00 Build 0)  -->
<!DOCTYPE svg PUBLIC "-//W3C//DTD SVG 1.1//EN" "http://www.w3.org/Graphics/SVG/1.1/DTD/svg11.dtd">
<svg version="1.1" id="Layer_1" xmlns="http://www.w3.org/2000/svg" xmlns:xlink="http://www.w3.org/1999/xlink" x="0px" y="0px"
	 width="32.629px" height="32.629px" viewBox="-0.627 -0.629 32.629 32.629"
	 style="enable-background:new -0.627 -0.629 32.629 32.629;" xml:space="preserve">
<path d="M27.887,20.626c0.937-1.093,2.719-0.001,2.94,2.587c2.125-6.945-7.44-7.334-5.28-9.603c1.984,2.977,6.128,2.516,5.811,0.071
	c-1.629,1.134-2.086,1.199-2.666,0.346c-0.58-0.855,2.063-2.791,1.888-3.464c-0.177-0.673-1.71-0.546-1.657-1.095
	c0.053-0.55,0.967,0.332,1.276,0.146c0.309-0.186,0.638-0.732,0.345-0.93c-5.986-7.938-7.299-7.701-10.486-8.339
	c-3.188-0.638-8.397-0.803-10.631,3.201c-2.445,5.386-3.082,7.157-8.787,7.37c2.125,4.287,9.035-2.374,9.035-2.374
	S6.236,15.771,0,13.822c5.279,7.194,12.083-4.038,12.827-4.463c-2.445,5.385,2.161,8.079,2.867,12.366
	c0.783,0.07,0.96-3.013,1.313-2.162c2.8,3.332,4.818,2.978,4.818,2.978s-1.312-2.339,0.213-2.339
	c4.394-0.07,3.649,7.725,3.083,11.799C31.395,28.387,27.46,21.547,27.887,20.626 M24.661,6.293
	c-0.443,0.532-2.037,0.418-2.037,0.418s1.133-2.047,1.824-1.87C25.139,5.018,25.104,5.762,24.661,6.293z"/>
</svg>
