<?xml version="1.0" encoding="iso-8859-1"?>
<!-- Generator: Adobe Illustrator 16.0.4, SVG Export Plug-In . SVG Version: 6.00 Build 0)  -->
<!DOCTYPE svg PUBLIC "-//W3C//DTD SVG 1.1//EN" "http://www.w3.org/Graphics/SVG/1.1/DTD/svg11.dtd">
<svg version="1.1" id="Layer_1" xmlns="http://www.w3.org/2000/svg" xmlns:xlink="http://www.w3.org/1999/xlink" x="0px" y="0px"
	 width="38.442px" height="38.442px" viewBox="0 0 38.442 38.442" style="enable-background:new 0 0 38.442 38.442;"
	 xml:space="preserve">
<g>
	<path d="M28.154,16.076c0.188-2.563-7.063-4.938-7.063-4.938s-0.151-1.979,0.875-2.688c-0.688-1.25-1.938,3.25-1.938,3.25
		s-0.688-0.938-1.688,0c-0.375,0-0.5-3.625-1.5-3.563c0.438,1.5,0.25,3.625,0.25,3.625s-5.5,1.688-6.375,3.75
		s1.75,9.75,8.375,10.063S27.967,18.638,28.154,16.076z"/>
	<path d="M27.051,13.039c0.47,0.188,1.229,1.381,1.572,1.381s4.688-3.406,5-4.344c0.312-0.938,0.002-1.141-0.404-1.828
		C32.156,8.873,26.582,12.851,27.051,13.039z"/>
	<path d="M28.158,6.482c0.809,0.625,2.59,2.844,2.59,2.844h0.125c0.668-0.388,1.813-1.375,2.313-1.344
		c0.5,0.031-4.72-9.063-10.375-7.875c4.562,1.688,5.03,4.031,3.75,4.781c-1.281,0.75-3.625-0.813-4.813-2.375
		C21.311,6.388,27.35,5.857,28.158,6.482z"/>
	<path d="M31.869,19.156c-0.729,0.356-1.424,0.642-1.963,0.756c-0.547,0.114-0.857,0.037-1.08-0.058
		c-0.115-0.053-0.145-0.067-0.266-0.137c-0.093-0.051-0.142-0.078-0.142-0.078l-0.852,1.81c0,0,0.053,0.021,0.149,0.059
		c0.064,0.025,0.32,0.125,0.578,0.185c0.261,0.065,0.599,0.102,0.97,0.084c0.37-0.025,0.756-0.119,1.129-0.254
		c0.739-0.279,1.44-0.711,2.151-1.191c0.357-0.24,0.715-0.496,1.072-0.758c0.404-0.299,0.703-0.531,1.076-0.893
		c0.354-0.334,0.656-0.673,0.938-1.03c0.291-0.35,0.545-0.713,0.779-1.068c0.473-0.713,0.853-1.406,1.15-2.01
		c0.596-1.211,0.881-2.059,0.881-2.059s-0.4,0.802-1.146,1.904c-0.375,0.548-0.836,1.17-1.379,1.785
		c-0.271,0.307-0.561,0.616-0.873,0.902c-0.305,0.291-0.645,0.576-0.973,0.81c-0.299,0.229-0.742,0.491-1.076,0.665
		C32.615,18.783,32.236,18.979,31.869,19.156z"/>
	<path d="M37.398,20.593c-0.162,0.162-0.4,0.281-0.642,0.43c-0.229,0.158-0.53,0.259-0.819,0.396
		c-0.295,0.133-0.631,0.225-0.961,0.344c-0.683,0.195-1.418,0.367-2.166,0.48c-1.492,0.236-3.013,0.307-4.104,0.254
		c-0.266-0.025-0.521-0.035-0.721-0.066c-0.17-0.031-0.449-0.068-0.389-0.076c-0.005,0-0.011,0.008-0.019,0.021
		c-0.004,0.019-0.09-0.049-0.117-0.062c-0.076-0.047-0.117-0.07-0.117-0.07l-1.006,1.729c0,0,0.045,0.02,0.129,0.053
		c0.058,0.021,0.063,0.031,0.188,0.069c0.121,0.037,0.264,0.074,0.426,0.105c0.39,0.077,0.523,0.034,0.822,0.045
		c0.27-0.002,0.545-0.037,0.859-0.062c1.221-0.139,2.776-0.471,4.284-0.969c0.754-0.242,1.49-0.547,2.16-0.863
		c0.328-0.182,0.652-0.33,0.939-0.518c0.283-0.195,0.565-0.346,0.787-0.553c0.227-0.195,0.444-0.354,0.592-0.555
		c0.146-0.191,0.312-0.322,0.379-0.49c0.158-0.301,0.248-0.473,0.248-0.473s-0.115,0.153-0.318,0.422
		C37.754,20.332,37.564,20.437,37.398,20.593z"/>
	<path d="M30.029,30.308c-0.109-0.31-0.188-0.656-0.35-0.967c-0.138-0.324-0.302-0.642-0.49-0.943
		c-0.724-1.235-1.719-2.254-2.418-2.996c-0.17-0.182-0.326-0.346-0.465-0.491c-0.125-0.138-0.259-0.286-0.259-0.306
		c-0.016-0.021-0.03-0.037-0.047-0.051c-0.026-0.05-0.051-0.092-0.067-0.125c-0.039-0.07-0.06-0.107-0.06-0.107l-1.69,1.07
		c0,0,0.026,0.032,0.078,0.094c0.024,0.031,0.057,0.07,0.096,0.115c0.063,0.066,0.141,0.146,0.225,0.232
		c0.197,0.2,0.334,0.286,0.512,0.426c0.171,0.125,0.361,0.264,0.57,0.416c0.81,0.588,1.877,1.342,2.715,2.309
		c0.22,0.236,0.414,0.488,0.588,0.75c0.199,0.25,0.314,0.531,0.47,0.793c0.121,0.271,0.225,0.545,0.313,0.81
		c0.056,0.271,0.125,0.526,0.158,0.771c0.014,0.248,0.023,0.475,0.035,0.675c0.006,0.202-0.037,0.376-0.047,0.522
		c-0.035,0.293-0.056,0.461-0.056,0.461s0.052-0.162,0.14-0.443c0.037-0.145,0.112-0.314,0.146-0.521
		c0.027-0.209,0.06-0.443,0.095-0.701c0.014-0.261-0.011-0.543-0.017-0.849C30.164,30.952,30.109,30.632,30.029,30.308z"/>
	<path d="M23.781,27.073c-0.051-0.202-0.098-0.389-0.139-0.555c-0.015-0.074-0.027-0.145-0.041-0.209
		c-0.017-0.072-0.025-0.129-0.015-0.117c0.006-0.004-0.01-0.01,0-0.11c0.002-0.065,0.004-0.103,0.004-0.103l-1.998,0.066
		c0,0,0.007,0.035,0.019,0.102c0.004,0.033,0.035,0.219,0.104,0.455c0.037,0.131,0.072,0.205,0.105,0.276
		c0.033,0.077,0.072,0.161,0.111,0.249c0.08,0.16,0.17,0.34,0.268,0.537c0.389,0.762,0.883,1.74,1.227,2.785
		c0.179,0.52,0.304,1.053,0.392,1.562c0.076,0.512,0.102,0.996,0.092,1.416c-0.025,0.416-0.057,0.771-0.117,1.012
		c-0.049,0.244-0.076,0.386-0.076,0.386s0.058-0.132,0.158-0.36c0.113-0.229,0.224-0.568,0.347-0.99
		c0.104-0.426,0.19-0.934,0.229-1.488c0.025-0.553,0.021-1.149-0.045-1.74C24.291,29.062,23.994,27.901,23.781,27.073z"/>
	<path d="M9.82,14.419c0.344,0,1.104-1.193,1.572-1.381c0.468-0.188-5.105-4.165-6.167-4.79c-0.407,0.687-0.718,0.89-0.405,1.828
		C5.132,11.014,9.477,14.419,9.82,14.419z"/>
	<path d="M7.57,9.326h0.125c0,0,1.781-2.219,2.59-2.844s6.848-0.094,6.41-3.969c-1.188,1.563-3.531,3.125-4.813,2.375
		c-1.281-0.75-0.812-3.094,3.75-4.781C9.977-1.081,4.758,8.013,5.258,7.982C5.758,7.951,6.904,8.938,7.57,9.326z"/>
	<path d="M2.029,16.582c0.236,0.355,0.49,0.719,0.779,1.068c0.282,0.357,0.586,0.695,0.94,1.031c0.373,0.359,0.67,0.594,1.074,0.891
		c0.359,0.263,0.715,0.519,1.072,0.759c0.713,0.479,1.414,0.912,2.153,1.19c0.373,0.136,0.757,0.229,1.127,0.254
		c0.371,0.019,0.712-0.018,0.97-0.082c0.26-0.061,0.516-0.159,0.58-0.186c0.098-0.038,0.147-0.059,0.147-0.059l-0.852-1.809
		c0,0-0.049,0.026-0.142,0.077c-0.121,0.068-0.149,0.084-0.264,0.136c-0.225,0.096-0.535,0.174-1.082,0.059
		c-0.539-0.114-1.232-0.398-1.963-0.756c-0.362-0.176-0.741-0.372-1.126-0.575c-0.332-0.174-0.777-0.438-1.074-0.665
		c-0.33-0.233-0.67-0.519-0.973-0.81c-0.314-0.286-0.603-0.596-0.873-0.902c-0.543-0.615-1.006-1.237-1.381-1.785
		C0.4,13.315,0,12.513,0,12.513s0.283,0.848,0.879,2.059C1.178,15.175,1.559,15.869,2.029,16.582z"/>
	<path d="M10.541,24.244c0.297-0.011,0.433,0.032,0.82-0.045c0.162-0.031,0.305-0.068,0.426-0.105
		c0.125-0.038,0.131-0.05,0.188-0.069c0.086-0.033,0.131-0.053,0.131-0.053L11.1,22.243c0,0-0.041,0.023-0.119,0.07
		c-0.027,0.013-0.111,0.078-0.117,0.062c-0.008-0.013-0.012-0.021-0.018-0.021c0.062,0.008-0.218,0.045-0.388,0.076
		c-0.201,0.031-0.455,0.041-0.721,0.066c-1.094,0.053-2.611-0.018-4.104-0.254c-0.75-0.113-1.483-0.285-2.168-0.48
		c-0.329-0.119-0.666-0.211-0.959-0.344c-0.291-0.139-0.59-0.238-0.821-0.396c-0.238-0.147-0.479-0.268-0.642-0.43
		c-0.164-0.156-0.354-0.262-0.438-0.406c-0.201-0.27-0.318-0.424-0.318-0.424s0.092,0.172,0.25,0.475
		c0.064,0.166,0.232,0.298,0.379,0.49c0.146,0.198,0.365,0.357,0.592,0.554c0.222,0.208,0.505,0.356,0.785,0.553
		c0.287,0.188,0.611,0.336,0.939,0.519c0.672,0.315,1.406,0.619,2.16,0.862c1.508,0.498,3.063,0.83,4.285,0.97
		C9.994,24.207,10.271,24.242,10.541,24.244z"/>
	<path d="M14.182,25.485c0.051-0.062,0.077-0.094,0.077-0.094l-1.69-1.07c0,0-0.021,0.037-0.057,0.107
		c-0.021,0.033-0.044,0.075-0.07,0.125c-0.017,0.014-0.031,0.029-0.047,0.051c0.002,0.02-0.133,0.168-0.256,0.306
		c-0.14,0.146-0.296,0.312-0.466,0.491c-0.698,0.742-1.694,1.761-2.42,2.996c-0.188,0.303-0.352,0.619-0.489,0.943
		c-0.16,0.311-0.238,0.657-0.351,0.967c-0.078,0.324-0.133,0.645-0.176,0.941c-0.006,0.305-0.027,0.588-0.016,0.848
		c0.034,0.258,0.065,0.493,0.096,0.702c0.031,0.206,0.106,0.377,0.145,0.521c0.088,0.283,0.14,0.443,0.14,0.443
		s-0.021-0.168-0.056-0.461c-0.01-0.146-0.053-0.32-0.045-0.521c0.011-0.2,0.021-0.428,0.033-0.674
		c0.033-0.244,0.105-0.502,0.158-0.771c0.092-0.264,0.193-0.537,0.313-0.809c0.156-0.262,0.271-0.545,0.472-0.795
		c0.172-0.262,0.367-0.513,0.586-0.748c0.838-0.967,1.906-1.721,2.715-2.31c0.209-0.151,0.402-0.291,0.572-0.416
		c0.178-0.14,0.312-0.226,0.512-0.426c0.084-0.088,0.158-0.166,0.225-0.233C14.125,25.556,14.156,25.517,14.182,25.485z"/>
	<path d="M14.857,26.082c0.01,0.103-0.008,0.106,0,0.11c0.01-0.012,0.002,0.045-0.015,0.117c-0.014,0.064-0.026,0.135-0.043,0.209
		c-0.041,0.166-0.086,0.353-0.137,0.555c-0.215,0.828-0.512,1.988-0.627,3.173c-0.063,0.591-0.07,1.188-0.043,1.739
		c0.039,0.557,0.127,1.063,0.23,1.488c0.12,0.424,0.229,0.764,0.346,0.991c0.1,0.229,0.156,0.36,0.156,0.36
		s-0.027-0.141-0.074-0.387c-0.063-0.238-0.092-0.595-0.119-1.01c-0.008-0.421,0.018-0.906,0.092-1.416
		c0.09-0.511,0.213-1.044,0.394-1.563c0.342-1.046,0.836-2.023,1.227-2.785c0.098-0.197,0.188-0.377,0.269-0.537
		c0.038-0.088,0.075-0.172,0.11-0.249c0.031-0.07,0.066-0.146,0.104-0.277c0.069-0.235,0.102-0.42,0.106-0.453
		c0.013-0.066,0.019-0.103,0.019-0.103l-1.998-0.065C14.854,25.979,14.854,26.015,14.857,26.082z"/>
</g>
</svg>
