<?xml version="1.0" encoding="iso-8859-1"?>
<!-- Generator: Adobe Illustrator 16.0.4, SVG Export Plug-In . SVG Version: 6.00 Build 0)  -->
<!DOCTYPE svg PUBLIC "-//W3C//DTD SVG 1.1//EN" "http://www.w3.org/Graphics/SVG/1.1/DTD/svg11.dtd">
<svg version="1.1" id="Layer_1" xmlns="http://www.w3.org/2000/svg" xmlns:xlink="http://www.w3.org/1999/xlink" x="0px" y="0px"
	 width="32px" height="31.999px" viewBox="0 0 32 31.999" style="enable-background:new 0 0 32 31.999;" xml:space="preserve">
<path d="M31.925,7.059c-0.31-0.416-1.907-2.509-2.866-2.813c-0.353-0.111-0.929-0.04-1.658,0.048
	c-0.744,0.091-1.643,0.201-2.34,0.104c-0.195-0.416-0.451-0.813-0.758-1.187c0.262-0.253,0.67-0.549,1.236-0.789
	c0.879-0.372,3.136-1.005,5.102,1.165c0.139,0.155,0.377,0.167,0.53,0.027c0.154-0.14,0.166-0.378,0.026-0.531
	c-2.439-2.694-5.311-1.656-6.133-1.273c-0.459,0.214-0.924,0.513-1.273,0.847C22.132,1.048,19.43,0,16.376,0
	C16.25,0,16.125,0.004,16,0.007C15.875,0.004,15.75,0,15.624,0C12.57,0,9.868,1.048,8.208,2.657C7.858,2.323,7.394,2.024,6.934,1.81
	C6.112,1.428,3.242,0.39,0.802,3.084c-0.14,0.153-0.128,0.392,0.026,0.531c0.154,0.14,0.392,0.128,0.531-0.027
	c1.965-2.17,4.222-1.537,5.101-1.165c0.567,0.24,0.975,0.536,1.236,0.789C7.39,3.585,7.135,3.982,6.939,4.398
	c-0.697,0.097-1.595-0.013-2.34-0.104C3.87,4.206,3.293,4.135,2.941,4.246C1.981,4.55,0.385,6.643,0.075,7.059
	c-0.125,0.167-0.09,0.402,0.077,0.526c0.067,0.05,0.146,0.074,0.224,0.074c0.115,0,0.228-0.052,0.302-0.151
	c0.663-0.889,1.925-2.366,2.49-2.545c0.197-0.062,0.804,0.012,1.34,0.078c0.668,0.081,1.438,0.173,2.144,0.138
	C6.601,5.36,6.561,5.544,6.533,5.73C5.212,5.662,4.082,6.005,3.168,6.75c-1.99,1.624-2.218,4.563-2.228,4.688
	c-0.014,0.207,0.142,0.387,0.349,0.4c0.009,0.001,0.018,0.001,0.027,0.001c0.195,0,0.36-0.149,0.375-0.349
	c0.002-0.027,0.218-2.747,1.957-4.162c0.761-0.62,1.715-0.904,2.841-0.849c0.006,0.314,0.044,0.623,0.113,0.925
	C5.426,8.108,0,11.724,7.05,14.847c0.047,1.409,0.47,5.498,6.5,4.84c-1.801-1.737-2.577-3.055-2.577-3.055s1.621-0.47,3.923,0.424
	c0.517-0.752-0.517-3.195-1.691-3.713c-1.174-0.517-1.598-0.47-5.451-0.562c-3.329-0.346-1.418-3.608-0.849-4.473
	c1.165,2.592,4.628,4.473,8.72,4.473c0.126,0,0.251-0.004,0.376-0.008c0.125,0.004,0.25,0.008,0.376,0.008
	c4.092,0,7.555-1.881,8.721-4.473c0.568,0.864,2.479,4.127-0.85,4.473c-3.854,0.094-4.275,0.047-5.451,0.562
	c-1.175,0.516-2.208,2.961-1.691,3.713c2.303-0.894,3.924-0.424,3.924-0.424s-0.775,1.316-2.577,3.055
	c6.03,0.658,6.454-3.431,6.5-4.84c7.049-3.123,1.624-6.739,0.448-7.442c0.068-0.302,0.105-0.61,0.113-0.925
	c1.125-0.056,2.079,0.229,2.84,0.849c1.739,1.415,1.955,4.135,1.957,4.162c0.015,0.197,0.18,0.349,0.375,0.349
	c0.01,0,0.019,0,0.027-0.001c0.207-0.015,0.363-0.193,0.35-0.4c-0.01-0.125-0.237-3.064-2.229-4.688
	c-0.914-0.745-2.044-1.088-3.365-1.02c-0.027-0.187-0.068-0.37-0.117-0.552c0.705,0.035,1.475-0.057,2.144-0.138
	c0.536-0.066,1.144-0.14,1.34-0.078c0.565,0.179,1.828,1.656,2.49,2.545c0.073,0.1,0.187,0.151,0.302,0.151
	c0.078,0,0.157-0.024,0.225-0.074C32.016,7.461,32.05,7.226,31.925,7.059z"/>
</svg>
