<?xml version="1.0" encoding="iso-8859-1"?>
<!-- Generator: Adobe Illustrator 16.0.4, SVG Export Plug-In . SVG Version: 6.00 Build 0)  -->
<!DOCTYPE svg PUBLIC "-//W3C//DTD SVG 1.1//EN" "http://www.w3.org/Graphics/SVG/1.1/DTD/svg11.dtd">
<svg version="1.1" id="Layer_1" xmlns="http://www.w3.org/2000/svg" xmlns:xlink="http://www.w3.org/1999/xlink" x="0px" y="0px"
	 width="32px" height="32px" viewBox="0 0 32 32" style="enable-background:new 0 0 32 32;" xml:space="preserve">
<path d="M32,15.077l-1.516-5.013l-3.496-0.059l2.681-2.855l-2.215-2.448l-2.157,0.641l0.408-2.973l-2.447-1.573L20.693,3.07
	L20.168,0H15.68l-0.291,3.303L13.582,0l-2.799,0.797l0.389,3.381L8.219,1.263L4.372,4.178l2.099,3.03L2.856,7.107L0,13.328
	l4.722,1.283L0,16.593l1.749,6.645l2.973-1.281l-1.486,3.205l3.235,3.264l3.497-1.572l-0.874,3.264l4.43,0.643l1.049-2.508
	l1.049,2.508l6.646-0.7l-0.758-3.497l3.557,2.1l3.088-2.914l-1.456-2.332l3.847-0.584L32,18.517l-4.08-2.04L32,15.077z
	 M24.514,10.724c0.324,1.344,0.092,3.476,0,5.234c-0.061,1.11-2.473,2.949-3.043,4.441c-1.012,1.71,0.971,1.71-0.078,3.575
	c-0.953,1.933-3.426,2.071-4.824,1.981c-1.399,0.09-3.873-0.049-4.825-1.981c-1.049-1.865,0.934-1.865-0.077-3.575
	c-0.571-1.492-2.983-3.331-3.043-4.441c-0.093-1.759-0.325-3.892-0.001-5.234c-1.393-0.659-1.453-2.729-0.949-3.496
	c0.601-0.915,1.988-1.065,3.102-0.336c0.623,0.409,1.018,1.009,1.147,1.617c0.913-0.061,2.951-0.117,4.646,0.381
	c1.695-0.498,3.732-0.441,4.646-0.381c0.13-0.608,0.524-1.208,1.147-1.617c1.113-0.729,2.5-0.579,3.102,0.336
	C25.967,7.995,25.938,10.443,24.514,10.724z"/>
</svg>
