<?xml version="1.0" encoding="iso-8859-1"?>
<!-- Generator: Adobe Illustrator 16.0.4, SVG Export Plug-In . SVG Version: 6.00 Build 0)  -->
<!DOCTYPE svg PUBLIC "-//W3C//DTD SVG 1.1//EN" "http://www.w3.org/Graphics/SVG/1.1/DTD/svg11.dtd">
<svg version="1.1" id="Layer_1" xmlns="http://www.w3.org/2000/svg" xmlns:xlink="http://www.w3.org/1999/xlink" x="0px" y="0px"
	 width="26.106px" height="26.106px" viewBox="0 0.001 26.106 26.106" style="enable-background:new 0 0.001 26.106 26.106;"
	 xml:space="preserve">
<path d="M17.112,14.12c0.021,0.688-0.067,1.787,0.142,2.073c1.041-0.001,0.912,0.983,0.483,0.983c-0.462,0-1.37,0.063-1.641,0.063
	c-0.27,0-0.234-0.531-0.172-0.781c0.156-0.75-0.422-4.318-0.547-4.719c-0.203-0.75-1.421,0.51-4.344,0.521
	c-3.938,0.016-4.109-1.021-4.22-0.146c-0.109,0.875-0.089,3.544,0.203,3.802c0.771-0.046,0.984,1.078,0.484,1.078s-1.25,0-1.5,0
	s-0.172-0.531-0.078-0.906c0.086-0.346-0.312-1.719-0.531-2.113c-0.219-0.396-0.484-1.766-0.797-2.35
	c-0.688,1.125-1.349,2.291-1.39,2.828s-0.453,1.864-0.267,2.114c0.813,0.046,0.833,0.953,0.438,0.953
	c-0.396,0-1.292-0.001-1.599-0.001c-0.306,0-0.197-0.404-0.104-0.692s0.032-1.67,0.22-2.606c0.188-0.938-0.211-3.288,0.729-4.75
	C3.227,8.533,2.617,7.94,3.159,6.523C2.607,6.782,2.237,7.49,1.769,8.178c-0.468,0.688-1.516,2.266-0.928,3.428
	c0.055,0.035,0.115,0.074,0.183,0.119c0.499,0.333,0.042,1.047,0.042,1.047S0.235,12.378,0.3,11.959
	c0.017-0.168,0.043-0.146,0.068-0.243c-0.88-1.338-0.594-7.039,5.52-6.943c4.354,0.166,3.125,0.793,6.625,1.084
	s3.458-5.625,7.333-5.751c3.488-0.618,5.531,1.698,5.875,2.229c0.344,0.531-0.34,1.621-0.579,2.375
	c0.629,0.843,1.103,1.64,0.927,2.209c-0.182,0.593-0.307,0.688-0.682,1.093c-0.712,0.771-4.136-1.74-4.792-0.071
	c-0.453,1.108-0.792,1.729-0.667,2.239c0.125,0.51,0.865,1.348,1.104,1.896c0.238,0.548-0.34,2.907-0.34,2.907
	s0.161,0.074,0.34,0.39c0.178,0.316,0.073,1.126-0.438,0.892c-0.571-0.323-0.86-0.531-1.047-0.697
	c-0.188-0.166,0.109-0.527,0.219-0.568c0.11-0.041,0.142-2.084-0.233-2.483c-0.375-0.4-1.703-1.359-1.703-1.359
	S17.094,13.51,17.112,14.12z"/>
</svg>
