<?xml version="1.0" encoding="iso-8859-1"?>
<!-- Generator: Adobe Illustrator 16.0.4, SVG Export Plug-In . SVG Version: 6.00 Build 0)  -->
<!DOCTYPE svg PUBLIC "-//W3C//DTD SVG 1.1//EN" "http://www.w3.org/Graphics/SVG/1.1/DTD/svg11.dtd">
<svg version="1.1" id="Layer_1" xmlns="http://www.w3.org/2000/svg" xmlns:xlink="http://www.w3.org/1999/xlink" x="0px" y="0px"
	 width="31.929px" height="31.929px" viewBox="0 5.268 31.929 31.929" style="enable-background:new 0 5.268 31.929 31.929;"
	 xml:space="preserve">
<path d="M25.604,19.383c0.563-0.738,1.812-2.555,3.051-2.4c1.242,0.15,3.103,0.061,3.267-1.894c0.166-1.949-2.276-2.522-2.381-2.771
	c-0.045-0.112-0.205-0.762-0.431-1.465c0.474-0.44,0.771-1.063,0.771-1.758c0-1.333-1.082-2.414-2.414-2.414
	c-0.312,0-0.611,0.063-0.889,0.174c-0.369-0.86-1.225-1.464-2.221-1.464c-0.959,0-1.779,0.563-2.17,1.375
	C21.721,6.239,21.046,5.9,20.289,5.9c-1.404,0-2.545,1.139-2.545,2.545c0,0.169,0.02,0.334,0.051,0.494
	c-1.295,0.043-2.334,1.101-2.334,2.406c0,0.686,0.287,1.301,0.746,1.739c-0.646,0.435-1.072,1.17-1.072,2.005
	c0,1.188,0.859,2.172,1.99,2.372c-0.637,1.115-9.938-2.372-12.938,0.521c-0.133-1.062,5.836-5.365,5.869-7.218
	C9.982,8.047,8.279,6.875,5.639,5.72C1.686,4.188,1.467,6.985,0,7.655c1.061,0.3,2.611,2.02,5.094-0.143
	c0.537-0.069,2.68,0.705,3.076,2.624c0.396,1.918-5.873,4.218-6.234,7.882c-0.195,1.973,0.473,3.041,1.207,5.181h20.923
	C24.381,21.422,24.947,20.246,25.604,19.383z M26.195,11.248c0.641,0,1.158,0.375,1.158,0.838c0,0.461-0.521,0.836-1.158,0.836
	c-0.639,0-1.158-0.375-1.158-0.836C25.037,11.623,25.557,11.248,26.195,11.248z"/>
</svg>
