<?xml version="1.0" encoding="iso-8859-1"?>
<!-- Generator: Adobe Illustrator 16.0.4, SVG Export Plug-In . SVG Version: 6.00 Build 0)  -->
<!DOCTYPE svg PUBLIC "-//W3C//DTD SVG 1.1//EN" "http://www.w3.org/Graphics/SVG/1.1/DTD/svg11.dtd">
<svg version="1.1" id="Layer_1" xmlns="http://www.w3.org/2000/svg" xmlns:xlink="http://www.w3.org/1999/xlink" x="0px" y="0px"
	 width="41.015px" height="41.015px" viewBox="-9.014 -9.015 41.015 41.015"
	 style="enable-background:new -9.014 -9.015 41.015 41.015;" xml:space="preserve">
<path d="M14.877,3.03c0.377-0.188,1.1-2.749-3.46-3.02C6.857-0.261,0.449,4.807,0.562,9.093c0.978-0.76,1.89-0.148,1.939,0.378
	c0.051,0.527-5.084,6.055-0.781,9.464c0.796-4.885,2.134-3.763,2.315-3.111c0.181,0.651-1.751,7.578,2.013,7.761
	C5.541,21.27,7.04,20.13,8.125,20.13c1.086,0,4.671,2.388,3.113,11.87c4.198-2.896,3.097-9.646,3.097-9.646s0.991,1.287,2.401,0.346
	c-1.446-1.99-1.12-2.569-1.12-2.569s1.881,1.882,3.221,0.978c-2.244-1.737-2.063-3.365-2.117-4.858
	c-0.055-1.493,1.356,0.108,2.551,0.271c4.197,0.426,3.173-2.812,2.985-2.813c-1.088-0.014-3.411,0.986-3.854-0.506
	c-0.67-2.246,2.473-1.833,3.862-1.089c0.053,0.028,0.828-1.098,0.709-1.715C22.839,9.69,22.13,8.55,19.598,9.22
	c-1.393,0.368-2.64-0.54-2.679-0.579c-0.217-0.217,3.126-0.865,3.139-1.12S21.13,0.752,14.877,3.03z"/>
</svg>
