<?xml version="1.0" encoding="iso-8859-1"?>
<!-- Generator: Adobe Illustrator 16.0.4, SVG Export Plug-In . SVG Version: 6.00 Build 0)  -->
<!DOCTYPE svg PUBLIC "-//W3C//DTD SVG 1.1//EN" "http://www.w3.org/Graphics/SVG/1.1/DTD/svg11.dtd">
<svg version="1.1" id="Layer_1" xmlns="http://www.w3.org/2000/svg" xmlns:xlink="http://www.w3.org/1999/xlink" x="0px" y="0px"
	 width="31.999px" height="31.999px" viewBox="0 0 31.999 31.999" style="enable-background:new 0 0 31.999 31.999;"
	 xml:space="preserve">
<path d="M29.512,11.005h1.656V8.912c0.361-0.41,0.588-0.943,0.588-1.533c0-1.288-1.045-2.331-2.332-2.331s-2.331,1.043-2.331,2.331
	c0,0.063,0.015,0.12,0.019,0.183h-7.795V3.574h-0.028c0.008-0.093,0.028-0.182,0.028-0.277C19.314,1.476,17.84,0,16.018,0
	C16.012,0,16.006,0.002,16,0.002S15.988,0,15.982,0c-1.82,0-3.297,1.477-3.297,3.297c0,0.097,0.02,0.186,0.027,0.277h-0.027V7.56
	H4.89c0.005-0.062,0.019-0.119,0.019-0.183c0-1.288-1.044-2.331-2.332-2.331c-1.287,0-2.33,1.043-2.33,2.331
	c0,0.59,0.227,1.123,0.588,1.533v2.093H2.49c-0.98,2.201-2.762,6.807-2.455,10.585c0.42,5.167,5.671,5.167,8.023,4.872
	c2.352-0.294,5.936-3.149,5.125-7.267c-0.553-2.803-3.682-6.265-5.623-8.19h5.125h6.629h5.125c-1.941,1.927-5.069,5.389-5.621,8.19
	c-0.812,4.116,2.771,6.973,5.123,7.267c2.354,0.295,7.604,0.295,8.022-4.872C32.271,17.811,30.49,13.206,29.512,11.005z
	 M10.998,19.153c0.043,2.185-6.553,4.201-8.021,2.646c-1.309-1.382,0.756-9.102,1.229-10.795h1.82
	C7.375,12.703,10.965,17.381,10.998,19.153z M29.025,21.8c-1.471,1.556-8.064-0.462-8.023-2.646c0.035-1.772,3.624-6.45,4.975-8.148
	h1.818C28.27,12.698,30.332,20.418,29.025,21.8z"/>
</svg>
