<?xml version="1.0" encoding="iso-8859-1"?>
<!-- Generator: Adobe Illustrator 16.0.4, SVG Export Plug-In . SVG Version: 6.00 Build 0)  -->
<!DOCTYPE svg PUBLIC "-//W3C//DTD SVG 1.1//EN" "http://www.w3.org/Graphics/SVG/1.1/DTD/svg11.dtd">
<svg version="1.1" id="Layer_1" xmlns="http://www.w3.org/2000/svg" xmlns:xlink="http://www.w3.org/1999/xlink" x="0px" y="0px"
	 width="33.656px" height="33.657px" viewBox="-1.657 -1.657 33.656 33.657"
	 style="enable-background:new -1.657 -1.657 33.656 33.657;" xml:space="preserve">
<g>
	<path d="M16.651,22.863c0,0-0.556,0.479-1.156,0.479c-0.601,0-1.157-0.479-1.157-0.479v4.309L8.625,32h6.697h0.346h6.697
		l-5.713-4.828L16.651,22.863L16.651,22.863z"/>
	<ellipse cx="15.495" cy="18.902" rx="1.367" ry="1.284"/>
	<ellipse cx="15.394" cy="21.478" rx="1.367" ry="1.284"/>
	<circle cx="15.449" cy="1.154" r="1.154"/>
	<path d="M16.695,2.308c0,0-0.462,0.61-1.247,0.61c-0.785,0-1.284-0.61-1.284-0.61v3.307h2.53L16.695,2.308L16.695,2.308z"/>
	<path d="M16.658,17.618v-6.87c0,0-0.664-0.665-1.265-0.665c-0.601,0-1.265,0.573-1.265,0.573v6.962c0,0,0.72-0.535,1.33-0.535
		S16.658,17.618,16.658,17.618z"/>
	<path d="M7.184,7.996c0,0,2.409,3.299,3.425,3.392c0.932,0.084,3.812-2.103,4.852-2.516c1.041,0.413,4.091,2.642,5.023,2.558
		c1.016-0.093,3.268-3.285,3.268-3.285s1.279,1.053,1.594,0.738c0.314-0.315-1.108-2.216-1.551-2.216c-0.443,0-2.992,1.81-3.51,1.81
		c-1.117,0-3.699-2.122-4.683-2.355c-0.036-0.012-0.244-0.012-0.28,0c-0.983,0.233-3.566,2.355-4.683,2.355
		c-0.517,0-3.14-1.902-3.583-1.902c-0.443,0-1.791,1.994-1.478,2.309C5.891,9.197,7.184,7.996,7.184,7.996z"/>
	<polygon points="0,21.146 6.704,27.646 13.408,21.146 	"/>
	<polygon points="6.612,11.099 6.612,20.193 7.498,20.193 7.498,11.166 13.028,20.413 14.078,20.43 7.064,8.712 0.124,20.438 
		1.119,20.438 	"/>
	<polygon points="23.571,27.818 30.275,21.316 16.867,21.316 	"/>
	<polygon points="24.367,20.367 24.367,11.338 29.3,20.575 30.343,20.593 23.932,8.884 16.546,20.604 17.612,20.604 23.479,11.271 
		23.479,20.367 	"/>
</g>
</svg>
