<?xml version="1.0" encoding="iso-8859-1"?>
<!-- Generator: Adobe Illustrator 16.0.4, SVG Export Plug-In . SVG Version: 6.00 Build 0)  -->
<!DOCTYPE svg PUBLIC "-//W3C//DTD SVG 1.1//EN" "http://www.w3.org/Graphics/SVG/1.1/DTD/svg11.dtd">
<svg version="1.1" id="Layer_1" xmlns="http://www.w3.org/2000/svg" xmlns:xlink="http://www.w3.org/1999/xlink" x="0px" y="0px"
	 width="32.001px" height="32px" viewBox="0 0 32.001 32" style="enable-background:new 0 0 32.001 32;" xml:space="preserve">
<path d="M31.547,15.497L26.453,4.276c0.931-0.351,1.414-0.962,1.766-1.494c0.354-0.537,0.54-1.044,0.672-1.457
	c0.252-0.834,0.271-1.323,0.271-1.323s-0.237,0.433-0.735,1.085c-0.244,0.325-0.574,0.695-0.97,1.045
	c-0.388,0.342-0.927,0.641-1.377,0.688l-0.146,0.02l-0.277-0.006L25.516,2.83c0.104-0.005-0.053-0.01-0.066-0.015l-0.285-0.032
	c-0.385-0.033-0.782-0.066-1.189-0.102c-0.816-0.066-1.678-0.145-2.568-0.176c-1.422-0.081-2.922-0.123-4.434-0.14
	c-0.156-0.763-0.457-1.339-0.824-1.566c0-0.01,0.002-0.018,0.002-0.027c0-0.425-0.154-0.771-0.344-0.771s-0.344,0.346-0.344,0.771
	c0,0.01,0.002,0.018,0.002,0.028c-0.366,0.228-0.667,0.804-0.823,1.566c-1.5,0.02-2.991,0.063-4.401,0.142
	C9.353,2.54,8.491,2.622,7.674,2.684C6.786,2.746,6.244,2.844,5.678,2.7C4.54,2.427,3.665,1.579,3.118,0.99
	c-0.55-0.605-0.861-1.018-0.879-0.988c0,0,0.06,0.11,0.117,0.324c0.069,0.215,0.15,0.545,0.324,0.94
	c0.17,0.396,0.396,0.887,0.778,1.393C3.833,3.163,4.362,3.72,5.137,4.097c0.13,0.065,0.276,0.119,0.42,0.174L0.668,15.497H0
	c0,0,0.382,4.368,6.17,4.368c5.789,0,6.171-4.368,6.171-4.368h-0.453L6.93,4.575c0.25,0.022,0.474,0.031,0.745,0.06
	c0.816,0.063,1.678,0.145,2.569,0.176c1.425,0.079,2.932,0.124,4.448,0.144c0.219,0.884,0.635,1.491,1.118,1.491
	s0.898-0.605,1.118-1.49c1.527-0.017,3.045-0.059,4.479-0.141c0.891-0.032,1.752-0.11,2.567-0.177
	c0.385-0.032,0.76-0.064,1.123-0.096l-4.77,10.955H19.66c0,0,0.382,4.368,6.17,4.368c5.789,0,6.171-4.368,6.171-4.368H31.547z
	 M5.679,6.451v9.046H1.74L5.679,6.451z M6.662,15.497V6.361l4.146,9.136H6.662z M26.32,6.361l4.147,9.136H26.32V6.361z
	 M25.338,6.451v9.046h-3.939L25.338,6.451z"/>
</svg>
