<?xml version="1.0" encoding="iso-8859-1"?>
<!-- Generator: Adobe Illustrator 16.0.4, SVG Export Plug-In . SVG Version: 6.00 Build 0)  -->
<!DOCTYPE svg PUBLIC "-//W3C//DTD SVG 1.1//EN" "http://www.w3.org/Graphics/SVG/1.1/DTD/svg11.dtd">
<svg version="1.1" id="Layer_1" xmlns="http://www.w3.org/2000/svg" xmlns:xlink="http://www.w3.org/1999/xlink" x="0px" y="0px"
	 width="32px" height="32px" viewBox="0 0 32 32" style="enable-background:new 0 0 32 32;" xml:space="preserve">
<path d="M31.999,18.021L27.232,6.361h2.127V4.712c0,0-4.858-0.258-8.289-1.531c-2.797-1.04-4.174-3.139-5.041-3.18
	c-0.967-0.047-2.794,1.988-6.031,3.18C6.772,4.368,2.134,4.712,2.134,4.712v1.649h2.468L0.013,17.668c0,0-0.518,3.909,5.041,3.909
	c5.56,0,5.7-3.909,5.7-3.909L6.128,6.361h7.217c0.607,0.651,1.464,1.066,2.426,1.066c0.961,0,1.819-0.415,2.427-1.066h7.792
	l-4.73,11.661c0,0-0.21,3.885,5.352,3.885C32.168,21.906,31.999,18.021,31.999,18.021z M0.893,17.668l4.188-10.48v10.48H0.893z
	 M5.646,17.668V7.182l4.211,10.486H5.646z M15.771,5.116c-0.56,0-1.014-0.454-1.014-1.017c0-0.561,0.454-1.015,1.014-1.015
	c0.561,0,1.015,0.454,1.015,1.015C16.785,4.662,16.331,5.116,15.771,5.116z M26.895,7.538l4.209,10.483h-4.209V7.538z
	 M22.139,18.021l4.188-10.478v10.478H22.139z"/>
</svg>
