<?xml version="1.0" encoding="iso-8859-1"?>
<!-- Generator: Adobe Illustrator 16.0.4, SVG Export Plug-In . SVG Version: 6.00 Build 0)  -->
<!DOCTYPE svg PUBLIC "-//W3C//DTD SVG 1.1//EN" "http://www.w3.org/Graphics/SVG/1.1/DTD/svg11.dtd">
<svg version="1.1" id="Layer_1" xmlns="http://www.w3.org/2000/svg" xmlns:xlink="http://www.w3.org/1999/xlink" x="0px" y="0px"
	 width="30.775px" height="30.774px" viewBox="0 0 30.775 30.774" style="enable-background:new 0 0 30.775 30.774;"
	 xml:space="preserve">
<g>
	<path d="M18.46,6.03c0-1.604-1.3-2.904-2.905-2.904c-1.604,0-2.905,1.301-2.905,2.904c0,1.441,1.051,2.634,2.426,2.862
		l-3.523,11.441h6.231L15.53,8.935c0.009,0,0.018,0.001,0.025,0.001C17.16,8.936,18.46,7.635,18.46,6.03z"/>
	<path d="M10.343,14.706L5.96,9.446c-0.074-0.088-0.186-0.14-0.301-0.133C5.542,9.316,5.435,9.374,5.368,9.469l-3.554,4.962
		c-0.051-0.02-0.477,4.357,3.881,4.357s4.756-3.932,4.722-3.923C10.404,14.81,10.382,14.753,10.343,14.706z M6.102,15.556
		c-0.9,0-2.557-0.521-3.553-0.863l3.146-4.394l3.945,4.735C8.644,15.242,6.999,15.556,6.102,15.556z"/>
	<path d="M24.28,6.574c-1.355-0.858-3.838-4.394-6.895-6.004C16.911,0.238,16.238,0,15.488,0c-0.039,0-0.077,0.004-0.116,0.005
		C15.332,0.004,15.293,0,15.253,0c-0.75,0-1.423,0.238-1.897,0.57C10.299,2.181,7.523,6.112,6.335,6.8
		C5.147,7.488,0.398,6.925,0.054,4.37c-0.469,2.492,2.127,5.422,7.281,4.157c4.847-1.189,4.75-6.165,8.292-6.165
		s2.932,4.976,7.777,6.165c5.154,1.265,7.466-2.272,7.367-4.111C29.21,6.572,25.636,7.433,24.28,6.574z"/>
	<path d="M25.374,9.469c-0.067-0.095-0.175-0.152-0.291-0.156c-0.117-0.007-0.228,0.046-0.301,0.134l-4.384,5.26
		c-0.04,0.047-0.061,0.103-0.073,0.159c-0.034-0.008,0.363,3.923,4.721,3.923c4.356,0,3.932-4.377,3.881-4.356L25.374,9.469z
		 M24.64,15.556c-0.896,0-2.542-0.313-3.539-0.521l3.945-4.735l3.146,4.394C27.197,15.035,25.541,15.556,24.64,15.556z"/>
</g>
</svg>
