<?xml version="1.0" encoding="iso-8859-1"?>
<!-- Generator: Adobe Illustrator 16.0.4, SVG Export Plug-In . SVG Version: 6.00 Build 0)  -->
<!DOCTYPE svg PUBLIC "-//W3C//DTD SVG 1.1//EN" "http://www.w3.org/Graphics/SVG/1.1/DTD/svg11.dtd">
<svg version="1.1" id="Layer_1" xmlns="http://www.w3.org/2000/svg" xmlns:xlink="http://www.w3.org/1999/xlink" x="0px" y="0px"
	 width="31.998px" height="31.998px" viewBox="0 7.688 31.998 31.998" style="enable-background:new 0 7.688 31.998 31.998;"
	 xml:space="preserve">
<path d="M27.354,12.859c0.084-0.042,0.158-0.102,0.229-0.166c0.543-0.336,0.908-0.933,0.908-1.618c0-1.054-0.854-1.906-1.908-1.906
	c-1.051,0-1.906,0.853-1.906,1.906c0,0.11,0.017,0.216,0.033,0.32c-0.946-0.3-2.41-1.618-3.479-1.974
	c-1.135-0.377-2.131-0.368-3.002-0.06C17.9,8.414,17.023,7.727,15.97,7.693V7.688c-0.014,0-0.026,0.002-0.04,0.002
	c-0.015,0-0.028-0.002-0.041-0.002v0.006c-1.053,0.034-1.932,0.72-2.26,1.668c-0.868-0.309-1.867-0.317-3.002,0.06
	c-1.069,0.356-2.532,1.674-3.479,1.974c0.017-0.104,0.031-0.21,0.031-0.32c0-1.054-0.854-1.906-1.905-1.906
	c-1.055,0-1.907,0.853-1.907,1.906c0,0.768,0.456,1.425,1.109,1.727c0.028,0.019,0.056,0.041,0.086,0.056
	c0,0-4.462,6.964-4.553,7.108c-0.091,0.146,0.41,3.966,4.554,3.966s4.691-3.982,4.416-4.256l-3.64-6.701
	c0.009-0.001,0.018-0.002,0.026-0.003c0.046,0.003,0.088,0.009,0.137,0.009c2.21,0.025,4.011-1.758,5.198-2.394
	c1.101-0.589,2.113-0.225,2.898,0.296c0.131,0.439,0.377,0.826,0.709,1.126c0.014,0.012,0.026,0.022,0.04,0.033
	c0.418,0.361,0.951,0.587,1.541,0.607v0.007c0.014,0,0.025-0.002,0.039-0.003c0.014,0.001,0.026,0.003,0.04,0.003V12.65
	c0.59-0.02,1.124-0.246,1.54-0.607c0.015-0.011,0.027-0.021,0.041-0.033c0.332-0.3,0.578-0.687,0.709-1.126
	c0.785-0.521,1.798-0.886,2.897-0.296c1.188,0.636,2.99,2.419,5.199,2.394c0.049,0,0.09-0.006,0.135-0.009
	c0.029,0.001,0.058,0.007,0.085,0.009c0,0-3.978,7.052-3.978,7.246c0,0.535,0.61,3.707,4.756,3.707c4.144,0,4.646-3.218,4.646-3.867
	C32,19.964,27.354,12.859,27.354,12.859z M4.62,18.722c-1.561,0.002-2.604,0.133-3.297,0.33l3.297-5.15V18.722z M5.231,18.729V14.06
	l2.749,5.058C7.373,18.915,6.491,18.767,5.231,18.729z M26.686,18.729c-1.262,0.037-2.143,0.186-2.75,0.389l2.75-5.058V18.729z
	 M27.295,18.722v-4.82l3.297,5.148C29.9,18.854,28.855,18.724,27.295,18.722z"/>
</svg>
