<?xml version="1.0" encoding="iso-8859-1"?>
<!-- Generator: Adobe Illustrator 16.0.4, SVG Export Plug-In . SVG Version: 6.00 Build 0)  -->
<!DOCTYPE svg PUBLIC "-//W3C//DTD SVG 1.1//EN" "http://www.w3.org/Graphics/SVG/1.1/DTD/svg11.dtd">
<svg version="1.1" id="Layer_1" xmlns="http://www.w3.org/2000/svg" xmlns:xlink="http://www.w3.org/1999/xlink" x="0px" y="0px"
	 width="32px" height="32px" viewBox="0 0 32 32" style="enable-background:new 0 0 32 32;" xml:space="preserve">
<path d="M30.271,19.519L26.965,9.211h-0.838V8.647c1.639-0.404,1.667-2.02,1.667-2.02s-0.621,0.729-1.667,1.012V7.192h-0.654v0.555
	c-0.027,0.001-0.052,0.008-0.08,0.009c-1.49,0.036-2.162-2.436-4.037-2.436c-1.746,0-3.697,1.039-4.957,1.183V3.69
	c0.891-0.139,1.574-0.901,1.574-1.831C17.975,0.833,17.141,0,16.114,0s-1.86,0.833-1.86,1.859c0,0.98,0.762,1.775,1.725,1.847v2.776
	c-1.261-0.199-3.132-1.162-4.816-1.162c-1.875,0-2.545,2.472-4.036,2.436C7.006,7.752,6.895,7.733,6.781,7.718V7.192H6.127v0.373
	c-0.887-0.322-1.4-0.938-1.4-0.938s0.028,1.431,1.4,1.934V9.21H5.29l-3.365,10.31H0c0,0,1.381,2.638,6.327,2.638
	c4.946,0,6.327-2.638,6.327-2.638h-1.729L7.62,9.211H6.781V8.715C6.913,8.729,7.051,8.737,7.2,8.737c2.437,0,2.8-1.545,4.146-1.545
	c1.211,0,2.63,1.504,4.379,1.808c0.075,0.021,0.442-0.004,0.331,0.023L16,14.8l-1.111,2.25l0.038,6.778h-3.054v1.2l-2.455,4.036
	h13.963l-3-4.091v-1.146h-2.672v-6.716l-1.125-2.364L16.583,9.01C16.684,9.009,16.68,9.031,16.796,9
	c1.749-0.304,3.168-1.808,4.379-1.808c1.347,0,1.709,1.545,4.146,1.545c0.055,0,0.101-0.006,0.152-0.008v0.48h-0.836l-3.365,10.309
	h-1.926c0,0,1.381,2.638,6.327,2.638S32,19.519,32,19.519H30.271z M6.127,19.519H2.614l3.15-9.653h0.363V19.519z M7.143,9.865
	l3.096,9.653H6.781V9.865H7.143z M25.473,19.519h-3.514l3.15-9.653h0.363V19.519z M26.127,19.519V9.865h0.361l3.096,9.653
	L26.127,19.519L26.127,19.519z"/>
</svg>
