<?xml version="1.0" encoding="iso-8859-1"?>
<!-- Generator: Adobe Illustrator 16.0.4, SVG Export Plug-In . SVG Version: 6.00 Build 0)  -->
<!DOCTYPE svg PUBLIC "-//W3C//DTD SVG 1.1//EN" "http://www.w3.org/Graphics/SVG/1.1/DTD/svg11.dtd">
<svg version="1.1" id="Layer_1" xmlns="http://www.w3.org/2000/svg" xmlns:xlink="http://www.w3.org/1999/xlink" x="0px" y="0px"
	 width="32px" height="31.999px" viewBox="0 0 32 31.999" style="enable-background:new 0 0 32 31.999;" xml:space="preserve">
<g>
	<path d="M29.277,6.858C29.111,6.518,29.02,6.33,29.02,6.33s2.529,0.58,2.819-0.249c-4.354-4.812-7.685-2.753-8.46-3.318
		c-2.447-2.364-6.346-1.41-6.803,0c-0.455,1.41,2.592,3.859,2.695,5.392c0.104,1.533,0.83,5.987,3.151,5.255
		c0.353-0.623,0-3.098,0.498-2.476s2.156,5.018-1.284,6.967c-2.406,0.953-3.07-1.779-7.198-1.451
		c2.552,1.994,3.547,3.939,3.547,3.939s-0.019,1.059-1.244,5.102c2.9-1.023,3.305-3.111,4.35-3.729
		c0.393,0.104,0.896,0.17,1.488,0.17c1.055,0,2.352-0.197,3.615-0.717c1.875-0.77,4.33-2.501,5.377-6.378
		C32.992,9.632,30.523,7.552,29.277,6.858z M20.91,2.742c-0.663-0.312-0.539-0.638-0.436-0.824c0.104-0.187,1.361,0.425,1.444,0.653
		S21.574,3.053,20.91,2.742z M30.611,14.578c-0.94,3.483-3.127,5.032-4.795,5.718c-0.447,0.184-0.887,0.311-1.313,0.408
		c4.647-2.456,6.368-8.758,5.715-11.679C30.914,10.075,31.371,11.795,30.611,14.578z"/>
	<path d="M9.575,12.081c-0.35,0.623,0,3.098-0.497,2.477C8.58,13.935,6.921,9.539,10.363,7.59c2.406-0.954,3.069,1.779,7.198,1.451
		c-2.554-1.995-3.547-3.94-3.547-3.94S14.031,4.043,15.258,0c-2.9,1.023-3.306,3.111-4.35,3.728c-0.393-0.104-0.895-0.17-1.488-0.17
		c-1.055,0-2.352,0.198-3.615,0.717c-1.875,0.77-4.33,2.501-5.377,6.378c-1.42,5.206,1.049,7.286,2.294,7.979
		C2.889,18.974,2.98,19.16,2.98,19.16s-2.529-0.58-2.82,0.249c4.355,4.812,7.684,2.753,8.461,3.318c2.447,2.363,6.346,1.41,6.803,0
		c0.455-1.41-2.593-3.859-2.696-5.393C12.623,15.804,11.898,11.35,9.575,12.081z M1.781,16.465c-0.695-1.05-1.152-2.771-0.395-5.553
		c0.943-3.484,3.13-5.032,4.796-5.718c0.449-0.184,0.889-0.31,1.314-0.408C2.849,7.242,1.128,13.544,1.781,16.465z M11.524,23.571
		c-0.104,0.188-1.36-0.424-1.443-0.652s0.345-0.482,1.009-0.171C11.753,23.06,11.629,23.386,11.524,23.571z"/>
</g>
</svg>
