<?xml version="1.0" encoding="iso-8859-1"?>
<!-- Generator: Adobe Illustrator 16.0.4, SVG Export Plug-In . SVG Version: 6.00 Build 0)  -->
<!DOCTYPE svg PUBLIC "-//W3C//DTD SVG 1.1//EN" "http://www.w3.org/Graphics/SVG/1.1/DTD/svg11.dtd">
<svg version="1.1" id="Layer_1" xmlns="http://www.w3.org/2000/svg" xmlns:xlink="http://www.w3.org/1999/xlink" x="0px" y="0px"
	 width="32.619px" height="32.619px" viewBox="-0.62 -0.621 32.619 32.619"
	 style="enable-background:new -0.62 -0.621 32.619 32.619;" xml:space="preserve">
<g>
	<path d="M6.279,20.578C5.92,18.115,5.877,15.25,5.877,15.25s1.878-3.225,3.895-3.939c0.672-0.136-1.911,2.238-0.806,2.462
		c1.104,0.225,4.655-2.776,5.64-2.867c0.986-0.088,4.03,1.075,6.895,0.584c2.865-0.493,8.149-5.238,8.104-5.865
		c-0.046-0.627-2.417,0.672-2.417,0.672s1.699-2.06,1.208-3.134c-0.494-1.076-8.554-1.973-10.565-1.927
		c-2.016-3.537-7.116,1.617-7.345,1.835c-0.226,0.22,2.093-0.123,2.093,0.236c0,0.357-5.227,4.778-6.211,7.51
		c-0.984,2.732-3.313,4.252-6.088,3.089c-1.522,2.955,3.671,2.955,3.671,2.955S4.399,21.068,6.279,20.578z M25.105,3.295
		c0.382,0,0.692,0.311,0.692,0.695c0,0.382-0.312,0.694-0.692,0.694c-0.385,0-0.694-0.313-0.694-0.694
		C24.411,3.605,24.72,3.295,25.105,3.295z"/>
	<path d="M27.429,15.138c0,0-0.448-4.207-2.328-3.716c0.356,2.462,0.401,5.33,0.401,5.33s-1.881,3.223-3.895,3.938
		c-0.672,0.134,1.911-2.239,0.807-2.464c-1.105-0.223-4.658,2.775-5.643,2.865c-0.984,0.09-4.028-1.073-6.893-0.582
		c-2.867,0.492-8.149,5.238-8.104,5.865c0.044,0.627,2.417-0.672,2.417-0.672s-1.701,2.06-1.208,3.133
		c0.491,1.076,8.55,1.973,10.565,1.927c2.015,3.536,7.116-1.617,7.342-1.835c0.227-0.219-2.094,0.123-2.094-0.236
		c0-0.357,5.228-4.777,6.211-7.51c0.986-2.73,3.313-4.252,6.091-3.09C32.624,15.138,27.429,15.138,27.429,15.138z M6.275,28.705
		c-0.384,0-0.694-0.312-0.694-0.695c0-0.383,0.311-0.692,0.694-0.692c0.383,0,0.695,0.312,0.695,0.692
		C6.97,28.394,6.658,28.705,6.275,28.705z"/>
</g>
</svg>
