<?xml version="1.0" encoding="iso-8859-1"?>
<!-- Generator: Adobe Illustrator 16.0.4, SVG Export Plug-In . SVG Version: 6.00 Build 0)  -->
<!DOCTYPE svg PUBLIC "-//W3C//DTD SVG 1.1//EN" "http://www.w3.org/Graphics/SVG/1.1/DTD/svg11.dtd">
<svg version="1.1" id="Layer_1" xmlns="http://www.w3.org/2000/svg" xmlns:xlink="http://www.w3.org/1999/xlink" x="0px" y="0px"
	 width="32.001px" height="32px" viewBox="0 0 32.001 32" style="enable-background:new 0 0 32.001 32;" xml:space="preserve">
<g>
	<path d="M28.312,14.859c0,0,1.059-0.429,3.688-0.086c-0.2-1.572-5.543-1.377-6.06-1.658c-0.518-0.281-8.232-4.659-10.376-2.572
		s5.63,6.918,6.173,7.316c0.544,0.4-1.285,3.346,1.945,4.632c-0.201-1.972-0.201-2.315,0.143-2.658c0,0,4.287,4.944,1.515,5.774
		c-2.373,0.6-6.202,0.17-6.202,0.17s-3.459-4.916-5.118-4.229c0.915,1.687,2.058,4.584,2.058,4.584s-1.601,0.763-3.773,2.647
		c1.572,1,5.574-1.715,7.604-1.114c6.088,2.173,10.49-2.144,11.005-6.574C31.428,16.66,28.312,14.859,28.312,14.859z"/>
	<path d="M15.729,18.615c2.402-1.783-4.662-7.604-5.147-8.073c-0.485-0.468,1.719-3.144-1.311-4.848
		c-0.064,1.982-0.11,2.322-0.496,2.617c0,0-3.593-5.472-0.734-5.925c2.431-0.28,6.17,0.654,6.17,0.654s2.775,5.333,4.51,4.873
		C18.038,6.12,17.29,3.098,17.29,3.098s1.688-0.543,4.091-2.124c-1.425-1.201-5.752,0.959-7.684,0.094
		C7.952-1.895,3.015,1.799,1.917,6.121c-1.099,4.323,1.75,6.521,1.75,6.521S2.561,12.928,0,12.238
		c-0.01,1.585,5.311,2.101,5.786,2.448S13.326,20.398,15.729,18.615z"/>
</g>
</svg>
