<?xml version="1.0" encoding="iso-8859-1"?>
<!-- Generator: Adobe Illustrator 16.0.4, SVG Export Plug-In . SVG Version: 6.00 Build 0)  -->
<!DOCTYPE svg PUBLIC "-//W3C//DTD SVG 1.1//EN" "http://www.w3.org/Graphics/SVG/1.1/DTD/svg11.dtd">
<svg version="1.1" id="Layer_1" xmlns="http://www.w3.org/2000/svg" xmlns:xlink="http://www.w3.org/1999/xlink" x="0px" y="0px"
	 width="31.999px" height="31.999px" viewBox="0 -0.001 31.999 31.999" style="enable-background:new 0 -0.001 31.999 31.999;"
	 xml:space="preserve">
<g>
	<path d="M21.587,13.962c-3.17-0.033-8.964,2.625-10.396,2.012c-1.432-0.613-0.238-6.169-5.965-5.862
		c1.09,3.033-0.308,3.477-0.308,3.477s-1.942,1.638-4.533-2.862c-2.557,8.045,8.419,6.612,8.419,6.612s0.717,2.829,5.012,3.374
		c0.328,0.223,0.877,2.275,1.154,2.632c0.277,0.357,2.901-0.108,2.901-0.108s1.566-0.068,1.603-1.466
		c4.67,0.58,9.821-3.749,10.026-4.567c0.203-0.818-0.055-1.057-0.055-1.057S24.757,13.996,21.587,13.962z M24.109,18.988
		c-0.641,0-1.158-0.484-1.158-1.083s0.52-1.084,1.158-1.084c0.641,0,1.16,0.485,1.16,1.084S24.75,18.988,24.109,18.988z"/>
	<path d="M23.193,6.14c0,0-0.715-2.829-5.01-3.374c-0.33-0.223-0.877-2.275-1.154-2.633c-0.277-0.356-2.902,0.109-2.902,0.109
		s-1.568,0.068-1.602,1.466c-4.67-0.58-9.822,3.749-10.027,4.567C2.293,7.094,2.552,7.333,2.552,7.333s4.689,2.147,7.86,2.183
		c3.17,0.033,8.964-2.625,10.396-2.012s0.238,6.169,5.965,5.862C25.682,10.333,27.08,9.89,27.08,9.89s1.943-1.638,4.533,2.862
		C34.169,4.708,23.193,6.14,23.193,6.14z M7.889,6.655c-0.641,0-1.158-0.485-1.158-1.084s0.518-1.083,1.158-1.083
		c0.64,0,1.159,0.484,1.159,1.083S8.529,6.655,7.889,6.655z"/>
</g>
</svg>
