<?xml version="1.0" encoding="iso-8859-1"?>
<!-- Generator: Adobe Illustrator 16.0.4, SVG Export Plug-In . SVG Version: 6.00 Build 0)  -->
<!DOCTYPE svg PUBLIC "-//W3C//DTD SVG 1.1//EN" "http://www.w3.org/Graphics/SVG/1.1/DTD/svg11.dtd">
<svg version="1.1" id="Layer_1" xmlns="http://www.w3.org/2000/svg" xmlns:xlink="http://www.w3.org/1999/xlink" x="0px" y="0px"
	 width="31.998px" height="31.998px" viewBox="0 0 31.998 31.998" style="enable-background:new 0 0 31.998 31.998;"
	 xml:space="preserve">
<g>
	<path d="M27.906,9.592c-3.16-0.215-2.447,3.234-2.092,4.552c0.354,1.316-3.115-1.495-3.961-0.538
		c-0.533-1.491-8.165,0.821-9.695-1.158c-0.338-0.622,0-1.768,0-1.768s2.27-0.732,2.213-1.922c0.412,0.549,3.234,1.197,3.49,0.708
		c0.256-0.488,0-0.846,0-0.846s-2.84-1.979-3.695-3.337c1.548-1.091,1.125-1.646,1.014-2.403c-0.4-1.936-3.137-1.534-3.137-1.534
		s1.695,1.424,1.314,1.803c-0.328,0.326-1.259-0.078-1.715-0.701c-0.113,0.006-0.206,0.255-0.322,0.312
		c-0.846,0.415-0.357,1.991-0.362,2.438c-0.983-0.022-2.964,2.27-4.299,2.27S2.788,6.173,2.788,6.173s0.2-2.469,0.601-3.248
		c0.4-0.777,3.025-2.446,3.025-2.446L6.34,0c0,0-3.195,1.924-3.574,3.104c-0.378,1.18-0.557,2.826-0.557,2.826
		S1.342,5.283,1.187,5.772c-0.155,0.49,0.845,1.246,0.845,1.246s-1,1.869-0.467,3.516c0.534,1.646,1.779,3.07,1.779,3.07
		l0.106-0.683c0,0-1.13-1.188-1.374-2.5C1.832,9.11,2.588,7.24,2.588,7.24s2.848,1.98,5.57,1.29
		c-0.003,0.424,0.104,5.918-2.145,6.532c-0.404-0.304-1.352-1.44-1.641-1.318C4.084,13.868,2.155,17.04,0.91,17.15
		c0.6,0.512,0.575,0.521,0.692,0.701c0.362-0.532,2.966-2.788,2.966-2.788s0.211,1.074,0.645,1.789
		c0.494,0.812,1.371,1.287,1.335,1.475c-0.066,0.35-2.669,0-2.669,0s-2.768,3.854-2.889,4.326c-0.123,0.473-0.049,1.742-0.049,1.742
		H1.92l0.356-1.447c0,0,1.85-3.627,2.448-3.248c4.338,0.912,12.992-0.021,13.437-0.134c-0.333,1.646,1.067,2.514,1.157,2.848
		c0.089,0.333-0.135,0.912-0.312,1.157c-0.179,0.244-3.733,0.289-4.094,0.578c-0.361,0.289-1.044,1.135-1.269,1.49
		c0.421,0.223,0.602,0.312,0.868,0.457c0.111-0.513,1.558-1.191,1.558-1.191l3.648-0.267c0,0,0.779-1.535,1.156-1.201
		c0.734,0.667-3.402,5.207-3.402,5.207s0.779,0.011,1.157-0.013c0.289-0.601,3.831-3.724,3.897-4.747
		c0.065-1.022-1.142-1.627-0.939-3.161c0.199-1.535,3.003-3.248,1.201-5.756c0.801-0.451,1.357,1.428,2.803,1.444
		c1.446,0.017,1.78-1.178,1.78-1.693c0-0.515-1.136-3.362,0-3.161c0.256,0.08,1.08,2.084,1.757,2.401
		c1.375,0.646,2.291,0.224,2.871-0.227C30.064,13.804,31.064,9.807,27.906,9.592z"/>
	<polygon points="12.91,26.481 14.273,27.161 14.436,26.26 13.541,25.814 	"/>
	<polygon points="17.359,28.883 17.043,29.763 18.866,29.755 18.557,28.878 	"/>
	<polygon points="0.895,24.639 0.617,25.519 2.218,25.51 1.946,24.634 	"/>
	<polygon points="1.528,17.989 0.791,17.312 0,17.778 1.122,18.81 	"/>
</g>
</svg>
