<?xml version="1.0" encoding="iso-8859-1"?>
<!-- Generator: Adobe Illustrator 16.0.4, SVG Export Plug-In . SVG Version: 6.00 Build 0)  -->
<!DOCTYPE svg PUBLIC "-//W3C//DTD SVG 1.1//EN" "http://www.w3.org/Graphics/SVG/1.1/DTD/svg11.dtd">
<svg version="1.1" id="Layer_1" xmlns="http://www.w3.org/2000/svg" xmlns:xlink="http://www.w3.org/1999/xlink" x="0px" y="0px"
	 width="35.018px" height="35.018px" viewBox="-3.017 -3.018 35.018 35.018"
	 style="enable-background:new -3.017 -3.018 35.018 35.018;" xml:space="preserve">
<g>
	<polygon points="7.213,32 8.038,32 8.038,26.227 4.415,26.227 	"/>
	<polygon points="8.733,32 9.559,32 12.356,26.227 8.733,26.227 	"/>
	<path d="M28.983,13.979l-4.028-1.787l0.773,1.471l-4.386,0.106c0.474-0.841,1.134-2.212,1.089-3.259
		c-0.07-1.621-2.749-3.012-2.512-3.445c0.234-0.434,0.734-0.749,0.882,0.134c0.127-0.123,1.318-1.179,0.123-1.875
		c-1.024-0.597-2.18,0.569-2.521,1.364l-3.217,3.217c-2.367,0.269-2.066-0.625-1.333-1.359c0.771-0.771,2.066-11.312-6.062-7.85
		c-8.13-3.462-6.834,7.079-6.064,7.85C2.5,9.319,2.799,10.271,0,9.855c2.382,3.393,4.449,0.638,4.449,0.638s1.13,0.672,3.08,0.729
		c0.006,0.001,0.01,0.003,0.015,0.003c0.016,0,0.029,0,0.045,0c0.064,0.001,0.135,0.001,0.202,0.001c0.065,0,0.136,0,0.201-0.001
		c0.016,0,0.028,0,0.045,0c0.004,0,0.009-0.002,0.013-0.003c1.951-0.057,3.082-0.729,3.082-0.729s1.036,1.378,2.486,0.981
		l-1.789,1.788c-0.582-1.03-0.994-1.715-0.994-1.715l-3.125,0.63l-3.126-0.629c0,0-4.405,9.618-4.228,12.078
		c0.18,2.461,13.217,2.302,15.225-1.091c0.289-0.816-0.481-2.852-1.481-4.951l4.28,4.167c-0.048,0.131-0.073,0.244-0.067,0.337
		c0.046,0.711,1.425,2.42,2.622,1.725c1.195-0.696,0.004-1.752-0.123-1.875c-0.146,0.883-0.646,0.566-0.883,0.133
		c-0.236-0.434,2.441-1.823,2.512-3.443c0.058-1.294-0.971-3.131-1.387-3.819l4.498-0.122l-0.563,1.222L28.983,13.979z M5.72,6.165
		c-0.55,0-0.994-0.382-0.994-0.854S5.17,4.458,5.72,4.458c0.549,0,0.993,0.382,0.993,0.854S6.269,6.165,5.72,6.165z M9.861,6.165
		c-0.55,0-0.993-0.382-0.993-0.854s0.443-0.854,0.993-0.854c0.551,0,0.994,0.382,0.994,0.854S10.411,6.165,9.861,6.165z
		 M18.424,7.51c0.396,0.9,1.661,2.408,1.765,3.001c0.087,0.495-0.299,2.268-0.541,3.3l-6.329,0.154l-0.739-0.554l-0.061,0.005
		L18.424,7.51z M20.198,18.626c-0.089,0.504-1.021,1.674-1.54,2.565l-5.359-5.217c-0.108-0.211-0.218-0.421-0.327-0.627l0.472-0.335
		l6.1-0.165C19.742,15.664,20.302,18.038,20.198,18.626z"/>
</g>
</svg>
