<?xml version="1.0" encoding="iso-8859-1"?>
<!-- Generator: Adobe Illustrator 16.0.4, SVG Export Plug-In . SVG Version: 6.00 Build 0)  -->
<!DOCTYPE svg PUBLIC "-//W3C//DTD SVG 1.1//EN" "http://www.w3.org/Graphics/SVG/1.1/DTD/svg11.dtd">
<svg version="1.1" id="Layer_1" xmlns="http://www.w3.org/2000/svg" xmlns:xlink="http://www.w3.org/1999/xlink" x="0px" y="0px"
	 width="35.982px" height="35.982px" viewBox="-3.982 -3.982 35.982 35.982"
	 style="enable-background:new -3.982 -3.982 35.982 35.982;" xml:space="preserve">
<path d="M28.018,15.669l-4.303-1.396v1.065h-4.939c0.293-1.671,1.859-1.55,1.734-5.039C20.373,6.455,13.963,6.317,14.192,0
	c-0.033,0.047-0.06,0.091-0.092,0.137L14.123,0L2.562,14.442L0,14.174l1.282,1.74l-1.245,1.711l2.771-0.38L14.192,32l0.042-1.178
	c0.558-5.17,6.147-5.532,6.275-9.122c0.137-3.847-1.785-3.296-1.785-5.608c0-0.008,0.001-0.016,0.001-0.024h0.007
	c0-0.022-0.001-0.045-0.003-0.067h4.985v1.524L28.018,15.669z M13.007,2.956c-0.111,3.446,5.077,4.807,5.077,7.344
	c0,2.794-1.085,2.991-1.337,5.039H5.732l-0.925-0.661l-1.258-0.132L13.007,2.956z M16.698,16.067
	c0.094,2.634,1.386,2.587,1.386,5.632c0,2.568-5.32,3.929-5.075,7.471L3.736,17.119l1.117-0.153L6.012,16h10.682
	c0,0.023-0.002,0.044-0.003,0.067H16.698z"/>
</svg>
