<?xml version="1.0" encoding="iso-8859-1"?>
<!-- Generator: Adobe Illustrator 16.0.4, SVG Export Plug-In . SVG Version: 6.00 Build 0)  -->
<!DOCTYPE svg PUBLIC "-//W3C//DTD SVG 1.1//EN" "http://www.w3.org/Graphics/SVG/1.1/DTD/svg11.dtd">
<svg version="1.1" id="Layer_1" xmlns="http://www.w3.org/2000/svg" xmlns:xlink="http://www.w3.org/1999/xlink" x="0px" y="0px"
	 width="32px" height="32px" viewBox="0 0.001 32 32" style="enable-background:new 0 0.001 32 32;" xml:space="preserve">
<path d="M28.518,24.942L28.275,6.958c0.264-0.122,0.472-0.253,0.599-0.397c0.987-1.125,1.479-5.711-1.332-6.452
	s-2.608,2.595-2.603,2.966c1.528-1.093,1.802,0.117,1.509,1.112c-0.292,0.994-6.333-0.917-8.845,1.385
	c-2.004,1.838-3.207,6.09-3.608,7.729l-6.86-6.499l2.649-0.979L0.992,2.754l3.33,8.637l1.033-3.332l6.67,6.354
	c-1.95,0.545-4.966,1.601-6.455,3.223c-2.302,2.512-0.39,8.553-1.385,8.846S1.98,26.5,3.073,24.971
	c-0.371-0.007-3.707-0.208-2.966,2.602c0.635,2.407,4.083,2.391,5.769,1.717h20.181l3.03,2.603l0.563-2.445L32,28.924L28.518,24.942
	z M20.936,8.9c0.879-0.618,4-0.972,6.097-1.525l0.229,17.2L25.6,24.293l-9.301-8.81C17.215,13.975,19.91,9.619,20.936,8.9z
	 M7.066,28.039c0.748-1.927,1.109-6.043,1.834-7.075c0.606-0.863,3.812-2.924,5.705-4.097l9.625,9.168l0.275,1.921l0.098,0.083
	H7.066z"/>
</svg>
