<?xml version="1.0" encoding="iso-8859-1"?>
<!-- Generator: Adobe Illustrator 16.0.4, SVG Export Plug-In . SVG Version: 6.00 Build 0)  -->
<!DOCTYPE svg PUBLIC "-//W3C//DTD SVG 1.1//EN" "http://www.w3.org/Graphics/SVG/1.1/DTD/svg11.dtd">
<svg version="1.1" id="Layer_1" xmlns="http://www.w3.org/2000/svg" xmlns:xlink="http://www.w3.org/1999/xlink" x="0px" y="0px"
	 width="32.871px" height="32.871px" viewBox="-2.96 -2.96 32.871 32.871"
	 style="enable-background:new -2.96 -2.96 32.871 32.871;" xml:space="preserve">
<path d="M0.076,25.055c0,0.406-0.406,4.208,0.656,4.208s0.483-2.216,1.125-1.97c0.642,0.248,6.656,2.695,7.864,2.615
	s1.224-1.693,1.219-2.037c0.854,0.672,2.136,0.392,2.167,0.047c0.031-0.922-1.656-1.453-1.698-2.219
	c-0.043-0.766,6.063-1.666,4.646-4.207c-1.25-2.459-5.24-3.095-5.584-4c-0.344-0.906-0.479-3.789-0.479-3.789
	s1.288-0.425,1.586-1.106c0.298-0.681-0.596-1.264-0.596-1.264s0.322-0.016,0.817-0.042l6.585,8.535l0.025-0.73
	c0.346-3.204,3.811-3.428,3.889-5.652c0.086-2.383-1.105-2.042-1.105-3.475c0-0.004,0-0.01,0-0.015h0.006
	c0-0.014,0-0.028-0.003-0.042h3.089v0.945l2.666-1.149l-2.666-0.865v0.66h-3.061c0.182-1.036,1.152-0.961,1.074-3.122
	C22.216,4,18.244,3.915,18.387,0c-0.021,0.029-0.037,0.057-0.058,0.085L18.343,0L11.18,8.949L9.796,8.804
	C9.237,8.421,8.667,8.03,8.294,7.774c0.013-0.016-0.062-0.543,0.145-0.622c0.942,0.029,1.188-0.019,0.954-0.671
	c0.03-0.027,0.198-0.137,0.234-0.215c0.036-0.078-0.048-0.097-0.048-0.097s0.062,0.003,0.106-0.068C9.73,6.03,9.607,5.75,9.607,5.75
	S9.92,5.681,9.988,5.564c0.068-0.117-0.55-0.836-0.527-0.967c0.023-0.13,0.127-0.191,0.156-0.224
	C9.646,4.34,9.716,3.987,9.334,3.426C9.212,3.247,9.061,3.054,8.858,2.888c0.247-0.216,0.73-0.683,0.699-1.003
	C9.515,1.457,7.124,0.507,5.264,2.5c-1.86,1.994,0.452,4.031,0.452,4.031l0.142-0.118c0.216,0.293,0.425,0.493,0.354,0.596
	c0,0-2.047,0.832-2.261,1.774C3.737,9.725,3.43,11.92,3.43,12.388c0,0.468-0.858,0.752-0.646,1.646
	c0.212,0.894,2.767,2.767,2.881,2.904c0.114,0.137-0.951,0.928-0.62,2.512c0.438,2.094,2.208,2.368,2.719,3.219
	c0.511,0.852,0.9,3.767,0.563,4.199c0,0-5.854-0.934-6.479-1.918C1.237,24.247,0.076,24.648,0.076,25.055z M10.951,21.2
	c0.938,0.156,2.594,1.141,2.594,1.141s-2.002,0.529-2.219,0.828C11.168,22.697,10.998,21.45,10.951,21.2z M17.651,1.832
	c-0.067,2.136,3.146,2.979,3.146,4.551c0,1.316-0.387,1.704-0.642,2.371c-0.536,0.131-1.168,0.432-1.556,0.569
	c-0.451,0.159-3.294,0.236-5.614,0.106c0,0-0.285-0.082-0.514-0.207s-0.68-0.208-0.68-0.208L17.651,1.832z M17.652,18.075
	l-5.241-6.814c1.906-0.1,5.131-0.277,5.861-0.365c0.47-0.057,1.129-0.277,1.694-0.575c0.156,1.271,0.83,1.392,0.83,3.125
	C20.796,15.037,17.501,15.879,17.652,18.075z"/>
</svg>
