<?xml version="1.0" encoding="iso-8859-1"?>
<!-- Generator: Adobe Illustrator 16.0.4, SVG Export Plug-In . SVG Version: 6.00 Build 0)  -->
<!DOCTYPE svg PUBLIC "-//W3C//DTD SVG 1.1//EN" "http://www.w3.org/Graphics/SVG/1.1/DTD/svg11.dtd">
<svg version="1.1" id="Layer_1" xmlns="http://www.w3.org/2000/svg" xmlns:xlink="http://www.w3.org/1999/xlink" x="0px" y="0px"
	 width="31.719px" height="31.719px" viewBox="0 0 31.719 31.719" style="enable-background:new 0 0 31.719 31.719;"
	 xml:space="preserve">
<path d="M31.719,15.348l-2.341-1.193v0.907h-0.91C28.41,3.286,15.143,2.354,15.143,2.354L13.549,0l-1.092,0.537l2.092,3.015
	L11.317,8.78c-0.148-0.015-0.293-0.039-0.446-0.039c-2.252,0-4.078,1.63-4.078,3.641c0,1.14,0.599,2.145,1.517,2.812
	C7.332,15.572,0,18.543,0,18.543v2.062l4.638,0.683c0,0,1.524,4.044,1.047,6.002s-4.302,2.732-4.302,2.732l0.002,1.423
	c0,0,8.312,0,9.458,0s2.209-2.59,1.146-5.016c0.321-0.609,0.638-1.292,0.952-1.983l1.788,3.142
	c-0.597,0.821-1.833,2.521-1.833,2.521l0.765,1.146l1.672-2.483c0,0,12.753-0.812,13.136-13.135h0.908v0.906L31.719,15.348z
	 M15.503,3.644c2.647,0.252,10.083,1.823,10.833,11.418L13.559,15.1c0.846-0.667,1.39-1.632,1.39-2.719
	c0-1.587-1.145-2.923-2.731-3.421L15.503,3.644z M15.595,26.855l-2.083-3.694c0.757-1.613,0.813-3.265,0.813-3.265l10.944-1.35
	c0,0,0.272,0.308,0.907,0.382C24.742,26.708,16.711,27.205,15.595,26.855z M23.932,17.544l-11.505-0.739l-0.168-1.014
	c0.049-0.018,0.103-0.024,0.151-0.042l13.964-0.114c0.017,0.348,0.024,0.688,0.021,1.015C25.468,16.882,23.932,17.544,23.932,17.544
	z"/>
</svg>
