<?xml version="1.0" encoding="iso-8859-1"?>
<!-- Generator: Adobe Illustrator 16.0.4, SVG Export Plug-In . SVG Version: 6.00 Build 0)  -->
<!DOCTYPE svg PUBLIC "-//W3C//DTD SVG 1.1//EN" "http://www.w3.org/Graphics/SVG/1.1/DTD/svg11.dtd">
<svg version="1.1" id="Layer_1" xmlns="http://www.w3.org/2000/svg" xmlns:xlink="http://www.w3.org/1999/xlink" x="0px" y="0px"
	 width="43.918px" height="43.918px" viewBox="-11.92 -11.919 43.918 43.918"
	 style="enable-background:new -11.92 -11.919 43.918 43.918;" xml:space="preserve">
<g>
	<path d="M18.271,22.876c-0.648-0.173-2.002-0.513-2.367-0.604c-0.364-0.095-0.793-2.078-0.793-2.078l-0.217-1.068
		c0,0,1.605,0.809,2.123,1.068c0.516,0.26,1.271-1.235,1.471-1.43c0.199-0.193,0.852,0.312,0.953,0
		c0.101-0.313-0.605-1.17-1.125-0.996c-0.521,0.174-1.039,1.039-1.604,0.996c-0.562-0.043-1.645-0.996-1.645-0.996l-0.435-1.861
		c0,0,0.996,0.953,1.646,1.039c0.65,0.087,1.56-1.212,1.775-1.991c0.217-0.779,0.389-2.284-0.347-2.251
		c0.173,1.082-0.75,3.03-1.212,2.9c-0.463-0.13-3.555-2.378-4.117-2.294c1.689-0.949,1-2.729,1-2.729s2.178,0.823,2.9,1.039
		c0.723,0.217,1.281-0.921,1.281-0.921s0.521,0.017,1.187-0.638c4.112-5.715-2.511-10.088-3.595-9.698
		c4.07,3.767,2.469,6.191,2.469,6.191s-0.909-0.217-0.865-0.736c0.043-0.52-0.341,0.141-1.861,0.996
		c-1.521,0.855,1.299,3.767,1.299,3.767s-1.256-0.276-1.965-0.735c-0.57-0.261-0.5-0.25-1.369-0.52c0,0-0.283-2.536-1.215-2.407
		c0.195,0.65,0.448,2.216-0.396,2.281c-1.45,0.021-0.958-1.75-0.417-2.313C9.754,6.497,9.27,8.559,9.395,9.075
		C9.051,9.28,8.516,9.426,7.967,9.744c-0.548,0.317-1.75,0.491-1.75,0.491s2.82-2.911,1.299-3.767
		C5.994,5.612,5.611,4.953,5.654,5.472S4.788,6.208,4.788,6.208s-1.602-2.424,2.468-6.19C6.174-0.373-0.888,5.97,3.663,9.715
		c0.579,0.304,0.638,0.375,0.839,0.462c0.407,0.043,0.308,1.185,1.464,1.229c1.157,0.043,3.065-1.171,3.065-1.171
		s-0.779,2.121,0.909,3.07c-0.563-0.083-3.563,1.821-4.026,1.951s-1.386-1.818-1.212-2.9c-0.735-0.033-0.563,1.472-0.347,2.251
		S5.481,16.686,6.13,16.6c0.649-0.088,1.645-1.04,1.645-1.04l-0.433,1.861c0,0-1.082,0.953-1.646,0.996
		c-0.563,0.043-1.082-0.823-1.602-0.996c-0.52-0.173-1.154,0.589-1.124,0.996c0.03,0.407,0.753-0.192,0.953,0
		c0.199,0.192,0.955,1.688,1.472,1.429c0.516-0.26,2.121-1.068,2.121-1.068L7.3,19.846c0,0-0.429,1.984-0.793,2.078
		c-0.365,0.094-1.719,0.434-2.368,0.605c-0.649,0.174-1.05,0.595-0.907,0.861c0.143,0.268,0.432-0.168,1.384,0.221
		c0.952,0.39,2.338-0.346,2.685-0.908c0.346-0.562,0.452-1.08,0.452-1.08s0.754,2.352,1.844,3.434
		c0.251,0.344,1.077,4.719-1.131,4.805c-0.779,0-2.663-1.529-2.836-2.741c-0.174-1.212-3.248-3.681-3.248-3.681l-0.908,0.692
		c0,0,2.795,2.495,3.03,3.589c0.235,1.092,0.478,3.295,3.962,4.204c3.484,0.909,4.641-6.852,4.641-6.852h-0.002
		c0.933-1.165,1.555-3.104,1.555-3.104s0.105,0.518,0.453,1.081c0.347,0.563,1.73,1.3,2.685,0.909
		c0.952-0.391,1.46,0.488,1.646,0.26C19.627,23.991,18.92,23.05,18.271,22.876z"/>
	<path d="M16.356,5.5c0,0-1.549-2.236-1.463-4.401c-1.818,0.909-0.397,5.57-0.397,5.57L16.356,5.5z"/>
	<path d="M7.988,6.294c0,0,1.342-4.286-0.477-5.195c0.087,2.165-1.386,4.026-1.386,4.026L7.988,6.294z"/>
	<path d="M2.15,23.288c0.331-0.281,0.274-1.039,0-1.276C1.875,21.773,1.124,21.1,0,20.475c0.325,0.758,0.043,1.797,0.238,2.488
		c0.194,0.691,0.888,0.996,1.234,0.801C1.818,23.57,1.818,23.57,2.15,23.288z"/>
</g>
</svg>
