<?xml version="1.0" encoding="iso-8859-1"?>
<!-- Generator: Adobe Illustrator 16.0.4, SVG Export Plug-In . SVG Version: 6.00 Build 0)  -->
<!DOCTYPE svg PUBLIC "-//W3C//DTD SVG 1.1//EN" "http://www.w3.org/Graphics/SVG/1.1/DTD/svg11.dtd">
<svg version="1.1" id="Layer_1" xmlns="http://www.w3.org/2000/svg" xmlns:xlink="http://www.w3.org/1999/xlink" x="0px" y="0px"
	 width="46.049px" height="46.049px" viewBox="-14.049 -14.049 46.049 46.049"
	 style="enable-background:new -14.049 -14.049 46.049 46.049;" xml:space="preserve">
<g>
	<path d="M5.725,15.685c0.036-1.069-0.497-2.093-1.641-2.158C2.054,13.588,0.079,16.686,0,17.354
		c0.143,0.099,3.164-2.848,3.729-2.84C4.294,14.519,5.253,14.869,5.725,15.685z"/>
	<path d="M4.177,17.247c0.586,0.013,1.821,1.796,1.727,1.291c-0.096-0.504-0.3-2.52-1.725-2.375
		c-1.426,0.146-3.228,3.517-3.158,4.121C1.308,20.15,3.591,17.234,4.177,17.247z"/>
	<path d="M4.221,19.702c-1.178,0.149-2.492,2.61-2.302,3.214c0.329-0.225,1.938-2.293,2.789-2.34s1.851,0.96,1.824,0.602
		C6.507,20.818,5.399,19.552,4.221,19.702z"/>
	<path d="M12.228,15.684c0.472-0.815,1.431-1.166,1.994-1.172c0.565-0.006,3.588,2.938,3.729,2.841
		c-0.079-0.67-2.054-3.767-4.084-3.828C12.724,13.591,12.19,14.614,12.228,15.684z"/>
	<path d="M13.614,16.162c-1.426-0.145-1.631,1.871-1.725,2.375c-0.097,0.505,1.141-1.278,1.727-1.291
		c0.586-0.014,2.867,2.904,3.156,3.037C16.842,19.678,15.039,16.308,13.614,16.162z"/>
	<path d="M13.388,19.701c-1.178-0.15-2.285,1.117-2.311,1.476c-0.026,0.358,0.973-0.647,1.824-0.602
		c0.851,0.046,2.459,2.114,2.789,2.34C15.881,22.312,14.565,19.852,13.388,19.701z"/>
	<path d="M5.958,11.261c0,0,0.448-0.92,0.718-1.174c-0.951-0.444-1.47-1.786-1.47-1.786S9.05,4.958,6.098,2.34
		c0.404,1.863-0.571,3.18-1.446,2.941C3.776,5.044,3.536,0.572,5.253,0C0.489,0,2.368,5.883,2.918,7.011
		C3.467,8.139,5.958,11.261,5.958,11.261z"/>
	<path d="M12.47,8.301c0,0-0.519,1.342-1.471,1.786c0.271,0.254,0.719,1.174,0.719,1.174s2.491-3.122,3.04-4.25
		C15.308,5.883,17.187,0,12.423,0c1.717,0.572,1.477,5.044,0.602,5.281c-0.875,0.238-1.851-1.078-1.445-2.941
		C8.626,4.958,12.47,8.301,12.47,8.301z"/>
	<path d="M11.435,30.879c-0.461-0.033-1.268-1.275-1.334-2.693c-0.065-1.42-0.336-5.435,0.318-7.713c0,0,1.155-5.361,1.072-6.419
		c-1.086-1.216-1.086-1.216-1.086-1.216s1.113,0.285,1.09-0.736s-1.016-2.328-1.898-2.31c0.141-0.224,1.478-1.698,0-2.005
		c0.391,0.863-0.445,1.727-0.808,1.671c-0.363-0.056-0.863-0.725-1.03-1.671c-1.114,0.641,0.066,1.579,0.307,1.81
		c-0.947,0.177-1.925,1.597-1.82,2.357c0.104,0.762,1.288,0.805,1.288,0.805s-0.35,0.405-1.288,1.23
		c0.057,0.725,0.831,5.217,0.964,6.2c0.001,0.006,0.005,0.012,0.006,0.018c1.38,8.863,2.713,10.791,3.506,11.469
		c1.094,0.947,4.297-0.226,1.648-2.811C12.744,29.988,12.242,30.925,11.435,30.879z"/>
</g>
</svg>
