<?xml version="1.0" encoding="iso-8859-1"?>
<!-- Generator: Adobe Illustrator 16.0.4, SVG Export Plug-In . SVG Version: 6.00 Build 0)  -->
<!DOCTYPE svg PUBLIC "-//W3C//DTD SVG 1.1//EN" "http://www.w3.org/Graphics/SVG/1.1/DTD/svg11.dtd">
<svg version="1.1" id="Layer_1" xmlns="http://www.w3.org/2000/svg" xmlns:xlink="http://www.w3.org/1999/xlink" x="0px" y="0px"
	 width="43.765px" height="43.765px" viewBox="-11.41 -11.41 43.765 43.765"
	 style="enable-background:new -11.41 -11.41 43.765 43.765;" xml:space="preserve">
<path d="M10.029,22.583c-3.278,1.448,2.896,5.385,1.062,7.76c-1.521-1.745-2.406-1.465-2.406-1.465s-1.094,2.438,1.375,3.401
	c-1.503,0.372-4.688-0.562-3.307-4.7c-1.597-2.859,3.403-6.986,3.403-6.986s-6.785,3.125-9.566-0.938
	c2.977,1.951,8.304-0.379,8.304-0.379l-0.676-1.197c0,0-7.402,3.093-8.219-2.079c2.499,3.043,7.665,0.983,7.665,0.983l-0.552-1.319
	c0,0-7.418,2.128-7.084-3.478c2.079,4.307,6.267,1.918,6.267,1.918S1.265,3.201,7.686,0.603c6.421-2.598,5.675,4.039,5.675,4.039
	s1.084,0.755,1.319,2.215c0.234,1.46-1.135,2.251-0.663,3.339c-1.123-2.262-1.46-1.705-2.029-3.018
	c-0.569-1.312,0.297-2.203,0.297-2.203s-0.68-4.862-4.354-2.004s1.604,9.394,1.604,9.394s2.429-1.429,1.71-5.422
	c2.26,3.474-0.594,6.979-0.594,6.979l0.619,0.966c0,0,2.98-2.117,2.09-4.827c3.229,1.745-1.274,6.124-1.274,6.124l0.556,1.23
	c0,0,3.441-0.81,3.479-4.446c2.338,3.229-3.576,6.186-3.354,6.594c2.672-1.002,5.808,0.744,5.733,2.095
	c2.031-0.031,3.965,4.655,0.68,5.6c0.668-2.821-1.439-3.5-1.439-3.5s-0.681,1.306,0.132,2.868c-4.497,0.03,0.309-6.28-4.059-5.97
	c-0.306,0.127,0.655,1.906-0.168,2.407c0.421,0.224,1.165,1.733-0.022,2.266c0.344-0.578-0.22-1.896-1.038-1.703
	c-0.817,0.192,0.028,1.75,0.647,1.812c-0.229,0.609-2.109-0.062-1.984-1.625C10.59,23.682,10.527,22.426,10.029,22.583z"/>
</svg>
