<?xml version="1.0" encoding="iso-8859-1"?>
<!-- Generator: Adobe Illustrator 16.0.4, SVG Export Plug-In . SVG Version: 6.00 Build 0)  -->
<!DOCTYPE svg PUBLIC "-//W3C//DTD SVG 1.1//EN" "http://www.w3.org/Graphics/SVG/1.1/DTD/svg11.dtd">
<svg version="1.1" id="Layer_1" xmlns="http://www.w3.org/2000/svg" xmlns:xlink="http://www.w3.org/1999/xlink" x="0px" y="0px"
	 width="35.323px" height="35.324px" viewBox="-3.307 -3.306 35.323 35.324"
	 style="enable-background:new -3.307 -3.306 35.323 35.324;" xml:space="preserve">
<path d="M24.569,19.172c-0.598,0.35-1.875,0.195-2.546,0.082c-0.677-2.231-3.085-4.379-6.349-5.369
	c-2.809-0.853-5.566-0.64-7.432,0.38c-0.777-0.737-2.298-1.653-4.521-0.654c0.928-0.537,2.344-2.831-0.732-3.905
	c1.563-0.684,2.393-2.783,1.27-4.541c0.829-0.097,1.184-1.271,1.184-1.271s2.186,2.98,4.968,1.076
	C7.774,4.479,7.53,3.845,7.53,3.845s3.661-1.318,10.596-0.862C12.509-3.69,5.113,2.919,5.113,2.919S2.926,1.891,3.004,4.563
	C2.458,4.45-0.791,6.384,1.192,9.734c-1.875,0.422-1.391,4.844,0.43,4.785c-0.305,2.559,3.112,3.633,4.339,3.88
	c0.089,0.643,0.334,1.285,0.704,1.907c-0.092,0.014-0.183,0.023-0.276,0.045c-1.901,0.403-4.201,2.079-4.759,4.8
	c-0.043,0.212,0.093,0.418,0.305,0.461c0.211,0.043,0.418-0.093,0.461-0.304c0.486-2.377,2.495-3.841,4.155-4.193
	c0.216-0.046,0.42-0.07,0.614-0.079c0.381,0.485,0.843,0.948,1.372,1.377c-1.35,0.264-3.282,1.158-4.406,4.7
	c-0.065,0.206,0.048,0.426,0.254,0.491c0.039,0.013,0.079,0.018,0.118,0.018c0.165,0,0.319-0.104,0.372-0.271
	c1.24-3.907,3.444-4.182,4.581-4.27c0.881,0.565,1.896,1.039,3.01,1.377c0.438,0.133,0.873,0.232,1.306,0.314
	c-0.864,1.318-1.093,3.589-0.513,5.501c0.063,0.206,0.28,0.323,0.487,0.261c0.207-0.062,0.323-0.28,0.261-0.487
	c-0.552-1.815-0.289-4.053,0.598-5.092c0.016-0.019,0.033-0.029,0.049-0.047c0.646,0.074,1.274,0.096,1.878,0.062
	c0.08,0.117,0.157,0.255,0.229,0.41c0.825,1.793,0.665,5.166,0.108,6.033c-0.117,0.183-0.064,0.423,0.116,0.539
	c0.065,0.043,0.138,0.063,0.211,0.063c0.128,0,0.255-0.063,0.328-0.181c0.739-1.146,0.835-4.85-0.055-6.78
	c-0.029-0.063-0.062-0.115-0.091-0.174c0.154-0.021,0.309-0.046,0.457-0.075c0.697,0.935,2.203,2.696,3.6,2.639
	c1.566,2.81,4.021,1.901,4.223,1.31c-1.01-0.561-1.59-1.711-1.59-1.711s0.945-1.495,2.363-1.235
	c-0.168-1.197-2.641-2.172-4.566,0.787c-0.934,0.401-2.306-0.993-3.15-2.017c1.668-0.531,2.912-1.561,3.345-2.982
	c0.155-0.512,0.188-1.039,0.126-1.569c0.675,0.022,1.74,0.061,2.188,0.077c-0.342,3.516,2.197,4.297,3.076,3.467
	c-1.27-0.684-1.074-2.441-1.074-2.441s1.172-0.537,2.312-0.345C28.898,20.196,27.547,17.955,24.569,19.172z"/>
</svg>
