<?xml version="1.0" encoding="iso-8859-1"?>
<!-- Generator: Adobe Illustrator 16.0.4, SVG Export Plug-In . SVG Version: 6.00 Build 0)  -->
<!DOCTYPE svg PUBLIC "-//W3C//DTD SVG 1.1//EN" "http://www.w3.org/Graphics/SVG/1.1/DTD/svg11.dtd">
<svg version="1.1" id="Layer_1" xmlns="http://www.w3.org/2000/svg" xmlns:xlink="http://www.w3.org/1999/xlink" x="0px" y="0px"
	 width="32px" height="32px" viewBox="0 0 32 32" style="enable-background:new 0 0 32 32;" xml:space="preserve">
<path d="M17.479,13.139c6.018-7.785,12.054,2.011,12.994,1.41c0.939-0.602-0.15-8.914-7.41-8.764
	c-7.257,0.15-9.364,8.764-9.364,8.764l-2.482,0.301c0,0,0.79-2.934,1.467-3.009c-0.802-0.526-1.01-0.276-1.467-0.113
	c-0.765,0.238-2.069,3.122-2.069,3.122H7.681c0,0,0.289-1.831,1.166-2.52c-0.197-0.386-0.724-0.387-1.166-0.302
	c-1.091,0.238-1.617,2.797-2.407,3.236c-1.642,1.189-4.877-3.773,1.204-5.004C13.486,8.806,18.1,6.525,14.15,1.535
	c-3.398-4.287-10.519,1.404-9.102,4.89c0.489,0.401,5.955-4.338,6.206-1.053c0.301,1.931-7.221,3.034-8.65,4.476
	c-6.87,4.701,2.031,9.439,2.031,9.439s0.809,3.705,2.67,4.363c0.499,0.064,0.837-0.32,1.128-0.414
	c-1.74-1.937-1.523-3.207-1.354-3.31c0.169-0.104,1.862,0.291,2.068,0.489c0.207,0.197,0.179,2.087,2.069,3.234
	c0.385,0.188,1.279,0.188,1.392,0c-1.082-1.553-0.894-2.567-0.79-2.709s2.975-0.099,3.046,0.113
	c0.071,0.211,1.994,6.995,10.681,5.303s6.305-9.892,5.691-9.778c-0.614,0.112-1.78,6.056-6.625,6.657
	c-2.745,0.264-5.647-2.766-5.836-3.065c-0.188-0.301,4.646,0.292,4.231-2.588c0.304-0.797,2.745-0.983,2.595-1.474
	c-0.149-0.49-2.802,0.104-2.764-1.063C22.536,10.685,16.876,14.041,17.479,13.139z"/>
</svg>
