<?xml version="1.0" encoding="iso-8859-1"?>
<!-- Generator: Adobe Illustrator 16.0.4, SVG Export Plug-In . SVG Version: 6.00 Build 0)  -->
<!DOCTYPE svg PUBLIC "-//W3C//DTD SVG 1.1//EN" "http://www.w3.org/Graphics/SVG/1.1/DTD/svg11.dtd">
<svg version="1.1" id="Layer_1" xmlns="http://www.w3.org/2000/svg" xmlns:xlink="http://www.w3.org/1999/xlink" x="0px" y="0px"
	 width="30.715px" height="30.715px" viewBox="-0.528 -0.529 30.715 30.715"
	 style="enable-background:new -0.528 -0.529 30.715 30.715;" xml:space="preserve">
<path d="M29.196,0.004c0,0-6.076,12.384-9.729,9.904c-1.083-0.697-2.304-0.947-4.64-0.928C12.492,9.001,12.5,9.266,9.872,9.905
	C4.526,11.169,0.145,0,0.145,0s-1.837,14.638,7.583,16.105c0.393-0.125-0.797,2.238,0.643,4.531c1.44,2.292,2.531,2.435,2.354,4.286
	c0.052,1.137,1.088,4.937,3.881,5.26c0.022-0.017,0.107-0.011,0.131,0.004c2.793-0.322,4.04-4.269,3.881-5.261
	c-0.178-1.852,0.969-1.903,2.408-4.195c1.439-2.293,0.082-4.116,0.589-4.621C32.464,14.044,29.196,0.004,29.196,0.004z
	 M11.989,19.814c-0.372-0.199-2.909-1.827-2.381-2.443c0.528-0.617,3.192,1.411,3.39,1.646
	C13.193,19.251,12.36,20.016,11.989,19.814z M13.965,29.419c-0.439-0.029-0.967-0.998-0.683-1.438c0.284-0.44,0.676-0.323,0.676,0
	S14.406,29.449,13.965,29.419z M15.377,29.423c-0.441,0.029,0.007-1.116,0.007-1.439c0-0.322,0.393-0.439,0.676,0
	C16.344,28.425,15.815,29.394,15.377,29.423z M17.353,19.818c-0.371,0.201-1.203-0.562-1.009-0.799
	c0.197-0.234,2.861-2.263,3.39-1.646C20.263,17.99,17.726,19.617,17.353,19.818z"/>
</svg>
