<?xml version="1.0" encoding="iso-8859-1"?>
<!-- Generator: Adobe Illustrator 16.0.4, SVG Export Plug-In . SVG Version: 6.00 Build 0)  -->
<!DOCTYPE svg PUBLIC "-//W3C//DTD SVG 1.1//EN" "http://www.w3.org/Graphics/SVG/1.1/DTD/svg11.dtd">
<svg version="1.1" id="Layer_1" xmlns="http://www.w3.org/2000/svg" xmlns:xlink="http://www.w3.org/1999/xlink" x="0px" y="0px"
	 width="31.995px" height="31.995px" viewBox="0 0 31.995 31.995" style="enable-background:new 0 0 31.995 31.995;"
	 xml:space="preserve">
<path d="M12.481,8.887c-0.609-0.554-3.646-3.475-6.007-3.99C5.746,3.138,4.888,3.095,4.888,3.095s1.373-3.26-4.032-3.089
	c3.369,1.634,2.697,2.041,2.23,3.175C1.162,3.688,2.029,6.22,1.627,6.699C1.226,7.178-0.26,7.686,0.04,8.586
	c0.301,0.9,3.432,1.244,3.947,1.459c1.973,0.771,0.771,3.989,1.415,5.189c0.644,1.201,0.901,3.99,0.901,3.99
	s-0.688,2.147-0.761,2.794c-0.131,0.854,0.008,1.441-0.1,2.042c-0.417,0.499-0.766,1.267-0.766,1.267l1.969,0.032
	c0,0,0.188-0.882,0-1.286c0.043-0.473,1.051-4.312,1.854-4.227c0.397-0.129,1.02,4.312,0.462,4.312
	c-0.67,0.215-0.729,1.328-0.729,1.328l1.771,0.027c0,0-0.057-0.885,0.297-0.953c0.258-0.516,0.136-2.131,0.119-2.333
	s-0.215-2.617-0.215-2.617s2.231-1.587,2.917-1.372c2.961,0.729,8.173-0.986,8.666-1.329c-0.289,0.1,1.072,2.917,1.029,3.389
	s-1.32,2.635-1.553,3.183c-0.715,0.395-0.25,1.193-0.25,1.193l1.598,0.044c0,0,0.019-0.899,0.291-0.903
	c0.271-0.004,0.518-1.762,0.857-2.315c0.34-0.555,1.631-2.503,1.029-2.731c-0.602-0.228,3.261,4.104,3.561,4.619
	c0.172,0.293,0.064,1.33-0.061,2.164c-0.438,0.262-0.196,1.139-0.196,1.139h1.244c0,0,0.077-0.794,0.325-0.893
	c0.064-0.177,0.189-0.522,0.189-0.522s-0.104-3.712-2.146-5.878c0.857-2.702-0.473-7.335-0.473-7.335s1.674,0.814,1.459,1.501
	c-0.215,1.889,1.287,1.401,1.158,3.305c-0.301,1.544,1.416,2.102,2.146,2.572c0-0.686-0.3-1.973-1.315-2.444
	c0.157-2.188-1.13-2.745-1.087-3.476c0.13-3.604-2.002-2.814-3.174-3.132C25.352,9.66,16.17,10.174,16.17,10.174
	S13.522,9.4,12.481,8.887"/>
</svg>
