<?xml version="1.0" encoding="iso-8859-1"?>
<!-- Generator: Adobe Illustrator 16.0.4, SVG Export Plug-In . SVG Version: 6.00 Build 0)  -->
<!DOCTYPE svg PUBLIC "-//W3C//DTD SVG 1.1//EN" "http://www.w3.org/Graphics/SVG/1.1/DTD/svg11.dtd">
<svg version="1.1" id="Layer_1" xmlns="http://www.w3.org/2000/svg" xmlns:xlink="http://www.w3.org/1999/xlink" x="0px" y="0px"
	 width="27.504px" height="27.504px" viewBox="0 0 27.504 27.504" style="enable-background:new 0 0 27.504 27.504;"
	 xml:space="preserve">
<path d="M23.872,10.25c0,0,7.625-5.25,0.781-10.25c0.234,0.893,0.336,1.68,0.344,2.382c0.666,0.267,1.379,0.748,1.438,1.6
	c-0.49-0.583-1.008-0.931-1.46-1.14c-0.024,0.446-0.088,0.855-0.19,1.226c0.575,0.29,1.115,0.755,1.157,1.495
	c-0.428-0.521-0.876-0.848-1.288-1.066c-0.131,0.354-0.297,0.666-0.484,0.95c0.42,0.358,0.746,0.84,0.69,1.464
	c-0.294-0.487-0.622-0.837-0.942-1.104c-0.238,0.294-0.502,0.542-0.779,0.759c0.328,0.499,0.533,1.108,0.255,1.731
	C23.258,7.674,23.028,7.2,22.78,6.825c-0.404,0.268-0.816,0.468-1.205,0.616c0.194,0.635,0.24,1.382-0.295,1.935
	c0.102-0.725,0.023-1.32-0.115-1.789c-0.771,0.241-1.355,0.288-1.355,0.288s-2.436-1.169-6.057-1.169
	c-3.621,0-6.057,1.169-6.057,1.169S7.11,7.828,6.339,7.587C6.201,8.056,6.123,8.651,6.224,9.376c-0.535-0.553-0.49-1.3-0.295-1.935
	c-0.389-0.148-0.8-0.349-1.205-0.616C4.476,7.2,4.246,7.674,4.112,8.297C3.834,7.674,4.039,7.064,4.367,6.565
	C4.091,6.349,3.826,6.101,3.588,5.807C3.267,6.073,2.939,6.423,2.646,6.91C2.59,6.286,2.917,5.804,3.337,5.446
	C3.149,5.163,2.983,4.85,2.852,4.497C2.44,4.715,1.992,5.042,1.564,5.563c0.042-0.74,0.582-1.205,1.157-1.495
	c-0.102-0.371-0.166-0.779-0.19-1.226C2.077,3.051,1.56,3.399,1.07,3.982c0.058-0.853,0.772-1.333,1.438-1.6
	C2.516,1.68,2.617,0.893,2.852,0c-6.844,5,0.781,10.25,0.781,10.25s-3.219-0.094-2.438,1.188c0.781,1.283,3,2.406,4,2.469
	s2.281-0.845,2.281-0.845s0.344,4.75,2.563,6.063C9.445,19.25,9.258,19.5,9.273,19.969s0.236,1.34,0.438,1.359
	c0.391-0.75,2.094,0.688,0.969,1.219c0.712,1.176,2.245,1.383,2.909,1.415c0,0.001,0.002,0.007,0.002,0.007s0.067,0.002,0.162-0.001
	c0.094,0.003,0.162,0.001,0.162,0.001s0.002-0.006,0.002-0.007c0.664-0.032,2.197-0.239,2.91-1.415
	c-1.125-0.531,0.577-1.969,0.969-1.219c0.201-0.021,0.422-0.891,0.438-1.359c0.016-0.468-0.172-0.719-0.766-0.844
	c2.219-1.312,2.562-6.062,2.562-6.062s1.281,0.905,2.281,0.844c1-0.062,3.219-1.188,4-2.469S23.872,10.25,23.872,10.25z
	 M9.414,16.357c-0.703,0.328-1.438-1.201-1.531-2.092c-0.093-0.892,0.344-1.031,0.531-1.234S10.117,16.029,9.414,16.357z
	 M19.622,14.266c-0.094,0.892-0.828,2.422-1.531,2.094c-0.702-0.328,0.813-3.53,1-3.327C19.278,13.234,19.715,13.375,19.622,14.266z
	"/>
</svg>
