<?xml version="1.0" encoding="iso-8859-1"?>
<!-- Generator: Adobe Illustrator 16.0.4, SVG Export Plug-In . SVG Version: 6.00 Build 0)  -->
<!DOCTYPE svg PUBLIC "-//W3C//DTD SVG 1.1//EN" "http://www.w3.org/Graphics/SVG/1.1/DTD/svg11.dtd">
<svg version="1.1" id="Layer_1" xmlns="http://www.w3.org/2000/svg" xmlns:xlink="http://www.w3.org/1999/xlink" x="0px" y="0px"
	 width="45.698px" height="45.699px" viewBox="-13.682 -13.683 45.698 45.699"
	 style="enable-background:new -13.682 -13.683 45.698 45.699;" xml:space="preserve">
<path d="M11.85,13.282c-0.775-0.371-1.127-0.752-0.785-1.202c0.344-0.449,0.355-2.181-0.016-1.736
	c-0.37,0.445-0.375,0.25-0.969,0.656s-2.192-0.191-3.75,2.219s-0.495,5.573-1.978,5.463c-0.778-0.186-0.296-8.307,6.341-8.715
	c1.633-0.778,4.418-3.623,3.783-5.153c-0.294-1.524-2.818,1.779-2.707,0.853c0.111-0.928,2.736-2.073,2.59-2.851
	c-0.148-0.779-0.773-0.896-1.402-0.746c-0.631,0.148,0.592,0.745-0.459,1.08c-0.48,0.11-0.121-0.169-0.506-0.709
	c-0.385-0.541-2.669,0.815-2.669,0.815S9.969,0,8.299,0c0.623,3.982-5.504,4.664-5.504,4.664S1.79,2.252,3.831,0.625
	c-3.152-0.11-2.852,4.559-2.852,4.559s-1.112-0.149-0.965,0.778C0.162,6.889,1.794,7.89,2.35,7.778
	C-1.098,13.489,0.83,22.24,0.83,22.24s2.521,5.748,2.67,9.085c0.297,2.151,3.561-1.409,3.561-1.409l1-1.668
	c0,0,10.121-5.605,10.27-9.092C18.479,15.671,12.625,13.652,11.85,13.282z M8.506,3.996c0.501-0.111,0.945,0,0.668,0.334
	C8.896,4.664,6.879,5.771,6.879,5.771S8.006,4.107,8.506,3.996z"/>
</svg>
