<?xml version="1.0" encoding="iso-8859-1"?>
<!-- Generator: Adobe Illustrator 16.0.4, SVG Export Plug-In . SVG Version: 6.00 Build 0)  -->
<!DOCTYPE svg PUBLIC "-//W3C//DTD SVG 1.1//EN" "http://www.w3.org/Graphics/SVG/1.1/DTD/svg11.dtd">
<svg version="1.1" id="Layer_1" xmlns="http://www.w3.org/2000/svg" xmlns:xlink="http://www.w3.org/1999/xlink" x="0px" y="0px"
	 width="32.025px" height="32.025px" viewBox="0 0 32.025 32.025" style="enable-background:new 0 0 32.025 32.025;"
	 xml:space="preserve">
<path d="M0.328,19.383h20.479c0.078-0.971,0.084-1.092,0.063-1.213c0,0,0.128-1.58,1.84-3.742c0.364,0.146,3.336,0.564,4.247,1.736
	c0.833,1.002,3.308-1.271,3.289-2.306c-0.02-1.034-1.529-1.567-1.66-2.539c-0.238-1.765,0.098-2.715-0.508-3.985
	s-1.466-1.25-1.699-1.387c0.117-2.031,1.558-4.421,5.646-3.558c-4.694-4.105-8.739,0.83-8.499,3.772
	c-0.71-2.2,0.332-5.41,3.927-5.817c-5.156-1.445-7.149,1.833-6.817,6.267c0,1.915-6.346,6.194-13.237,5.082
	C-1.735,9.939,0.039,16.825,0.328,19.383z M25.05,9.213c0-0.523,0.404-0.742,1.071-0.742s1.186,0.315,1.186,0.839
	s-0.562,0.786-1.229,0.786C25.412,10.096,25.05,9.736,25.05,9.213z"/>
</svg>
