<?xml version="1.0" encoding="iso-8859-1"?>
<!-- Generator: Adobe Illustrator 16.0.4, SVG Export Plug-In . SVG Version: 6.00 Build 0)  -->
<!DOCTYPE svg PUBLIC "-//W3C//DTD SVG 1.1//EN" "http://www.w3.org/Graphics/SVG/1.1/DTD/svg11.dtd">
<svg version="1.1" id="Layer_1" xmlns="http://www.w3.org/2000/svg" xmlns:xlink="http://www.w3.org/1999/xlink" x="0px" y="0px"
	 width="39.02px" height="39.019px" viewBox="-7.02 -7.02 39.02 39.019" style="enable-background:new -7.02 -7.02 39.02 39.019;"
	 xml:space="preserve">
<path d="M21.546,0c1.297,7.964-1.514,7.64-1.514,7.64l-7.481-0.283V7.352L12.49,7.354l-0.062-0.002v0.005L4.947,7.64
	c0,0-2.811,0.324-1.514-7.64c-9.188,13.009,2.955,11.026,3.136,11.495c0.181,0.469-1.839,3.208-1.693,4.829
	c0.145,1.621,2.973,2.486,3.352,3.566c1.243,3.676-2.703,7.243,0.97,8.166c0.147,0.037,0.302,0.072,0.457,0.104
	c-0.046,0.216-0.07,0.438-0.07,0.667c0,1.748,1.422,3.171,3.171,3.171c1.748,0,3.171-1.423,3.171-3.171
	c0-0.271-0.037-0.532-0.102-0.783c3.602-0.938-0.309-4.492,0.931-8.154c0.379-1.08,3.207-1.945,3.352-3.566
	c0.146-1.621-1.874-4.36-1.693-4.829C18.591,11.026,30.734,13.009,21.546,0z M12.753,31.135c-1.271,0-2.308-1.033-2.308-2.306
	c0-0.177,0.024-0.349,0.063-0.513c0.85,0.129,1.631,0.193,1.92,0.216v0.008c0,0,0.024-0.001,0.062-0.004
	c0.035,0.003,0.061,0.004,0.061,0.004v-0.008c0.346-0.025,1.394-0.111,2.421-0.3c0.051,0.19,0.088,0.389,0.088,0.597
	C15.06,30.102,14.024,31.135,12.753,31.135z"/>
</svg>
