<?xml version="1.0" encoding="iso-8859-1"?>
<!-- Generator: Adobe Illustrator 16.0.4, SVG Export Plug-In . SVG Version: 6.00 Build 0)  -->
<!DOCTYPE svg PUBLIC "-//W3C//DTD SVG 1.1//EN" "http://www.w3.org/Graphics/SVG/1.1/DTD/svg11.dtd">
<svg version="1.1" id="Layer_1" xmlns="http://www.w3.org/2000/svg" xmlns:xlink="http://www.w3.org/1999/xlink" x="0px" y="0px"
	 width="31.598px" height="31.598px" viewBox="0 0 31.598 31.598" style="enable-background:new 0 0 31.598 31.598;"
	 xml:space="preserve">
<g>
	<path d="M20.808,18.089c4.438-3.492,4.438-3.492,2.644-6.795c-1.794-3.303-8.494-4.435-1.134-9.815
		C16.75-2.014,11.049,1.64,11.71,2.678c0.755,2.927-3.617,7.283-3.617,7.283s0.577,5.334,0.446,5.893
		c-0.131,0.558-1.417,6.106-2.171,8.561C5.614,26.867,9.2,26.68,9.483,28.189c0.283,1.509,8.494,1.226,8.307-0.474
		c0.094-3.114,6.087-7.854,6.795-7.833s-1.846,4.119-1.846,4.119l8.546,0.033V13.37C31.284,13.37,25.338,20.825,20.808,18.089z"/>
	<path d="M20.27,6.627c1.606,0.806,4.064,3.922,5.181,5.985c1.115,2.063-1.083,3.583-2.712,5.024
		c3.36,1.159,9.449-5.927,8.813-9.113c-0.543-3.75-7.938-6.798-8.554-6.314C22.382,2.693,19.575,4.55,20.27,6.627z"/>
	<path d="M7.989,8.731c0,0,3.25-3.979,2.781-6.042C4.612-1.841-6.278,15.588,4.693,14.648C2.641,10.278,7.989,8.731,7.989,8.731z"/>
</g>
</svg>
