<?xml version="1.0" encoding="iso-8859-1"?>
<!-- Generator: Adobe Illustrator 16.0.4, SVG Export Plug-In . SVG Version: 6.00 Build 0)  -->
<!DOCTYPE svg PUBLIC "-//W3C//DTD SVG 1.1//EN" "http://www.w3.org/Graphics/SVG/1.1/DTD/svg11.dtd">
<svg version="1.1" id="Layer_1" xmlns="http://www.w3.org/2000/svg" xmlns:xlink="http://www.w3.org/1999/xlink" x="0px" y="0px"
	 width="36.673px" height="36.674px" viewBox="-7.818 -7.817 36.673 36.674"
	 style="enable-background:new -7.818 -7.817 36.673 36.674;" xml:space="preserve">
<path d="M19.743,24.45c-1.549,0.125-2.135,0.417-3.885,0.292c-4.168-0.083-0.823-4.073-1.418-6.917
	c-0.594-2.844-0.101-5.168-0.277-8.08c-0.062-1.03-0.352-1.506-0.518-1.702c-0.043-0.158-0.112-0.319-0.228-0.471
	c0.399,0.41,0.522-0.137,0.522-0.137s-0.121,0.505,0.026,0.589s0.657,0.095,0.546,0.569c0.07,0.024,0.166,0.067,0.158-0.184
	c-0.004-0.125-0.087-0.313-0.166-0.487c0.842-0.08,0.534-0.763,0.534-0.763s0.931,0.127,0.208,0.668
	c1.046-0.494-0.196-0.882-0.196-0.882s0.321-0.099,0.509,0.11c0.03-0.282-0.401-0.251-0.569-0.355
	c-0.169-0.104-0.318-0.803-0.318-0.803s0.573,0.323,0.397,0.674c0.248-0.15,0.259-0.369,0.232-0.76
	c-0.023-0.392-0.402-0.317-0.416-0.473c-0.01-0.109,0.094-0.125,0.156-0.208c0,0.02,0.002,0.038,0.009,0.056
	c0.064,0.154,0.384,0.42,0.288,0.625c0.293-0.202-0.164-0.546-0.171-0.687c-0.009-0.14,0.312-0.288,0.317-0.515
	c0.008-0.228-0.627-0.353-0.644-0.508c-0.016-0.156,0.281-0.216,0.288-0.374c0.002-0.067-0.09-0.256-0.195-0.451
	c0.084,0.07,0.17,0.138,0.152,0.207c0.17-0.081-0.105-0.264-0.092-0.343c0.014-0.08,0.229-0.137,0.135-0.368
	c-0.094-0.232-0.74-0.594-0.74-0.594s0.197-0.058,0.416-0.037s0.438,0.164,0.264,0.403c0.244,0.075,0.203-0.451,0.062-0.532
	c-0.142-0.081-0.393-0.153-0.681-0.085c0.271-1.198-1.146-1.28-1.146-1.28s0.077-0.267-0.037-0.361
	c-0.115-0.095-0.888-0.192-1.268-0.275c-0.381-0.083-1.389,0.314-1.746,0.466c-0.359,0.149-0.74,0.818-0.993,0.813
	C9.01,1.287,8.706,1.375,8.622,1.874c0.057,0.178,0.12,0.326,0.177,0.44c-0.04,0.104-0.067,0.213-0.085,0.321
	C8.563,2.664,8.38,2.656,8.307,2.48c-0.044,0.275,0.205,0.306,0.39,0.292c-0.039,0.411,0.048,0.8,0.116,0.976
	c0.003,0.013,0.006,0.027,0.009,0.04C8.75,3.803,8.637,3.803,8.546,3.674C8.508,3.859,8.722,3.887,8.839,3.888
	C8.851,4.01,8.836,4.144,8.752,4.27C8.577,4.533,8.381,4.653,8.317,4.83C8.228,5.076,8.7,5.119,8.7,5.119l0.002,0.093
	c0,0-0.151,0.147-0.12,0.263C8.625,5.627,8.93,5.573,8.93,5.573s-0.292,0.108-0.28,0.25c0.015,0.143,0.137,0.205,0.137,0.205
	S8.504,6.584,8.921,6.707c0.416,0.123,1.262-0.386,1.372,0.208c0.068,0.265,0.21,0.771,0.393,1.153
	c0.338,1.476-1.942,2.569-2.161,3.726c-0.125,0.845,0.219,1.156,0.724,1.23c-1.096,2.596-4.112,0.399-4.442,0.27
	c-0.329-0.13-1.892-1.044-1.892-1.044c0-0.35-0.183-0.945-0.471-1.327V9.026c0-0.022,0.003-0.041,0.003-0.063
	c0.256,0.555,0.562,0.951,0.692,0.894C3.273,9.796,3.17,9.282,2.912,8.708C2.837,8.54,2.756,8.388,2.677,8.255
	c0.127,0.11,0.278,0.227,0.45,0.338C3.652,8.939,4.145,9.12,4.225,8.998c0.081-0.122-0.281-0.501-0.807-0.847
	C3.313,8.082,3.211,8.022,3.112,7.967c0.126,0.012,0.26,0.019,0.402,0.019c0.63,0,1.14-0.119,1.14-0.265
	c0-0.146-0.51-0.266-1.14-0.266c-0.164,0-0.319,0.008-0.46,0.023c0.088-0.048,0.179-0.101,0.271-0.16
	c0.531-0.337,0.898-0.711,0.82-0.835C4.066,6.36,3.573,6.533,3.041,6.872C3.008,6.894,2.977,6.917,2.944,6.938
	c0.02-0.034,0.04-0.066,0.061-0.103c0.314-0.545,0.468-1.046,0.341-1.12C3.22,5.645,2.861,6.027,2.547,6.573
	C2.51,6.637,2.476,6.701,2.442,6.764c0.004-0.071,0.005-0.145,0.005-0.22c0-0.629-0.118-1.14-0.265-1.14
	c-0.143,0-0.259,0.489-0.264,1.099c-0.255-0.553-0.561-0.952-0.69-0.893c-0.134,0.06-0.032,0.574,0.226,1.147
	c0.024,0.054,0.05,0.104,0.074,0.154C1.495,6.891,1.465,6.869,1.432,6.847C0.905,6.502,0.414,6.321,0.334,6.443
	C0.253,6.566,0.614,6.944,1.141,7.29c0.1,0.065,0.196,0.123,0.292,0.175C1.338,7.46,1.241,7.456,1.14,7.456
	C0.51,7.456,0,7.574,0,7.721c0,0.146,0.51,0.265,1.14,0.265c0.063,0,0.123-0.002,0.184-0.004C1.23,8.031,1.136,8.085,1.038,8.147
	C0.507,8.485,0.141,8.86,0.219,8.983c0.078,0.124,0.572-0.051,1.104-0.388C1.357,8.573,1.389,8.55,1.422,8.528
	C1.4,8.563,1.38,8.595,1.359,8.63C1.045,9.175,0.894,9.676,1.02,9.75c0.127,0.073,0.484-0.31,0.799-0.854
	C1.855,8.83,1.891,8.766,1.923,8.703C1.92,8.774,1.918,8.847,1.918,8.921c0,0.359,0.041,0.666,0.102,0.875V10.6
	c-0.043-0.013-0.085-0.03-0.13-0.03c-0.446,0-0.303,0.193-0.334,0.662c-0.031,0.469-0.313,1.812,0.688,2.281
	c1.864,0.764,4.088,3.519,6.866,2.471c0.501-0.364,1.103,2.904-2.022,2.716c-2.313-0.125-3.417,1.229-2.75,3.063
	c0.501,1.457,3.257,3.788,3.167,5.292c0.04,0.634-2.302-0.066-2.354,1.062c-0.045,0.997,3.355,0.712,4.083,0.667
	s0.229-2.781,0.292-2.812c1.281,0.655,1.782,1.921,4,2.062c2.959,0,4.875-1.875,5.5-1.625s0.291,1.344,0.541,1.917
	s1.043,0.396,1.303,0.125C21.13,28.181,21.292,24.325,19.743,24.45z M15.254,4.648c0,0.094-0.104,0.22-0.167,0.339
	c0.003-0.234-0.316-0.517-0.316-0.517S15.254,4.499,15.254,4.648z M14.922,2.823c0.062,0.104-0.079,0.086-0.125,0.213
	c-0.098-0.167-0.18-0.299-0.18-0.299S14.858,2.711,14.922,2.823z M14.617,7.173c0,0,0.692,0.507-0.121,0.731
	c-0.075-0.165-0.144-0.312-0.13-0.369C14.396,7.416,14.617,7.173,14.617,7.173z M1.862,7.721c0-0.164,0.154-0.298,0.345-0.298
	s0.345,0.134,0.345,0.298c0,0.163-0.155,0.297-0.345,0.297S1.862,7.885,1.862,7.721z"/>
</svg>
