<?xml version="1.0" encoding="iso-8859-1"?>
<!-- Generator: Adobe Illustrator 16.0.4, SVG Export Plug-In . SVG Version: 6.00 Build 0)  -->
<!DOCTYPE svg PUBLIC "-//W3C//DTD SVG 1.1//EN" "http://www.w3.org/Graphics/SVG/1.1/DTD/svg11.dtd">
<svg version="1.1" id="Layer_1" xmlns="http://www.w3.org/2000/svg" xmlns:xlink="http://www.w3.org/1999/xlink" x="0px" y="0px"
	 width="32.291px" height="32.292px" viewBox="-0.292 -0.292 32.291 32.292"
	 style="enable-background:new -0.292 -0.292 32.291 32.292;" xml:space="preserve">
<path d="M30.932,11.713c0,0,0.551-0.153,0.514-0.402c-0.239,0.148-0.805-0.334-0.805-0.334s-0.278-1.596-0.298-2.188
	c-0.02-0.593-0.078-1.162-0.078-1.162s0.337,0.393,0.768,0.012c-0.847-0.415-0.795-0.975-0.703-1.335
	c0.092-0.362,0.764-2.917-0.635-4.201c-0.919-0.799-1.43-0.082-1.43-0.082S28.13,1.784,27.96,1.797
	c-0.17,0.01-0.293,0.193-0.293,0.193s-0.097-0.295-0.25-0.253c-0.152,0.04-0.193,0.186-0.193,0.186s-0.167-0.89-2.025-1.671
	c-1.861-0.781-4.305,0.461-4.816,0.906c-0.514,0.443-0.709,0.582-0.543,1.109c0.06,0.185,0.156,0.252,0.258,0.265
	C19.71,3.39,19.996,4.764,20.083,4.92c0.09,0.154,0.012,0.512-0.109,0.693c-0.266,0.397-0.562,0.58-0.657,0.846
	c-0.135,0.373,0.579,0.438,0.579,0.438l0.001,0.142c0,0-0.229,0.221-0.181,0.394c0.066,0.232,0.525,0.15,0.525,0.15
	S19.8,7.746,19.821,7.961c0.021,0.214,0.204,0.308,0.204,0.308s-0.425,0.84,0.204,1.027c0.63,0.186,2.153-0.836,2.321,0.061
	c0.119,0.464,0.211,1.217,0.145,1.687c-0.051,0.032-0.104,0.061-0.162,0.07c-4.402-1.066-8.706,4.996-10.876,5.153
	C9.677,16.411,0,17.977,0,17.977V32c0,0,21.88,0,22.552,0s0.16-3.27,0.213-5s3.597-6.837,4.097-6.891
	C27.363,20.057,26.903,32,26.903,32h2.302c0,0,0.078-13.693,0.025-17.641c0.84,0.295,1.273-0.203,1.243-0.426
	c-0.63,0.394-0.763-0.36-0.763-0.36s1.049,0.327,1.082-0.32c-0.855,0.278-1.055-1.318-1.055-1.318s1.661,1.727,1.971-0.083
	C31.167,12.459,30.932,11.713,30.932,11.713z M17.208,18.996c0.922,1.791-0.305,4.375-0.383,5.295
	c-0.08,0.92-2.829,1.182-4.908,1.023c-1.632-0.123-5.608-3.907-7.6-5.441c1.615-0.438,7.051-1.137,8.319-1.186
	c1.373-0.054,4.415-3.418,5.31-3.14C18.841,15.827,16.182,16.943,17.208,18.996z M25.892,11.121c0-0.784,0.249-1.541,1.21-1.567
	c0.377-0.082,0.565,1.216,0.817,2.458C27.042,11.51,26.027,11.165,25.892,11.121z"/>
</svg>
