<?xml version="1.0" encoding="iso-8859-1"?>
<!-- Generator: Adobe Illustrator 16.0.4, SVG Export Plug-In . SVG Version: 6.00 Build 0)  -->
<!DOCTYPE svg PUBLIC "-//W3C//DTD SVG 1.1//EN" "http://www.w3.org/Graphics/SVG/1.1/DTD/svg11.dtd">
<svg version="1.1" id="Layer_1" xmlns="http://www.w3.org/2000/svg" xmlns:xlink="http://www.w3.org/1999/xlink" x="0px" y="0px"
	 width="32px" height="32px" viewBox="0 0 32 32" style="enable-background:new 0 0 32 32;" xml:space="preserve">
<g>
	<path d="M7.84,18.356c0.25,0.857,0.811,0.2,1.545,0.334c0.313,0.109,0.453,0.172,0.5,0.484c0.092,0.582-0.761,0.691-0.775,1.334
		c-0.012,0.426,0.379,0.43,0.68,0.394c-0.238,0.043-0.712,0.179-0.67,0.575c0.185,0.842,1.054,0.312,1.068,0.557
		c0.148,1.102-0.096,1.744,0.486,2.633c0.467,0.713,2.955-0.121,4.299-0.674c0.33-0.136,0.693,1.277,0.783,1.193
		c0.46-0.43,7.504-3.828,6.584-6.891c-0.396-1.439-6.492-3.001-6.492-3.001s-1.531-7.411-7.042-7.441
		c-0.949,0.03,0.03,4.869,0.091,6.431C8.958,15.847,7.592,17.499,7.84,18.356z"/>
	<path d="M25.953,2.771C13.368-5.374,9.449,7.027,9.449,7.027s7.287,1.072,7.502,7.411c5.604,1.652,7.012,2.755,6.584,4.623
		c-2.572,8.115-16.261,9.8-18.926,8.636c-1.836-0.797-6.154-5.022,0.552-7.012c-4.655-1.286-9.003,6.032,0.46,8.972
		c9.462,2.939,19.076-2.205,20.639-3.767C27.823,24.329,38.539,10.916,25.953,2.771z M23.814,10.093
		c-0.328,0-0.638-0.018-0.916-0.051c0.205,0.167,0.422,0.361,0.637,0.576c0.863,0.863,1.386,1.738,1.169,1.956
		c-0.218,0.218-1.093-0.306-1.957-1.168c-0.181-0.181-0.341-0.36-0.488-0.536c0.021,0.225,0.032,0.46,0.032,0.709
		c0,1.221-0.25,2.21-0.557,2.21c-0.31,0-0.559-0.989-0.559-2.21c0-0.309,0.018-0.604,0.047-0.871
		c-0.175,0.217-0.375,0.443-0.604,0.671c-0.863,0.863-1.739,1.387-1.957,1.169c-0.219-0.218,0.307-1.094,1.169-1.956
		c0.187-0.185,0.37-0.351,0.549-0.5c-0.249,0.024-0.519,0.039-0.801,0.039c-1.222,0-2.21-0.25-2.21-0.558
		c0-0.309,0.988-0.558,2.21-0.558c0.299,0,0.584,0.016,0.845,0.043c-0.225-0.178-0.46-0.385-0.697-0.62
		c-0.861-0.864-1.386-1.74-1.168-1.958c0.219-0.217,1.094,0.306,1.957,1.169c0.274,0.274,0.51,0.548,0.702,0.805
		c-0.048-0.327-0.077-0.702-0.077-1.109c0-1.22,0.25-2.21,0.558-2.21s0.558,0.99,0.558,2.21c0,0.316-0.02,0.615-0.048,0.887
		c0.172-0.213,0.369-0.438,0.594-0.66c0.863-0.863,1.739-1.386,1.957-1.169c0.218,0.218-0.307,1.094-1.17,1.957
		c-0.266,0.266-0.53,0.494-0.778,0.685c0.303-0.04,0.641-0.064,1.006-0.064c1.221,0,2.209,0.25,2.209,0.558
		C26.023,9.844,25.035,10.093,23.814,10.093z"/>
</g>
</svg>
