<?xml version="1.0" encoding="iso-8859-1"?>
<!-- Generator: Adobe Illustrator 16.0.4, SVG Export Plug-In . SVG Version: 6.00 Build 0)  -->
<!DOCTYPE svg PUBLIC "-//W3C//DTD SVG 1.1//EN" "http://www.w3.org/Graphics/SVG/1.1/DTD/svg11.dtd">
<svg version="1.1" id="Layer_1" xmlns="http://www.w3.org/2000/svg" xmlns:xlink="http://www.w3.org/1999/xlink" x="0px" y="0px"
	 width="37.604px" height="37.604px" viewBox="-5.132 -5.132 37.604 37.604"
	 style="enable-background:new -5.132 -5.132 37.604 37.604;" xml:space="preserve">
<path d="M15.496,19.917c-1.047-1.659-1.812-3.278-1.995-5.549c-0.16-1.99,0.972-3.76,1.542-4.328c0,0,1.397-0.276,1.791-0.777
	c1.405-1.445,0.457-1.681,0-1.809c4.584-0.732,2.91-3.774,2.91-3.774s1.783,0.423,1.769-0.786c-0.296-1.463-5.349-1.728-7.703,4.896
	c-0.453-0.47-1.865-0.577-1.929-0.888c-0.034-0.166-0.044-0.485-0.046-0.749c0.304-0.104,0.583-0.265,0.829-0.479
	c0.105-0.024,0.205-0.059,0.299-0.101c-0.089,0.323-0.261,0.663-0.597,0.759c1.978,0.529,1.456-3.318,1.348-3.887
	c-0.107-0.566-0.693-1.399-0.878-1.68C12.65,0.487,11.85-0.4,11.047,0.21c-0.353-0.192-1.027-0.149-1.423,0
	C9.227,0.36,7.622,1.581,8.039,3.946c0.417,2.366,0.696,2.292,0.696,2.292L8.628,5.755c0,0,0.835,1.702,1.627,1.017
	C9.768,6.895,9.816,6.494,9.816,6.494s0.284,0.113,0.531,0.153c-0.037,0.211-0.075,0.415-0.1,0.521
	c-0.052,0.225-0.709,0.479-1.152,0.639c-0.033-0.062-0.06-0.113-0.066-0.106C6.675,1.077,1.623,1.342,1.326,2.805
	C1.312,4.014,3.095,3.591,3.095,3.591S1.419,6.633,6.004,7.365c-0.457,0.127-1.405,0.362,0,1.808
	c0.151,0.192,0.45,0.352,0.761,0.475c-0.322,0.545-0.818,1.784-1.166,1.742C5.142,11.335,2.864,9.148,2.393,9.1
	C1.922,9.052,1.761,9.384,0.589,9.04c-1.172-0.345-0.3,0.671,0.094,0.905c0.394,0.235,1.516-0.349,2.047,0.34
	c0.339,0.335,1.989,2.367,2.977,2.396c0.987,0.029,1.901-1.961,2.123-1.965c0.649,0.019,2.15,2.588,0.983,4.796
	c-1.895,3.104-0.004,10.581-0.437,14.354c-0.196,2.318,2.365,1.918,3.583,1.25c1.926-1.022,1.9-0.276,3.875,0.709
	c1.976,0.984,4.801,0.955,4.293-0.875s6.898,0.842,7.213-1.007C26.98,28.181,16.542,21.576,15.496,19.917z M10.381,6.452
	C9.978,6.232,9.726,5.976,9.579,5.71c0.252,0.213,0.539,0.37,0.85,0.466C10.415,6.257,10.399,6.35,10.381,6.452z"/>
</svg>
