<?xml version="1.0" encoding="iso-8859-1"?>
<!-- Generator: Adobe Illustrator 16.0.4, SVG Export Plug-In . SVG Version: 6.00 Build 0)  -->
<!DOCTYPE svg PUBLIC "-//W3C//DTD SVG 1.1//EN" "http://www.w3.org/Graphics/SVG/1.1/DTD/svg11.dtd">
<svg version="1.1" id="Layer_1" xmlns="http://www.w3.org/2000/svg" xmlns:xlink="http://www.w3.org/1999/xlink" x="0px" y="0px"
	 width="48.362px" height="48.361px" viewBox="-16.36 -16.361 48.362 48.361"
	 style="enable-background:new -16.36 -16.361 48.362 48.361;" xml:space="preserve">
<g>
	<polygon points="7.212,32 8.037,32 8.037,26.227 4.414,26.227 	"/>
	<polygon points="8.733,32 9.558,32 12.355,26.227 8.733,26.227 	"/>
	<path d="M0,9.855c2.381,3.393,4.448,0.638,4.448,0.638s1.131,0.672,3.082,0.729c0.004,0.001,0.009,0.003,0.013,0.003
		c0.017,0,0.03,0,0.045,0c0.066,0.002,0.136,0,0.202,0c0.067,0,0.136,0.002,0.201,0c0.016,0,0.029,0,0.045,0
		c0.005,0,0.009-0.002,0.014-0.003c1.951-0.057,3.081-0.729,3.081-0.729s2.067,2.755,4.449-0.638
		c-2.798,0.416-2.5-0.536-1.727-1.311c0.77-0.77,2.064-11.311-6.063-7.85c-8.13-3.461-6.834,7.08-6.062,7.85
		C2.5,9.319,2.798,10.271,0,9.855z M9.86,4.458c0.55,0,0.994,0.382,0.994,0.854S10.41,6.165,9.86,6.165
		c-0.549,0-0.993-0.382-0.993-0.854S9.312,4.458,9.86,4.458z M5.72,4.458c0.548,0,0.992,0.382,0.992,0.854S6.268,6.165,5.72,6.165
		c-0.551,0-0.995-0.382-0.995-0.854S5.17,4.458,5.72,4.458z"/>
	<path d="M10.834,11.549l-3.125,0.628l-3.125-0.628c0,0-4.404,9.617-4.227,12.077c0.178,2.461,13.215,2.302,15.223-1.091
		C16.277,20.57,10.834,11.549,10.834,11.549z M10.403,15.618c-0.181,0.573-0.368,1.146-0.574,1.708
		c-0.194,0.568-0.422,1.121-0.634,1.682c-0.153,0.383-0.314,0.762-0.473,1.141c0.269,0.215,0.443,0.541,0.443,0.912
		c0,0.646-0.522,1.172-1.171,1.172c-0.646,0-1.17-0.524-1.17-1.172c0-0.371,0.176-0.696,0.444-0.912
		c-0.162-0.388-0.326-0.774-0.483-1.164c-0.215-0.568-0.448-1.131-0.645-1.707c-0.209-0.571-0.399-1.15-0.584-1.731
		c-0.161-0.592-0.356-1.17-0.487-1.775l0.057-0.023l2.7,6.16c0.056-0.008,0.11-0.018,0.168-0.018c0.06,0,0.113,0.01,0.17,0.018
		l2.66-6.062l0.057,0.024C10.754,14.465,10.563,15.034,10.403,15.618z"/>
</g>
</svg>
