<?xml version="1.0" encoding="iso-8859-1"?>
<!-- Generator: Adobe Illustrator 16.0.4, SVG Export Plug-In . SVG Version: 6.00 Build 0)  -->
<!DOCTYPE svg PUBLIC "-//W3C//DTD SVG 1.1//EN" "http://www.w3.org/Graphics/SVG/1.1/DTD/svg11.dtd">
<svg version="1.1" id="Layer_1" xmlns="http://www.w3.org/2000/svg" xmlns:xlink="http://www.w3.org/1999/xlink" x="0px" y="0px"
	 width="38.817px" height="38.817px" viewBox="-7.785 -7.785 38.817 38.817"
	 style="enable-background:new -7.785 -7.785 38.817 38.817;" xml:space="preserve">
<path d="M22.965,18.481c-0.473-0.313-4.092-2.924-0.094-6.877c0.127-0.125,0.233-0.247,0.377-0.375c-0.188-3.938-3.5-8-4.875-8.375
	c-0.015-0.004-0.024-0.004-0.039-0.008c-0.147-0.039-0.293-0.067-0.433-0.085c-0.051-0.006-0.1-0.006-0.147-0.01
	c-0.08-0.007-0.16-0.017-0.235-0.017c-0.015,0-0.023,0.004-0.037,0.004c-0.199,0.002-0.383,0.026-0.558,0.065
	c-0.041,0.009-0.077,0.021-0.114,0.031c-0.154,0.042-0.3,0.093-0.433,0.155c-0.019,0.008-0.037,0.014-0.053,0.021
	c-0.144,0.072-0.275,0.154-0.394,0.239c-0.027,0.021-0.056,0.04-0.08,0.061c-0.113,0.086-0.218,0.174-0.306,0.262
	c-0.06-0.051-0.142-0.097-0.229-0.139C15.29,3.422,15.265,3.412,15.237,3.4c-0.076-0.031-0.16-0.06-0.25-0.084
	c-0.027-0.007-0.051-0.016-0.08-0.022c-0.117-0.029-0.244-0.052-0.377-0.069c-0.023-0.003-0.049-0.004-0.072-0.006
	c-0.111-0.012-0.225-0.018-0.34-0.02c-0.021,0-0.041-0.004-0.062-0.004c-0.011,0-0.021,0.003-0.029,0.003
	c-0.269,0.002-0.535,0.029-0.777,0.094c-0.812,0.219-2.748,3.848-2.566,4.81c0.105,0.563,1.835,0.497,1.675,1.175
	c-0.021,0.088-0.075,0.145-0.149,0.182c-0.026,0.014-0.069,0.014-0.104,0.021c-0.059,0.015-0.113,0.031-0.186,0.032
	c-0.082,0.001-0.174-0.007-0.27-0.018c-0.025-0.003-0.047-0.003-0.072-0.005c-0.146-0.021-0.303-0.046-0.461-0.072
	c-0.102-0.017-0.203-0.033-0.301-0.045c-0.045-0.006-0.084-0.006-0.127-0.01c-0.068-0.006-0.139-0.016-0.199-0.016
	c-0.01,0-0.016,0.004-0.023,0.004c-0.08,0.002-0.143,0.019-0.205,0.035c-0.035,0.008-0.076,0.01-0.105,0.023
	c-0.08,0.041-0.143,0.101-0.168,0.195c-0.223,0.797-0.91,2.047-1.426,2.563c-0.287,0.287,1.125,0.297,1.074,0.836
	c0.02,0.258-0.313,0.5-0.25,0.672C9.449,13.846,9.9,14.065,9.9,14.065s-0.445,0.023-0.508,0.258
	c-0.063,0.235,0.633,0.555,0.633,0.555s-0.777,1.165-0.09,1.727c0.086,0.07,0.191,0.117,0.307,0.146
	c0.043,0.011,0.094,0.01,0.139,0.016c0.078,0.012,0.156,0.025,0.24,0.025c0.002,0,0.004,0,0.008,0c0.014,0,0.027-0.002,0.041-0.002
	c0.197-0.004,0.402-0.025,0.605-0.051c0.209-0.025,0.408-0.048,0.586-0.052c0.1-0.003,0.195-0.002,0.275,0.013
	c0.006,0.002,0.01,0.004,0.016,0.006c0.078,0.016,0.144,0.047,0.197,0.088c0.017,0.011,0.029,0.022,0.043,0.037
	c0.051,0.053,0.092,0.117,0.105,0.211c0,1.709-3.207,3.416-3.895,4.229s-0.605,3.583-0.918,3.958
	c-0.023,0.028-0.074,0.049-0.135,0.067c-0.018,0.004-0.041,0.009-0.061,0.015c-0.053,0.011-0.113,0.021-0.182,0.026
	c-0.027,0.002-0.053,0.006-0.082,0.009c-0.098,0.008-0.205,0.013-0.326,0.016c-0.008,0-0.016,0-0.023,0
	c-0.119,0.003-0.25,0.003-0.387,0.003c-0.088,0.002-0.178,0.002-0.271,0c-0.051,0-0.1,0-0.152,0c-0.02,0-0.041,0.002-0.061,0.002
	c-0.092,0-0.182,0-0.273,0c-0.057,0.002-0.113,0.002-0.17,0.002c-0.1,0.002-0.199,0.006-0.297,0.01
	c-0.047,0.002-0.092,0.002-0.137,0.004c-0.143,0.008-0.283,0.016-0.418,0.027c-0.012,0.002-0.021,0.004-0.033,0.004
	c-0.121,0.014-0.238,0.027-0.352,0.047c-0.039,0.006-0.074,0.015-0.111,0.021c-0.082,0.017-0.162,0.034-0.236,0.056
	c-0.039,0.01-0.076,0.022-0.113,0.034c-0.066,0.022-0.127,0.048-0.184,0.074c-0.031,0.017-0.064,0.03-0.094,0.049
	c-0.055,0.031-0.098,0.068-0.141,0.104c-0.02,0.02-0.043,0.035-0.061,0.056c-0.051,0.062-0.092,0.127-0.111,0.204
	c0.025,0.07,0.053,0.146,0.078,0.223c0,0,0,0.002,0.002,0.002c0.234,0.674,0.488,1.498,1.105,1.442
	c0.041-0.007,0.105-0.015,0.168-0.021c0.039-0.004,0.08-0.009,0.127-0.013c0.072-0.007,0.152-0.013,0.24-0.019
	c0.023-0.002,0.043-0.004,0.066-0.006c0.104-0.006,0.217-0.01,0.332-0.014c0.037-0.001,0.078-0.002,0.117-0.003
	c0.115-0.001,0.232-0.002,0.348,0.002c0.012,0.001,0.021,0.001,0.031,0.002c0.121,0.005,0.238,0.015,0.348,0.025
	c0.021,0.003,0.041,0.004,0.061,0.007c0.107,0.016,0.205,0.034,0.291,0.061c0.018,0.004,0.033,0.01,0.051,0.015
	c0.082,0.026,0.152,0.06,0.201,0.101c0.008,0.006,0.012,0.014,0.018,0.02c0.047,0.046,0.078,0.097,0.076,0.158
	c-0.125,0.008-0.236,0.021-0.34,0.033c-0.035,0.004-0.063,0.012-0.094,0.018c-0.064,0.011-0.129,0.021-0.184,0.033
	c-0.041,0.008-0.074,0.021-0.109,0.03c-0.039,0.011-0.08,0.021-0.115,0.032c-0.037,0.014-0.066,0.029-0.1,0.044
	c-0.025,0.011-0.053,0.021-0.074,0.032c-0.033,0.02-0.061,0.037-0.088,0.057c-0.014,0.01-0.029,0.02-0.041,0.028
	c-0.029,0.022-0.053,0.048-0.074,0.073c-0.006,0.006-0.012,0.012-0.018,0.018c-0.023,0.027-0.039,0.059-0.055,0.087
	c0,0.003-0.002,0.005-0.004,0.007c-0.139,0.303,0.133,0.629,0.133,0.629s2.1,1.06,2.725,1.185c0.012-0.033,0.029-0.063,0.041-0.099
	c1.268-3.377,5.008-6.149,5.473-6.484c0.031-0.021,0.049-0.034,0.049-0.034s-0.02,0.022-0.055,0.063
	c-0.021,0.023-0.053,0.063-0.084,0.101c-0.027,0.03-0.045,0.053-0.078,0.092c-0.051,0.062-0.113,0.136-0.18,0.216
	c-0.021,0.024-0.039,0.045-0.062,0.073c-0.068,0.083-0.146,0.177-0.229,0.274c-0.033,0.041-0.063,0.078-0.099,0.121
	c-0.082,0.099-0.168,0.203-0.258,0.312c-0.041,0.051-0.08,0.098-0.121,0.15c-0.094,0.115-0.19,0.234-0.291,0.359
	c-0.043,0.055-0.088,0.108-0.133,0.166c-0.102,0.127-0.203,0.258-0.309,0.391c-0.047,0.06-0.094,0.119-0.141,0.18
	c-0.105,0.136-0.211,0.271-0.318,0.411c-0.047,0.062-0.094,0.12-0.139,0.183c-0.109,0.143-0.215,0.281-0.32,0.424
	c-0.045,0.062-0.09,0.121-0.133,0.182c-0.107,0.145-0.211,0.287-0.313,0.43c-0.041,0.057-0.08,0.111-0.119,0.167
	c-0.102,0.144-0.199,0.284-0.293,0.423c-0.037,0.053-0.068,0.104-0.104,0.155c-0.092,0.137-0.182,0.272-0.264,0.401
	c-0.027,0.045-0.051,0.086-0.078,0.131c-0.08,0.132-0.16,0.262-0.227,0.382c-0.014,0.026-0.023,0.05-0.039,0.075
	c-0.326,0.607-0.459,1.05-0.221,1.15c1.211,0.313,1.645,0.25,2.979,0.291c0.18,0.006,0.461-0.117,0.809-0.326c0,0,0,0,0.003,0
	c0.043-0.025,0.094-0.062,0.141-0.092c0.19-0.121,0.399-0.264,0.625-0.428c0.052-0.038,0.099-0.07,0.149-0.111
	c0.123-0.09,0.248-0.188,0.378-0.289c0.063-0.049,0.127-0.098,0.19-0.148c0.131-0.104,0.267-0.213,0.402-0.324
	c0.061-0.049,0.121-0.1,0.182-0.148c0.146-0.121,0.293-0.242,0.443-0.369c0.012-0.01,0.025-0.021,0.037-0.03
	c0.359-0.304,0.725-0.616,1.092-0.937c0.021-0.019,0.043-0.035,0.064-0.056c0.152-0.133,0.303-0.265,0.453-0.396
	c0.108-0.096,0.217-0.189,0.324-0.283c0.067-0.059,0.133-0.115,0.198-0.174c0.806-0.705,1.562-1.367,2.164-1.861
	c0.022-0.02,0.047-0.041,0.069-0.061c0.113-0.092,0.22-0.174,0.318-0.252c0.039-0.029,0.074-0.06,0.111-0.086
	c0.092-0.07,0.178-0.135,0.256-0.189c0.033-0.021,0.061-0.039,0.09-0.061c0.074-0.05,0.146-0.097,0.205-0.129
	c0.08-0.044,0.15-0.078,0.199-0.084c0.105-0.017,0.088-0.109-0.018-0.266c-0.031-0.046-0.082-0.105-0.127-0.161
	c-0.029-0.037-0.054-0.067-0.09-0.108c-0.06-0.068-0.134-0.148-0.209-0.229c-0.037-0.039-0.07-0.076-0.109-0.117
	c-0.098-0.103-0.207-0.213-0.322-0.329c-0.016-0.016-0.031-0.031-0.047-0.047c-0.377-0.38-0.828-0.824-1.324-1.331
	c-0.008-0.008-0.016-0.017-0.023-0.022c-0.209-0.215-0.426-0.438-0.645-0.67l0,0c-0.43-0.453-0.869-0.938-1.293-1.441
	c-0.051-0.062-0.102-0.127-0.154-0.189c-0.15-0.183-0.299-0.367-0.443-0.555c-0.067-0.087-0.133-0.175-0.196-0.264
	c-0.125-0.165-0.246-0.332-0.363-0.5c-0.067-0.1-0.135-0.198-0.198-0.299c-0.107-0.16-0.209-0.322-0.308-0.484
	c-0.062-0.104-0.121-0.206-0.178-0.309c-0.093-0.164-0.175-0.326-0.255-0.49c-0.049-0.1-0.1-0.199-0.143-0.299
	c-0.076-0.176-0.141-0.353-0.201-0.526c-0.028-0.085-0.063-0.17-0.09-0.254c-0.076-0.257-0.137-0.513-0.17-0.765
	c2.75,4.063,5.834,7.848,7.396,8.098c0.023,0.004,0.045,0.004,0.068,0.005c0-0.002,0.002-0.005,0.002-0.007
	c1.475,0.1,1.112-4.124,1.112-4.124S22.998,18.501,22.965,18.481z"/>
<path d="M2.787,25.414c0.016-0.021,0.024-0.041,0.042-0.062c0.033-0.036,0.07-0.071,0.128-0.12c0.078-0.068,0.159-0.132,0.245-0.182
	c0.04-0.023,0.085-0.047,0.153-0.08c0.083-0.04,0.172-0.076,0.31-0.123c0.037-0.012,0.075-0.023,0.114-0.035
	c0.09-0.025,0.188-0.046,0.324-0.074c0.036-0.007,0.073-0.015,0.102-0.02c0.127-0.02,0.259-0.036,0.436-0.055
	c0.145-0.015,0.295-0.022,0.456-0.031l0.085-0.002l0.054-0.002c0.103-0.004,0.208-0.006,0.314-0.008l0.092-0.002h0.083l0.28-0.002
	h0.059h0.003h0.16h0.13h0.134c0.133,0,0.259-0.002,0.392-0.004c0.079-0.001,0.151-0.004,0.218-0.008
	c0.037-0.223,0.073-0.539,0.103-0.793c0.127-1.107,0.271-2.365,0.829-3.023c0.256-0.303,0.687-0.627,1.231-1.039
	c0.785-0.59,2.017-1.52,2.381-2.295c-0.089,0.008-0.182,0.019-0.275,0.029c-0.191,0.023-0.416,0.049-0.658,0.057l-0.041,0.004h-0.04
	h-0.082l-0.016-0.004c-0.082-0.004-0.163-0.016-0.255-0.028c-0.074-0.005-0.148-0.015-0.219-0.032
	c-0.233-0.061-0.436-0.159-0.597-0.293c-0.682-0.559-0.641-1.374-0.406-2.03c-0.43-0.37-0.462-0.744-0.387-1.025
	c0.012-0.043,0.025-0.084,0.042-0.124c-0.014-0.031-0.023-0.056-0.03-0.075c-0.106-0.294-0.036-0.553,0.055-0.742
	c-0.018-0.006-0.034-0.011-0.049-0.016c-0.327-0.11-0.777-0.26-0.892-0.747c-0.066-0.28,0.022-0.576,0.236-0.79
	c0.419-0.419,1.042-1.546,1.231-2.227c0.078-0.29,0.273-0.528,0.575-0.682C9.93,8.686,10.005,8.67,10.04,8.665
	c0.016-0.028,0.031-0.057,0.046-0.083C10.025,8.48,9.97,8.373,9.944,8.24c-0.235-1.25,1.814-5.324,3.108-5.673
	c0.27-0.073,0.574-0.113,0.911-0.119l0.024-0.004h0.066c0.033,0,0.066,0.002,0.074,0.004c0.139,0.002,0.271,0.01,0.414,0.025
	l0.061,0.005l0.019,0.002c0.163,0.021,0.319,0.049,0.454,0.083c0.033,0.008,0.064,0.017,0.109,0.03
	c0.09,0.025,0.176,0.053,0.26,0.083l0.047-0.036c0.167-0.12,0.33-0.218,0.48-0.292c0.033-0.019,0.073-0.036,0.084-0.039
	c0.168-0.079,0.351-0.145,0.574-0.206c0.04-0.011,0.082-0.022,0.13-0.034C16.949,2.027,17.132,2.01,17.313,2
	c-1.683-1.262-3.617-2-5.69-2C5.203,0,0,6.912,0,15.438C0,19.251,1.061,22.72,2.787,25.414z"/>
</svg>
