<?xml version="1.0" encoding="iso-8859-1"?>
<!-- Generator: Adobe Illustrator 16.0.4, SVG Export Plug-In . SVG Version: 6.00 Build 0)  -->
<!DOCTYPE svg PUBLIC "-//W3C//DTD SVG 1.1//EN" "http://www.w3.org/Graphics/SVG/1.1/DTD/svg11.dtd">
<svg version="1.1" id="Layer_1" xmlns="http://www.w3.org/2000/svg" xmlns:xlink="http://www.w3.org/1999/xlink" x="0px" y="0px"
	 width="42.058px" height="42.058px" viewBox="-10.057 -10.058 42.058 42.058"
	 style="enable-background:new -10.057 -10.058 42.058 42.058;" xml:space="preserve">
<g>
	<path d="M21.566,9.335c-1.083-3.949-2.621-9.473-10.782-9.333C9.23,0.514,15.17,1.068,14.681,3.008
		c-2.727-1.573-4.334-2.622-6.257-2.447C6.501,0.736,5.675,2.437,5.743,3.667c1.555,0.818,3.562,7.265,4.208,8.628
		c0.646,1.363,1.77,3.445,2.923,4.074c1.152,0.629-1.596,4.631-3.934,4.734C6.603,21.208,0.711,23.754,0,27.08
		c1.436-1.684,7.085-4.643,9.519-4.555c2.435,0.09,4.767-2.703,5.156-3.498c0.106,3.597-3.468,5.002-5.985,5.063
		c-3.621,0.062-9.057,3.511-8.411,5.622c0.678-1.816,5.222-3.947,8.228-4.088c3.006-0.139,5.8-1.688,7.232-2.956
		c-0.695,2.823-3.304,3.837-6.31,4.372C6.423,27.577,0.384,29.236,0.476,32c1.167-1.718,6.522-3.355,12.302-3.729
		S23.35,16.221,21.566,9.335z M14.819,1.657c0,0,4.739,2.647,2.395,6.895C17.734,4.391,14.819,1.657,14.819,1.657z M18.132,4.614
		c0,0,5.163,7.113-0.92,10.608C20.975,10.469,18.132,4.614,18.132,4.614z"/>
	<path d="M3.303,13.845c0.047,0.419-0.228,0.961-0.297,1.258s-0.472,0.191-0.419,0.611c0.052,0.419,0.559,0.578,0.559,0.578
		s-0.384,0.228-0.367,0.542c0.088,0.542,1.083,0.088,1.153,0.298c0.07,0.209,0.054,0.042-0.008,0.476
		c-0.062,0.433-0.848,0.572-0.376,1.672c0.62,1.447,7.166,0.613,8.739-2.288c-5.628-5.07-5.75-12.515-6.87-12.375
		C4.299,4.756,3.32,9.44,3.286,10.524c-0.035,1.083-1.171,1.765-1.312,2.604C1.835,13.967,3.023,13.617,3.303,13.845z M3.617,9.977
		c0.071-0.197,1.66,0.303,1.66,0.529c0,0.228-1.171,0.262-1.45,0.228C3.73,10.721,3.386,10.599,3.617,9.977z"/>
</g>
</svg>
