<svg xmlns="http://www.w3.org/2000/svg" xmlns:xlink="http://www.w3.org/1999/xlink" version="1.1" id="Layer_1" x="0px" y="0px" width="33.49px" height="33.49px" viewBox="-1.49 -1.489 33.49 33.49" style="enable-background:new -1.49 -1.489 33.49 33.49;" xml:space="preserve">
<g>
	<path d="M23.26 14.739c0.874-0.521 2.298-0.877 3.862-1.34c-0.293-1.714-0.818-4.452-1.523-6.57 c-0.654-1.963-3.781-4.526-5.992-6.101c-1.053 1.12-1.488 2.884-2.49 3.753C16.172 5.3 14.5 5.2 14.2 5.1 c-0.686-0.191-2.167-0.192-1.152-2.305c-0.631 0.028-3.229 0.775-1.591 2.743c1.638 2 5.4 3.2 5.6 3.2 c-2.111 1.976-7.646 3.93-9.984 3.676c-2.338-0.254-5.102-3.222-2.578-4.004c2.523-0.781 3.7 1 1.1 1.6 c0.994 0.6 4.6 0.2 4.827-1.7c0.225-1.922-4.63-6.186-8.888-1.866c-4.258 4.3 1.6 8 2.6 8.2 c6.947 2.4 13.51-5.163 13.51-5.163l0.473 0.638c0 0-10.101 7.076-12.227 11.383c-2.66 4.854-1.344 13.1 6.1 9.7 c7.557-3.531-1.944-9.554-3.49-5.856c-1.118 2.7 2.2 3.3 2.5 2.465c0.191-0.479-0.349-0.762-0.659-0.817 s-0.126-0.498 0.001-0.599c0.734-0.517 1.844-0.021 2.1 0.969c0.35 1.377-3.358 3.608-5.066 1 c-2.083-3.166 1.313-5.979 2.89-5.803c0.863-4.401 8.239-11.905 8.239-11.905l0.74 0.779c0 0-8.475 9.632-8 11.3 c2.846 1 4.2 2.7 4.6 4.737c2.479 0.1 8.6 0.5 9.99-3.378c1.371-3.841-2.184-5.992-2.893-6.524 C22.332 17.1 22 15.5 23.3 14.739z M20.03 24.236c-1.947 0.109-5.167-1.094-5.084-3.918 c0.083-2.824 3.96-6.697 4.632-6.965s1.547 3.1 1.4 4.148c-0.178 1.028-4.508 1.382-3.495 3.9 c0.426 1 1.5 1.6 2.2 1.246c0.658-0.357 0.974-1.21 0.438-1.951C23.028 20.6 22 24.1 20 24.236z"/>
	<path d="M28.774 3.055c-1.939-2.558-5.776-3.315-7.824-2.979c2.141 1.6 5.2 4.1 5.9 6.3 c0.713 2.1 1.2 4.8 1.5 6.576c0.334-0.132 0.885-0.325 1.215-0.495C30.752 11.9 31.1 6.2 28.8 3.055z"/>
</g>
</svg>
