<svg xmlns="http://www.w3.org/2000/svg" xmlns:xlink="http://www.w3.org/1999/xlink" version="1.1" id="Layer_1" x="0px" y="0px" width="32px" height="32px" viewBox="0 0 32 32" style="enable-background:new 0 0 32 32;" xml:space="preserve">
<path d="M28.889 25.952c0.65-0.07 3.205-3.303 3.108-3.976s-4.192-6.502-4.192-6.502S27.516 9.8 22.6 8.4 C16.144-6.55 4.9 1.5 6.4 8.87c8.866-7.854 11.1 2 11.1 2.047s-6.481-4.266-6.867-1.012 c-0.386 3.3 5.3 4.9 7.9 5.569c0.049 0.287-5.685-1.202-6.456-1.232C11.277 14.2 0 18.1 0 18.064l0.152 13.8 l13.414-0.254c0 0 3.806-5.662 4.938-6.119c1.133-0.455 1.1 0.7 1.1 1.908c0.724-0.173 0.795-2.102 0.795-2.102 s1.471 1.2 0.4 2.818c1.735-0.168 1.146-3.625 1.657-3.824C22.891 24.1 28.2 26 28.9 25.952z"/>
</svg>
