<svg xmlns="http://www.w3.org/2000/svg" xmlns:xlink="http://www.w3.org/1999/xlink" version="1.1" id="Layer_1" x="0px" y="0px" width="32.38px" height="32.38px" viewBox="-0.376 -0.379 32.38 32.38" style="enable-background:new -0.376 -0.379 32.38 32.38;" xml:space="preserve">
<path d="M25.338 21.952c0.557-0.039 5.691-0.181 6.277-2.964c0.047-0.22-0.078-0.784-0.369-0.429 c-3.477 2.087-6.623-0.842-6.623-0.842s5.513-5.103 4.645-9.898c-0.868-4.797-8.266-9.031-10.46-7.501 c3.368 1.8 5.3 6.3 5.3 6.276s-2.571 0.459-5.276-1.99c-0.97 5.5 5.6 5.8 6.7 6 c0.736 0.101-1.549 4.247-2.357 5.047c-0.096 0.094-0.145 0.194-0.162 0.299c-0.965-0.559-3.941-2.138-7.158-2.138 S9.62 15.4 8.7 15.92c-0.019-0.104-0.067-0.205-0.161-0.299c-0.811-0.8-3.096-4.946-2.359-5.047 c1.109-0.152 7.653-0.511 6.684-5.97c-2.703 2.449-5.275 1.99-5.275 1.99s1.908-4.439 5.275-6.276 c-2.193-1.53-9.592 2.704-10.459 7.501c-0.867 4.8 4.6 9.9 4.6 9.898s-3.146 2.929-6.622 0.8 c-0.291-0.355-0.415 0.209-0.37 0.429c0.586 2.8 5.7 2.9 6.3 2.964c0.6 0 1.5 1 1.2 1.4 c-0.287 0.383-5.147 0.315-7.141-0.492c-0.134-0.055-0.461-0.068-0.161 0.318c1.239 1.7 7.7 1.8 7.7 2 c-0.048 0.24-4.297 4.365-2.035 6.68c0.143 0.1 0.6 0.3 0.66-0.133c1.117-3.666 3.152-5.99 4.028-6.088 c0.793-0.088 5.3 0.2 5.3 0.228c0.068 0 0.12-0.002 0.122-0.009c0.939-0.067 4.428-0.307 5.221-0.219 c0.875 0.1 2.9 2.4 4 6.088c0.08 0.4 0.5 0.3 0.7 0.133c2.263-2.312-1.987-6.438-2.036-6.68 c-0.047-0.234 6.42-0.297 7.66-2.01c0.3-0.388-0.027-0.373-0.16-0.318c-1.994 0.809-6.854 0.875-7.144 0.5 C23.859 22.9 24.7 22 25.3 21.952z"/>
</svg>
