<svg xmlns="http://www.w3.org/2000/svg" xmlns:xlink="http://www.w3.org/1999/xlink" version="1.1" id="Layer_1" x="0px" y="0px" width="32.387px" height="32.388px" viewBox="-0.389 -0.389 32.387 32.388" style="enable-background:new -0.389 -0.389 32.387 32.388;" xml:space="preserve">
<g>
	<circle cx="19.8" cy="10.3" r="2.8"/>
	<path d="M10.559 15.121c6.591 6.9 13.8 1.1 14.7 0.218c1.828-2.214 1.976-7.777-0.2-10.542 c0.494 9.424-4.468 10.732-7.785 8.475c-4.126-3.212 1.053-9.82 6.271-5.425c0.061-1.267 0.379-6.664-0.188-7.23 C13.961-2.715 4 8.2 10.6 15.121z"/>
	<path d="M25.276 3.215c0.957 0.6 3.4 5.3 2.2 9.945c-0.805 2.527-3.543 6.638-10.844 6.3 c-7.725-0.283-13.15-8.424-6.692-16.008C9.182 4 0 6.8 0 6.781v22.324c0 0 9.142-3.545 10.914-6.166 c0 1.418-0.071 5 0.7 6.449c0.778 1.5 5 3.4 5.9 2.268c0.961-1.135 5.133-7.441 5.133-7.441s2.551-1.204 3.979-5.583 C29.82 16.9 36.7 8.8 25.3 3.215z"/>
</g>
</svg>
