<svg xmlns="http://www.w3.org/2000/svg" xmlns:xlink="http://www.w3.org/1999/xlink" version="1.1" id="Layer_1" x="0px" y="0px" width="32.001px" height="32.001px" viewBox="0 0 32.001 32.001" style="enable-background:new 0 0 32.001 32.001;" xml:space="preserve">
<path d="M25.225 12.093c0 0 0.674-2.593 0-3.699c-0.672-1.104-4.611-2.931-4.611-2.931s1.826-4.085-3.939-4.373 c3.172 1.7 2.2 3.6 2.2 3.604l-3.748 1.25c0 0-1.537-3.987-9.032-4.469c4.229 0.2 7.7 0.4 9.5 3.4 C16.559 4.5 16.9 4.2 17.9 4c-0.251-2.276-3.241-3.223-4.375-3.486C12.414 0.2 6.055-0.67 4.1 0.9 C3.14 1.3 0.2 5.3 0.2 7.432C0.16 9.5 0 25.4 0 26.649s1.539 5.3 2.5 5.286c1.009 0 12.4 0 15 0 c1.538-0.047-11.818-15.498-5.236-19.603c-3.557 6.1 4.1 13.5 5.4 14.511c1.297 1.1 5.6 1.5 6.2 1.4 c0.576-0.098 2.307-3.604 2.307-4.036c0-0.433-3.699-2.597-3.987-2.979s-3.442 0.322-3.442-1.072c0-1.394 3.01-2.098 4.163-1.714 c1.153 0.4 4 2.9 4.7 2.979c0.674 0 4.178-4.325 4.323-5.382S25.225 12.1 25.2 12.093z M10.295 11.1 c-0.229 0.134-0.504 0.3-0.779 0.536c-0.286 0.224-0.549 0.53-0.813 0.861c-0.228 0.357-0.453 0.753-0.552 1.2 c-0.136 0.452-0.122 0.962-0.091 1.479c0.057 0.5 0.2 1.1 0.4 1.595c0.18 0.6 0.4 1.2 0.5 1.8 c0.194 0.6 0.3 1.2 0.4 1.847C9.527 21 9.6 21.6 9.6 22.194c0.067 0.6 0.1 1.2 0.1 1.7 c0.008 0.5 0 1.046-0.045 1.512c-0.047 0.936-0.192 1.706-0.271 2.242c-0.098 0.536-0.182 0.837-0.182 0.8 s-0.016-0.31-0.042-0.852c-0.021-0.54-0.086-1.309-0.167-2.222c-0.09-0.91-0.178-1.976-0.372-3.094 c-0.078-0.562-0.172-1.141-0.302-1.706c-0.139-0.574-0.195-1.145-0.406-1.738c-0.168-0.587-0.334-1.175-0.499-1.752 c-0.2-0.612-0.306-1.251-0.34-1.88c-0.012-0.631 0.06-1.257 0.284-1.805c0.182-0.563 0.533-1.014 0.866-1.382 c0.715-0.715 1.491-1.005 2.007-1.179c0.529-0.16 0.845-0.17 0.845-0.17S10.757 10.8 10.3 11.074z M8.962 8.3 C8.298 8.6 7.5 9 6.9 9.55C6.55 9.8 6.2 10.1 6 10.482c-0.135 0.161-0.157 0.365-0.25 0.5 c-0.031 0.214-0.072 0.35-0.097 0.626c-0.048 0.481-0.124 1.032-0.223 1.523c-0.086 0.501-0.23 0.979-0.36 1.4 c-0.272 0.923-0.609 1.757-0.958 2.442c-0.341 0.689-0.7 1.23-1 1.574c-0.148 0.175-0.295 0.287-0.395 0.4 c-0.113 0.049-0.173 0.072-0.173 0.072s0.045-0.041 0.131-0.119c0.072-0.094 0.152-0.24 0.244-0.434 c0.178-0.393 0.372-0.979 0.577-1.69c0.196-0.713 0.404-1.549 0.589-2.448c0.097-0.449 0.169-0.918 0.249-1.389 c0.082-0.479 0.13-0.924 0.171-1.438c0.025-0.223 0.096-0.578 0.162-0.853c0.127-0.268 0.206-0.571 0.391-0.796 c0.303-0.506 0.745-0.852 1.157-1.153C6.687 8.4 7.1 8.2 7.5 8.065C7.969 7.9 8.4 7.8 8.8 7.7 c1.514-0.351 2.54-0.263 2.54-0.263S10.311 7.7 9 8.318z"/>
</svg>
