<svg xmlns="http://www.w3.org/2000/svg" xmlns:xlink="http://www.w3.org/1999/xlink" version="1.1" id="Layer_1" x="0px" y="0px" width="32.592px" height="32.591px" viewBox="-0.591 -0.591 32.592 32.591" style="enable-background:new -0.591 -0.591 32.592 32.591;" xml:space="preserve">
<g>
	<path d="M14.856 14.715c0 0 0.2 0.3 0.3 0.349c1.052 0.2 5.7 1.3 7.1 0.471c0.72-0.479-1.918-2.733-1.918-2.733 s3.115 1.4 3.6 0.912c1.928-3.104-3.041-8.21-4.304-9.415C19.35 3.9 19.1 4.2 19.1 4.21L13.22 8.295L14.856 14.715z M20.302 8.918c0.517 0 0.9 0.4 0.9 0.935c0 0.517-0.418 0.936-0.935 0.936c-0.516 0-0.935-0.419-0.935-0.936 C19.367 9.3 19.8 8.9 20.3 8.918z"/>
	<path d="M13.344 14.442c0.646 0 0.46-0.681 0.46-0.681l-1.485-5.896l6.304-4.127c0 0 0.42-0.278 0.021-0.529 c-1.004-0.856-3.944-3.286-4.934-3.206c-1.199 0.096-0.911 3.26-1.774 3.068C2.923 3.501-0.276 19.1 0.1 19.6 c0.419 0.5 0.8 0.9 1.5 0.289c0.787 1.709-1.033 5.582-1.64 7.166c-0.158 0.5 0.2 0.4 0.5 0.1 c1.392-1.391 2.378-1.885 2.936-1.831c0.557 0.1 1.8 0.5 2.6 0.96c0.357 0.3 0.8 0.2 0.393-0.349 C0.651 13.6 10.6 14.2 13.3 14.442z"/>
	<path d="M16.553 17.284c0 0-0.154-0.313-0.301-0.349c-1.05-0.248-5.737-1.314-7.086-0.472c-0.719 0.5 1.9 2.7 1.9 2.7 S7.968 17.8 7.4 18.286c-1.93 3.1 3 8.2 4.3 9.415c0.317 0.4 0.6 0.1 0.6 0.089l5.896-4.086L16.553 17.284z M11.107 23.081c-0.516 0-0.935-0.419-0.935-0.935c0-0.517 0.419-0.937 0.935-0.937c0.517 0 0.9 0.4 0.9 0.9 C12.042 22.7 11.6 23.1 11.1 23.081z"/>
	<path d="M30.854 4.867c-1.392 1.391-2.379 1.885-2.937 1.831c-0.558-0.054-1.844-0.543-2.59-0.96 c-0.358-0.263-0.771-0.19-0.394 0.349c5.824 12.265-4.131 11.753-6.869 11.47c-0.646-0.035-0.459 0.682-0.459 0.682l1.484 5.9 l-6.304 4.127c0 0-0.42 0.278-0.021 0.529c1.004 0.9 3.9 3.3 4.9 3.207c1.197-0.098 0.91-3.262 1.773-3.068 c9.014-0.432 12.213-15.981 11.793-16.491c-0.42-0.509-0.762-0.868-1.533-0.288c-0.787-1.709 1.033-5.583 1.642-7.166 C31.531 4.5 31.1 4.6 30.9 4.867z"/>
</g>
</svg>
