<svg xmlns="http://www.w3.org/2000/svg" xmlns:xlink="http://www.w3.org/1999/xlink" version="1.1" id="Layer_1" x="0px" y="0px" width="32px" height="32px" viewBox="0 0 32 32" style="enable-background:new 0 0 32 32;" xml:space="preserve">
<path d="M17.479 13.139c6.018-7.785 12.1 2 13 1.41c0.939-0.602-0.15-8.914-7.41-8.764 c-7.257 0.15-9.364 8.764-9.364 8.764l-2.482 0.301c0 0 0.79-2.934 1.467-3.009c-0.802-0.526-1.01-0.276-1.467-0.113 c-0.765 0.238-2.069 3.122-2.069 3.122H7.681c0 0 0.289-1.831 1.166-2.52c-0.197-0.386-0.724-0.387-1.166-0.302 c-1.091 0.238-1.617 2.797-2.407 3.236c-1.642 1.189-4.877-3.773 1.204-5.004C13.486 8.8 18.1 6.5 14.2 1.5 c-3.398-4.287-10.519 1.404-9.102 4.89c0.489 0.4 5.955-4.338 6.206-1.053c0.301 1.931-7.221 3.034-8.65 4.5 c-6.87 4.7 2 9.4 2 9.439s0.809 3.7 2.7 4.363c0.499 0.1 0.837-0.32 1.128-0.414 c-1.74-1.937-1.523-3.207-1.354-3.31c0.169-0.104 1.9 0.3 2.1 0.489c0.207 0.2 0.2 2.1 2.1 3.2 c0.385 0.2 1.3 0.2 1.4 0c-1.082-1.553-0.894-2.567-0.79-2.709s2.975-0.099 3 0.1 c0.071 0.2 2 7 10.7 5.303s6.305-9.892 5.691-9.778c-0.614 0.112-1.78 6.056-6.625 6.7 c-2.745 0.264-5.647-2.766-5.836-3.065c-0.188-0.301 4.6 0.3 4.231-2.588c0.304-0.797 2.745-0.983 2.595-1.474 c-0.149-0.49-2.802 0.104-2.764-1.063C22.536 10.7 16.9 14 17.5 13.139z"/>
</svg>
