<svg xmlns="http://www.w3.org/2000/svg" xmlns:xlink="http://www.w3.org/1999/xlink" version="1.1" id="Layer_1" x="0px" y="0px" width="32px" height="32px" viewBox="0 0 32 32" style="enable-background:new 0 0 32 32;" xml:space="preserve">
<g>
	<path d="M7.84 18.356c0.25 0.9 0.8 0.2 1.5 0.334c0.313 0.1 0.5 0.2 0.5 0.484c0.092 0.582-0.761 0.691-0.775 1.3 c-0.012 0.4 0.4 0.4 0.7 0.394c-0.238 0.043-0.712 0.179-0.67 0.575c0.185 0.8 1.1 0.3 1.1 0.6 c0.148 1.102-0.096 1.7 0.5 2.633c0.467 0.7 2.955-0.121 4.299-0.674c0.33-0.136 0.7 1.3 0.8 1.2 c0.46-0.43 7.504-3.828 6.584-6.891c-0.396-1.439-6.492-3.001-6.492-3.001s-1.531-7.411-7.042-7.441 c-0.949 0 0 4.9 0.1 6.431C8.958 15.8 7.6 17.5 7.8 18.356z"/>
	<path d="M25.953 2.771C13.368-5.374 9.4 7 9.4 7.027s7.287 1.1 7.5 7.411c5.604 1.7 7 2.8 6.6 4.6 c-2.572 8.115-16.261 9.8-18.926 8.636c-1.836-0.797-6.154-5.022 0.552-7.012c-4.655-1.286-9.003 6 0.5 9 c9.462 2.9 19.076-2.205 20.639-3.767C27.823 24.3 38.5 10.9 26 2.771z M23.814 10.1 c-0.328 0-0.638-0.018-0.916-0.051c0.205 0.2 0.4 0.4 0.6 0.576c0.863 0.9 1.4 1.7 1.2 2 c-0.218 0.218-1.093-0.306-1.957-1.168c-0.181-0.181-0.341-0.36-0.488-0.536c0.021 0.2 0 0.5 0 0.7 c0 1.221-0.25 2.21-0.557 2.21c-0.31 0-0.559-0.989-0.559-2.21c0-0.309 0.018-0.604 0.047-0.871 c-0.175 0.217-0.375 0.443-0.604 0.671c-0.863 0.863-1.739 1.387-1.957 1.169c-0.219-0.218 0.307-1.094 1.169-1.956 c0.187-0.185 0.37-0.351 0.549-0.5c-0.249 0.024-0.519 0.039-0.801 0.039c-1.222 0-2.21-0.25-2.21-0.558 c0-0.309 0.988-0.558 2.21-0.558c0.299 0 0.6 0 0.8 0.043c-0.225-0.178-0.46-0.385-0.697-0.62 c-0.861-0.864-1.386-1.74-1.168-1.958c0.219-0.217 1.1 0.3 2 1.169c0.274 0.3 0.5 0.5 0.7 0.8 c-0.048-0.327-0.077-0.702-0.077-1.109c0-1.22 0.25-2.21 0.558-2.21s0.558 1 0.6 2.21c0 0.316-0.02 0.615-0.048 0.9 c0.172-0.213 0.369-0.438 0.594-0.66c0.863-0.863 1.739-1.386 1.957-1.169c0.218 0.218-0.307 1.094-1.17 2 c-0.266 0.266-0.53 0.494-0.778 0.685c0.303-0.04 0.641-0.064 1.006-0.064c1.221 0 2.2 0.2 2.2 0.6 C26.023 9.8 25 10.1 23.8 10.093z"/>
</g>
</svg>
